G04 #@! TF.FileFunction,Copper,L2,Bot,Signal*
%FSLAX46Y46*%
G04 Gerber Fmt 4.6, Leading zero omitted, Abs format (unit mm)*
G04 Created by KiCad (PCBNEW 4.0.5-e0-6337~49~ubuntu16.04.1) date Thu Dec 29 17:38:52 2016*
%MOMM*%
%LPD*%
G01*
G04 APERTURE LIST*
%ADD10C,0.100000*%
%ADD11R,1.727200X1.727200*%
%ADD12O,1.727200X1.727200*%
%ADD13C,4.064000*%
%ADD14R,2.032000X2.032000*%
%ADD15O,2.032000X2.032000*%
%ADD16C,2.286000*%
%ADD17C,0.700000*%
%ADD18C,1.300000*%
%ADD19C,0.500000*%
%ADD20C,1.000000*%
%ADD21C,0.254000*%
G04 APERTURE END LIST*
D10*
D11*
X165180000Y-120540000D03*
D12*
X165180000Y-118000000D03*
X167720000Y-120540000D03*
X167720000Y-118000000D03*
X170260000Y-120540000D03*
X170260000Y-118000000D03*
X172800000Y-120540000D03*
X172800000Y-118000000D03*
X175340000Y-120540000D03*
X175340000Y-118000000D03*
X177880000Y-120540000D03*
X177880000Y-118000000D03*
X180420000Y-120540000D03*
X180420000Y-118000000D03*
X182960000Y-120540000D03*
X182960000Y-118000000D03*
D13*
X189950000Y-50100000D03*
X120450000Y-132350000D03*
X189950000Y-132350000D03*
X119700000Y-50100000D03*
D14*
X185200000Y-88600000D03*
D15*
X187740000Y-88600000D03*
D14*
X187700000Y-77100000D03*
D15*
X185160000Y-77100000D03*
D16*
X171470000Y-51790000D03*
X165120000Y-54330000D03*
X171470000Y-89890000D03*
X165120000Y-92430000D03*
X171470000Y-70840000D03*
X165120000Y-73380000D03*
X152420000Y-108940000D03*
X146070000Y-111480000D03*
X152420000Y-89890000D03*
X146070000Y-92430000D03*
X152420000Y-70840000D03*
X146070000Y-73380000D03*
X152420000Y-51790000D03*
X146070000Y-54330000D03*
X133370000Y-89890000D03*
X127020000Y-92430000D03*
X133370000Y-51790000D03*
X127020000Y-54330000D03*
X133370000Y-70840000D03*
X127020000Y-73380000D03*
D17*
X166550000Y-126050000D03*
X162600000Y-126100000D03*
X141300000Y-103700000D03*
X141300000Y-106700000D03*
X141300000Y-90800000D03*
X141300000Y-84400000D03*
X141300000Y-71800000D03*
X141300000Y-65300000D03*
X158750000Y-126500000D03*
X160300000Y-108600000D03*
X160300000Y-103300000D03*
X160300000Y-90800000D03*
X160300000Y-84400000D03*
X160300000Y-71800000D03*
X160300000Y-65300000D03*
X184700000Y-113500000D03*
X181600000Y-108250000D03*
X185050000Y-120250000D03*
X185450000Y-127250000D03*
D18*
X155800000Y-84000000D03*
X155450000Y-103100000D03*
X173300000Y-99800000D03*
X173300000Y-80100000D03*
X137050000Y-84050000D03*
X138650000Y-101750000D03*
X138400000Y-65050000D03*
X136200000Y-62850000D03*
X172150000Y-62800000D03*
X156150000Y-65050000D03*
X156700000Y-122150000D03*
D17*
X182300000Y-110850000D03*
X181850000Y-105000000D03*
X180600000Y-103950000D03*
X158400000Y-113300000D03*
D19*
X170260000Y-120540000D02*
X166600000Y-124200000D01*
X166600000Y-126000000D02*
X166550000Y-126050000D01*
X166600000Y-124200000D02*
X166600000Y-126000000D01*
X167720000Y-120540000D02*
X167710000Y-120540000D01*
X167710000Y-120540000D02*
X162600000Y-125650000D01*
X162600000Y-125650000D02*
X162600000Y-126100000D01*
X141300000Y-106700000D02*
X141300000Y-103700000D01*
X141300000Y-84400000D02*
X141300000Y-90800000D01*
X141300000Y-65300000D02*
X141300000Y-71800000D01*
X165180000Y-120540000D02*
X163610000Y-120540000D01*
X158750000Y-125400000D02*
X158750000Y-126500000D01*
X163610000Y-120540000D02*
X158750000Y-125400000D01*
X160300000Y-103300000D02*
X160300000Y-106500000D01*
X160300000Y-106500000D02*
X160300000Y-106800000D01*
X160300000Y-108600000D02*
X160300000Y-108105026D01*
X160300000Y-108105026D02*
X160300000Y-106500000D01*
X160300000Y-84400000D02*
X160300000Y-90800000D01*
X160300000Y-65300000D02*
X160300000Y-71800000D01*
X182960000Y-118000000D02*
X182960000Y-115240000D01*
X182960000Y-115240000D02*
X184700000Y-113500000D01*
X177880000Y-118000000D02*
X177880000Y-111970000D01*
X177880000Y-111970000D02*
X181600000Y-108250000D01*
X185050000Y-120250000D02*
X185450000Y-120650000D01*
X185450000Y-120650000D02*
X185450000Y-127250000D01*
D20*
X157050000Y-84000000D02*
X155800000Y-84000000D01*
X157050000Y-103100000D02*
X155450000Y-103100000D01*
X173300000Y-80100000D02*
X174150000Y-80100000D01*
X173300000Y-99500000D02*
X173300000Y-99800000D01*
X177100000Y-95700000D02*
X173300000Y-99500000D01*
X177100000Y-83050000D02*
X177100000Y-95700000D01*
X174150000Y-80100000D02*
X177100000Y-83050000D01*
X172150000Y-62800000D02*
X174900000Y-62800000D01*
X177100000Y-76300000D02*
X173300000Y-80100000D01*
X177100000Y-65000000D02*
X177100000Y-76300000D01*
X174900000Y-62800000D02*
X177100000Y-65000000D01*
X138650000Y-84000000D02*
X137100000Y-84000000D01*
X137100000Y-84000000D02*
X137050000Y-84050000D01*
X138650000Y-65300000D02*
X138650000Y-84000000D01*
X138650000Y-84000000D02*
X138650000Y-101750000D01*
X138400000Y-65050000D02*
X138650000Y-65300000D01*
X156150000Y-65050000D02*
X156150000Y-63250000D01*
X155750000Y-62850000D02*
X136200000Y-62850000D01*
X156150000Y-63250000D02*
X155750000Y-62850000D01*
X156150000Y-65050000D02*
X156750000Y-65050000D01*
X159000000Y-62800000D02*
X172150000Y-62800000D01*
X156750000Y-65050000D02*
X159000000Y-62800000D01*
X156700000Y-122150000D02*
X156700000Y-127450000D01*
X177880000Y-124420000D02*
X177880000Y-120540000D01*
X173800000Y-128500000D02*
X177880000Y-124420000D01*
X157750000Y-128500000D02*
X173800000Y-128500000D01*
X156700000Y-127450000D02*
X157750000Y-128500000D01*
X157050000Y-65950000D02*
X156150000Y-65050000D01*
X157050000Y-121800000D02*
X157050000Y-103100000D01*
X157050000Y-103100000D02*
X157050000Y-84000000D01*
X157050000Y-84000000D02*
X157050000Y-65950000D01*
X156700000Y-122150000D02*
X157050000Y-121800000D01*
D19*
X180420000Y-118000000D02*
X180420000Y-112730000D01*
X180420000Y-112730000D02*
X182300000Y-110850000D01*
X175340000Y-118000000D02*
X175340000Y-111510000D01*
X175340000Y-111510000D02*
X181850000Y-105000000D01*
X165180000Y-118000000D02*
X165180000Y-116320000D01*
X177550000Y-103950000D02*
X180600000Y-103950000D01*
X165180000Y-116320000D02*
X177550000Y-103950000D01*
X158400000Y-113300000D02*
X163100000Y-118000000D01*
X163100000Y-118000000D02*
X165180000Y-118000000D01*
D21*
G36*
X193098000Y-136248000D02*
X116302000Y-136248000D01*
X116302000Y-132856783D01*
X117890557Y-132856783D01*
X118279320Y-133797663D01*
X118998550Y-134518150D01*
X119938750Y-134908555D01*
X120956783Y-134909443D01*
X121897663Y-134520680D01*
X122618150Y-133801450D01*
X123008555Y-132861250D01*
X123008558Y-132856783D01*
X187390557Y-132856783D01*
X187779320Y-133797663D01*
X188498550Y-134518150D01*
X189438750Y-134908555D01*
X190456783Y-134909443D01*
X191397663Y-134520680D01*
X192118150Y-133801450D01*
X192508555Y-132861250D01*
X192509443Y-131843217D01*
X192120680Y-130902337D01*
X191401450Y-130181850D01*
X190461250Y-129791445D01*
X189443217Y-129790557D01*
X188502337Y-130179320D01*
X187781850Y-130898550D01*
X187391445Y-131838750D01*
X187390557Y-132856783D01*
X123008558Y-132856783D01*
X123009443Y-131843217D01*
X122620680Y-130902337D01*
X121901450Y-130181850D01*
X120961250Y-129791445D01*
X119943217Y-129790557D01*
X119002337Y-130179320D01*
X118281850Y-130898550D01*
X117891445Y-131838750D01*
X117890557Y-132856783D01*
X116302000Y-132856783D01*
X116302000Y-114292879D01*
X143421861Y-114292879D01*
X143631192Y-114799498D01*
X144018463Y-115187446D01*
X144524716Y-115397661D01*
X145072879Y-115398139D01*
X145579498Y-115188808D01*
X145967446Y-114801537D01*
X146084667Y-114519238D01*
X147358664Y-114519238D01*
X147741639Y-115446109D01*
X148450161Y-116155869D01*
X149376362Y-116540461D01*
X150379238Y-116541336D01*
X151306109Y-116158361D01*
X152015869Y-115449839D01*
X152400461Y-114523638D01*
X152401336Y-113520762D01*
X152018361Y-112593891D01*
X151309839Y-111884131D01*
X150383638Y-111499539D01*
X149380762Y-111498664D01*
X148453891Y-111881639D01*
X147744131Y-112590161D01*
X147359539Y-113516362D01*
X147358664Y-114519238D01*
X146084667Y-114519238D01*
X146177661Y-114295284D01*
X146178139Y-113747121D01*
X145968808Y-113240502D01*
X145878297Y-113149833D01*
X146400726Y-113150289D01*
X147014743Y-112896582D01*
X147484931Y-112427214D01*
X147739709Y-111813641D01*
X147740289Y-111149274D01*
X147486582Y-110535257D01*
X147017214Y-110065069D01*
X146403641Y-109810291D01*
X145739274Y-109809711D01*
X145125257Y-110063418D01*
X144655069Y-110532786D01*
X144400291Y-111146359D01*
X144399711Y-111810726D01*
X144653418Y-112424743D01*
X144870456Y-112642160D01*
X144527121Y-112641861D01*
X144020502Y-112851192D01*
X143632554Y-113238463D01*
X143422339Y-113744716D01*
X143421861Y-114292879D01*
X116302000Y-114292879D01*
X116302000Y-109270726D01*
X150749711Y-109270726D01*
X151003418Y-109884743D01*
X151472786Y-110354931D01*
X152086359Y-110609709D01*
X152750726Y-110610289D01*
X153364743Y-110356582D01*
X153834931Y-109887214D01*
X154089709Y-109273641D01*
X154090289Y-108609274D01*
X153836582Y-107995257D01*
X153367214Y-107525069D01*
X152753641Y-107270291D01*
X152089274Y-107269711D01*
X151475257Y-107523418D01*
X151005069Y-107992786D01*
X150750291Y-108606359D01*
X150749711Y-109270726D01*
X116302000Y-109270726D01*
X116302000Y-103873681D01*
X140422849Y-103873681D01*
X140523000Y-104116066D01*
X140523000Y-106284330D01*
X140423153Y-106524789D01*
X140422849Y-106873681D01*
X140556082Y-107196131D01*
X140802571Y-107443051D01*
X141124789Y-107576847D01*
X141473681Y-107577151D01*
X141796131Y-107443918D01*
X142043051Y-107197429D01*
X142176847Y-106875211D01*
X142177151Y-106526319D01*
X142077000Y-106283934D01*
X142077000Y-104115670D01*
X142176847Y-103875211D01*
X142177151Y-103526319D01*
X142043918Y-103203869D01*
X141797429Y-102956949D01*
X141475211Y-102823153D01*
X141126319Y-102822849D01*
X140803869Y-102956082D01*
X140556949Y-103202571D01*
X140423153Y-103524789D01*
X140422849Y-103873681D01*
X116302000Y-103873681D01*
X116302000Y-95242879D01*
X124371861Y-95242879D01*
X124581192Y-95749498D01*
X124968463Y-96137446D01*
X125474716Y-96347661D01*
X126022879Y-96348139D01*
X126529498Y-96138808D01*
X126917446Y-95751537D01*
X127034667Y-95469238D01*
X128308664Y-95469238D01*
X128691639Y-96396109D01*
X129400161Y-97105869D01*
X130326362Y-97490461D01*
X131329238Y-97491336D01*
X132256109Y-97108361D01*
X132965869Y-96399839D01*
X133350461Y-95473638D01*
X133350662Y-95242879D01*
X134531861Y-95242879D01*
X134741192Y-95749498D01*
X135128463Y-96137446D01*
X135634716Y-96347661D01*
X136182879Y-96348139D01*
X136689498Y-96138808D01*
X137077446Y-95751537D01*
X137287661Y-95245284D01*
X137288139Y-94697121D01*
X137078808Y-94190502D01*
X136691537Y-93802554D01*
X136185284Y-93592339D01*
X135637121Y-93591861D01*
X135130502Y-93801192D01*
X134742554Y-94188463D01*
X134532339Y-94694716D01*
X134531861Y-95242879D01*
X133350662Y-95242879D01*
X133351336Y-94470762D01*
X132968361Y-93543891D01*
X132259839Y-92834131D01*
X131333638Y-92449539D01*
X130330762Y-92448664D01*
X129403891Y-92831639D01*
X128694131Y-93540161D01*
X128309539Y-94466362D01*
X128308664Y-95469238D01*
X127034667Y-95469238D01*
X127127661Y-95245284D01*
X127128139Y-94697121D01*
X126918808Y-94190502D01*
X126828297Y-94099833D01*
X127350726Y-94100289D01*
X127964743Y-93846582D01*
X128434931Y-93377214D01*
X128689709Y-92763641D01*
X128690289Y-92099274D01*
X128436582Y-91485257D01*
X127967214Y-91015069D01*
X127353641Y-90760291D01*
X126689274Y-90759711D01*
X126075257Y-91013418D01*
X125605069Y-91482786D01*
X125350291Y-92096359D01*
X125349711Y-92760726D01*
X125603418Y-93374743D01*
X125820456Y-93592160D01*
X125477121Y-93591861D01*
X124970502Y-93801192D01*
X124582554Y-94188463D01*
X124372339Y-94694716D01*
X124371861Y-95242879D01*
X116302000Y-95242879D01*
X116302000Y-90220726D01*
X131699711Y-90220726D01*
X131953418Y-90834743D01*
X132422786Y-91304931D01*
X133036359Y-91559709D01*
X133700726Y-91560289D01*
X134314743Y-91306582D01*
X134784931Y-90837214D01*
X135039709Y-90223641D01*
X135040289Y-89559274D01*
X134786582Y-88945257D01*
X134317214Y-88475069D01*
X133703641Y-88220291D01*
X133039274Y-88219711D01*
X132425257Y-88473418D01*
X131955069Y-88942786D01*
X131700291Y-89556359D01*
X131699711Y-90220726D01*
X116302000Y-90220726D01*
X116302000Y-76192879D01*
X124371861Y-76192879D01*
X124581192Y-76699498D01*
X124968463Y-77087446D01*
X125474716Y-77297661D01*
X126022879Y-77298139D01*
X126529498Y-77088808D01*
X126917446Y-76701537D01*
X127034667Y-76419238D01*
X128308664Y-76419238D01*
X128691639Y-77346109D01*
X129400161Y-78055869D01*
X130326362Y-78440461D01*
X131329238Y-78441336D01*
X132256109Y-78058361D01*
X132965869Y-77349839D01*
X133350461Y-76423638D01*
X133350662Y-76192879D01*
X134531861Y-76192879D01*
X134741192Y-76699498D01*
X135128463Y-77087446D01*
X135634716Y-77297661D01*
X136182879Y-77298139D01*
X136689498Y-77088808D01*
X137077446Y-76701537D01*
X137287661Y-76195284D01*
X137288139Y-75647121D01*
X137078808Y-75140502D01*
X136691537Y-74752554D01*
X136185284Y-74542339D01*
X135637121Y-74541861D01*
X135130502Y-74751192D01*
X134742554Y-75138463D01*
X134532339Y-75644716D01*
X134531861Y-76192879D01*
X133350662Y-76192879D01*
X133351336Y-75420762D01*
X132968361Y-74493891D01*
X132259839Y-73784131D01*
X131333638Y-73399539D01*
X130330762Y-73398664D01*
X129403891Y-73781639D01*
X128694131Y-74490161D01*
X128309539Y-75416362D01*
X128308664Y-76419238D01*
X127034667Y-76419238D01*
X127127661Y-76195284D01*
X127128139Y-75647121D01*
X126918808Y-75140502D01*
X126828297Y-75049833D01*
X127350726Y-75050289D01*
X127964743Y-74796582D01*
X128434931Y-74327214D01*
X128689709Y-73713641D01*
X128690289Y-73049274D01*
X128436582Y-72435257D01*
X127967214Y-71965069D01*
X127353641Y-71710291D01*
X126689274Y-71709711D01*
X126075257Y-71963418D01*
X125605069Y-72432786D01*
X125350291Y-73046359D01*
X125349711Y-73710726D01*
X125603418Y-74324743D01*
X125820456Y-74542160D01*
X125477121Y-74541861D01*
X124970502Y-74751192D01*
X124582554Y-75138463D01*
X124372339Y-75644716D01*
X124371861Y-76192879D01*
X116302000Y-76192879D01*
X116302000Y-71170726D01*
X131699711Y-71170726D01*
X131953418Y-71784743D01*
X132422786Y-72254931D01*
X133036359Y-72509709D01*
X133700726Y-72510289D01*
X134314743Y-72256582D01*
X134784931Y-71787214D01*
X135039709Y-71173641D01*
X135040289Y-70509274D01*
X134786582Y-69895257D01*
X134317214Y-69425069D01*
X133703641Y-69170291D01*
X133039274Y-69169711D01*
X132425257Y-69423418D01*
X131955069Y-69892786D01*
X131700291Y-70506359D01*
X131699711Y-71170726D01*
X116302000Y-71170726D01*
X116302000Y-63083093D01*
X135022796Y-63083093D01*
X135201606Y-63515846D01*
X135532412Y-63847230D01*
X135964853Y-64026795D01*
X136433093Y-64027204D01*
X136796614Y-63877000D01*
X138156733Y-63877000D01*
X137734154Y-64051606D01*
X137402770Y-64382412D01*
X137223205Y-64814853D01*
X137222796Y-65283093D01*
X137401606Y-65715846D01*
X137623000Y-65937627D01*
X137623000Y-82973000D01*
X137525480Y-82973000D01*
X137285147Y-82873205D01*
X136816907Y-82872796D01*
X136384154Y-83051606D01*
X136052770Y-83382412D01*
X135873205Y-83814853D01*
X135872796Y-84283093D01*
X136051606Y-84715846D01*
X136382412Y-85047230D01*
X136814853Y-85226795D01*
X137283093Y-85227204D01*
X137623000Y-85086757D01*
X137623000Y-101154106D01*
X137473205Y-101514853D01*
X137472796Y-101983093D01*
X137651606Y-102415846D01*
X137982412Y-102747230D01*
X138414853Y-102926795D01*
X138883093Y-102927204D01*
X139315846Y-102748394D01*
X139647230Y-102417588D01*
X139826795Y-101985147D01*
X139827204Y-101516907D01*
X139677000Y-101153386D01*
X139677000Y-95242879D01*
X143421861Y-95242879D01*
X143631192Y-95749498D01*
X144018463Y-96137446D01*
X144524716Y-96347661D01*
X145072879Y-96348139D01*
X145579498Y-96138808D01*
X145967446Y-95751537D01*
X146084667Y-95469238D01*
X147358664Y-95469238D01*
X147741639Y-96396109D01*
X148450161Y-97105869D01*
X149376362Y-97490461D01*
X150379238Y-97491336D01*
X151306109Y-97108361D01*
X152015869Y-96399839D01*
X152400461Y-95473638D01*
X152401336Y-94470762D01*
X152018361Y-93543891D01*
X151309839Y-92834131D01*
X150383638Y-92449539D01*
X149380762Y-92448664D01*
X148453891Y-92831639D01*
X147744131Y-93540161D01*
X147359539Y-94466362D01*
X147358664Y-95469238D01*
X146084667Y-95469238D01*
X146177661Y-95245284D01*
X146178139Y-94697121D01*
X145968808Y-94190502D01*
X145878297Y-94099833D01*
X146400726Y-94100289D01*
X147014743Y-93846582D01*
X147484931Y-93377214D01*
X147739709Y-92763641D01*
X147740289Y-92099274D01*
X147486582Y-91485257D01*
X147017214Y-91015069D01*
X146403641Y-90760291D01*
X145739274Y-90759711D01*
X145125257Y-91013418D01*
X144655069Y-91482786D01*
X144400291Y-92096359D01*
X144399711Y-92760726D01*
X144653418Y-93374743D01*
X144870456Y-93592160D01*
X144527121Y-93591861D01*
X144020502Y-93801192D01*
X143632554Y-94188463D01*
X143422339Y-94694716D01*
X143421861Y-95242879D01*
X139677000Y-95242879D01*
X139677000Y-84573681D01*
X140422849Y-84573681D01*
X140523000Y-84816066D01*
X140523000Y-90384330D01*
X140423153Y-90624789D01*
X140422849Y-90973681D01*
X140556082Y-91296131D01*
X140802571Y-91543051D01*
X141124789Y-91676847D01*
X141473681Y-91677151D01*
X141796131Y-91543918D01*
X142043051Y-91297429D01*
X142176847Y-90975211D01*
X142177151Y-90626319D01*
X142077000Y-90383934D01*
X142077000Y-90220726D01*
X150749711Y-90220726D01*
X151003418Y-90834743D01*
X151472786Y-91304931D01*
X152086359Y-91559709D01*
X152750726Y-91560289D01*
X153364743Y-91306582D01*
X153834931Y-90837214D01*
X154089709Y-90223641D01*
X154090289Y-89559274D01*
X153836582Y-88945257D01*
X153367214Y-88475069D01*
X152753641Y-88220291D01*
X152089274Y-88219711D01*
X151475257Y-88473418D01*
X151005069Y-88942786D01*
X150750291Y-89556359D01*
X150749711Y-90220726D01*
X142077000Y-90220726D01*
X142077000Y-84815670D01*
X142176847Y-84575211D01*
X142177151Y-84226319D01*
X142043918Y-83903869D01*
X141797429Y-83656949D01*
X141475211Y-83523153D01*
X141126319Y-83522849D01*
X140803869Y-83656082D01*
X140556949Y-83902571D01*
X140423153Y-84224789D01*
X140422849Y-84573681D01*
X139677000Y-84573681D01*
X139677000Y-76192879D01*
X143421861Y-76192879D01*
X143631192Y-76699498D01*
X144018463Y-77087446D01*
X144524716Y-77297661D01*
X145072879Y-77298139D01*
X145579498Y-77088808D01*
X145967446Y-76701537D01*
X146084667Y-76419238D01*
X147358664Y-76419238D01*
X147741639Y-77346109D01*
X148450161Y-78055869D01*
X149376362Y-78440461D01*
X150379238Y-78441336D01*
X151306109Y-78058361D01*
X152015869Y-77349839D01*
X152400461Y-76423638D01*
X152401336Y-75420762D01*
X152018361Y-74493891D01*
X151309839Y-73784131D01*
X150383638Y-73399539D01*
X149380762Y-73398664D01*
X148453891Y-73781639D01*
X147744131Y-74490161D01*
X147359539Y-75416362D01*
X147358664Y-76419238D01*
X146084667Y-76419238D01*
X146177661Y-76195284D01*
X146178139Y-75647121D01*
X145968808Y-75140502D01*
X145878297Y-75049833D01*
X146400726Y-75050289D01*
X147014743Y-74796582D01*
X147484931Y-74327214D01*
X147739709Y-73713641D01*
X147740289Y-73049274D01*
X147486582Y-72435257D01*
X147017214Y-71965069D01*
X146403641Y-71710291D01*
X145739274Y-71709711D01*
X145125257Y-71963418D01*
X144655069Y-72432786D01*
X144400291Y-73046359D01*
X144399711Y-73710726D01*
X144653418Y-74324743D01*
X144870456Y-74542160D01*
X144527121Y-74541861D01*
X144020502Y-74751192D01*
X143632554Y-75138463D01*
X143422339Y-75644716D01*
X143421861Y-76192879D01*
X139677000Y-76192879D01*
X139677000Y-65473681D01*
X140422849Y-65473681D01*
X140523000Y-65716066D01*
X140523000Y-71384330D01*
X140423153Y-71624789D01*
X140422849Y-71973681D01*
X140556082Y-72296131D01*
X140802571Y-72543051D01*
X141124789Y-72676847D01*
X141473681Y-72677151D01*
X141796131Y-72543918D01*
X142043051Y-72297429D01*
X142176847Y-71975211D01*
X142177151Y-71626319D01*
X142077000Y-71383934D01*
X142077000Y-71170726D01*
X150749711Y-71170726D01*
X151003418Y-71784743D01*
X151472786Y-72254931D01*
X152086359Y-72509709D01*
X152750726Y-72510289D01*
X153364743Y-72256582D01*
X153834931Y-71787214D01*
X154089709Y-71173641D01*
X154090289Y-70509274D01*
X153836582Y-69895257D01*
X153367214Y-69425069D01*
X152753641Y-69170291D01*
X152089274Y-69169711D01*
X151475257Y-69423418D01*
X151005069Y-69892786D01*
X150750291Y-70506359D01*
X150749711Y-71170726D01*
X142077000Y-71170726D01*
X142077000Y-65715670D01*
X142176847Y-65475211D01*
X142177151Y-65126319D01*
X142043918Y-64803869D01*
X141797429Y-64556949D01*
X141475211Y-64423153D01*
X141126319Y-64422849D01*
X140803869Y-64556082D01*
X140556949Y-64802571D01*
X140423153Y-65124789D01*
X140422849Y-65473681D01*
X139677000Y-65473681D01*
X139677000Y-65300000D01*
X139598824Y-64906984D01*
X139577154Y-64874552D01*
X139577204Y-64816907D01*
X139398394Y-64384154D01*
X139067588Y-64052770D01*
X138644286Y-63877000D01*
X155123000Y-63877000D01*
X155123000Y-64454106D01*
X154973205Y-64814853D01*
X154972796Y-65283093D01*
X155151606Y-65715846D01*
X155482412Y-66047230D01*
X155845670Y-66198068D01*
X156023000Y-66375398D01*
X156023000Y-75034509D01*
X155741537Y-74752554D01*
X155235284Y-74542339D01*
X154687121Y-74541861D01*
X154180502Y-74751192D01*
X153792554Y-75138463D01*
X153582339Y-75644716D01*
X153581861Y-76192879D01*
X153791192Y-76699498D01*
X154178463Y-77087446D01*
X154684716Y-77297661D01*
X155232879Y-77298139D01*
X155739498Y-77088808D01*
X156023000Y-76805801D01*
X156023000Y-82823194D01*
X155566907Y-82822796D01*
X155134154Y-83001606D01*
X154802770Y-83332412D01*
X154623205Y-83764853D01*
X154622796Y-84233093D01*
X154801606Y-84665846D01*
X155132412Y-84997230D01*
X155564853Y-85176795D01*
X156023000Y-85177195D01*
X156023000Y-94084509D01*
X155741537Y-93802554D01*
X155235284Y-93592339D01*
X154687121Y-93591861D01*
X154180502Y-93801192D01*
X153792554Y-94188463D01*
X153582339Y-94694716D01*
X153581861Y-95242879D01*
X153791192Y-95749498D01*
X154178463Y-96137446D01*
X154684716Y-96347661D01*
X155232879Y-96348139D01*
X155739498Y-96138808D01*
X156023000Y-95855801D01*
X156023000Y-102063494D01*
X155685147Y-101923205D01*
X155216907Y-101922796D01*
X154784154Y-102101606D01*
X154452770Y-102432412D01*
X154273205Y-102864853D01*
X154272796Y-103333093D01*
X154451606Y-103765846D01*
X154782412Y-104097230D01*
X155214853Y-104276795D01*
X155683093Y-104277204D01*
X156023000Y-104136757D01*
X156023000Y-113134509D01*
X155741537Y-112852554D01*
X155235284Y-112642339D01*
X154687121Y-112641861D01*
X154180502Y-112851192D01*
X153792554Y-113238463D01*
X153582339Y-113744716D01*
X153581861Y-114292879D01*
X153791192Y-114799498D01*
X154178463Y-115187446D01*
X154684716Y-115397661D01*
X155232879Y-115398139D01*
X155739498Y-115188808D01*
X156023000Y-114905801D01*
X156023000Y-121162741D01*
X155702770Y-121482412D01*
X155523205Y-121914853D01*
X155522796Y-122383093D01*
X155673000Y-122746614D01*
X155673000Y-127450000D01*
X155751176Y-127843016D01*
X155973801Y-128176199D01*
X157023799Y-129226196D01*
X157023801Y-129226199D01*
X157356984Y-129448824D01*
X157750000Y-129527000D01*
X173800000Y-129527000D01*
X174193016Y-129448824D01*
X174526199Y-129226199D01*
X174526200Y-129226198D01*
X178606196Y-125146201D01*
X178606199Y-125146199D01*
X178828824Y-124813016D01*
X178907000Y-124420000D01*
X178907000Y-121498678D01*
X179150000Y-121135003D01*
X179409454Y-121523303D01*
X179860597Y-121824747D01*
X180392757Y-121930600D01*
X180447243Y-121930600D01*
X180979403Y-121824747D01*
X181430546Y-121523303D01*
X181690000Y-121135003D01*
X181949454Y-121523303D01*
X182400597Y-121824747D01*
X182932757Y-121930600D01*
X182987243Y-121930600D01*
X183519403Y-121824747D01*
X183970546Y-121523303D01*
X184271990Y-121072160D01*
X184331730Y-120771824D01*
X184552571Y-120993051D01*
X184673000Y-121043057D01*
X184673000Y-126834330D01*
X184573153Y-127074789D01*
X184572849Y-127423681D01*
X184706082Y-127746131D01*
X184952571Y-127993051D01*
X185274789Y-128126847D01*
X185623681Y-128127151D01*
X185946131Y-127993918D01*
X186193051Y-127747429D01*
X186326847Y-127425211D01*
X186327151Y-127076319D01*
X186227000Y-126833934D01*
X186227000Y-120650000D01*
X186167854Y-120352655D01*
X185999422Y-120100578D01*
X185893344Y-119994500D01*
X185793918Y-119753869D01*
X185547429Y-119506949D01*
X185225211Y-119373153D01*
X184876319Y-119372849D01*
X184553869Y-119506082D01*
X184306949Y-119752571D01*
X184228179Y-119942272D01*
X183970546Y-119556697D01*
X183541473Y-119270000D01*
X183970546Y-118983303D01*
X184271990Y-118532160D01*
X184377843Y-118000000D01*
X184271990Y-117467840D01*
X183970546Y-117016697D01*
X183737000Y-116860647D01*
X183737000Y-115561844D01*
X184955500Y-114343344D01*
X185196131Y-114243918D01*
X185443051Y-113997429D01*
X185576847Y-113675211D01*
X185577151Y-113326319D01*
X185443918Y-113003869D01*
X185197429Y-112756949D01*
X184875211Y-112623153D01*
X184526319Y-112622849D01*
X184203869Y-112756082D01*
X183956949Y-113002571D01*
X183856375Y-113244781D01*
X182410578Y-114690578D01*
X182242146Y-114942655D01*
X182183000Y-115240000D01*
X182183000Y-116860647D01*
X181949454Y-117016697D01*
X181690000Y-117404998D01*
X181430546Y-117016697D01*
X181197000Y-116860647D01*
X181197000Y-113051844D01*
X182555500Y-111693344D01*
X182796131Y-111593918D01*
X183043051Y-111347429D01*
X183176847Y-111025211D01*
X183177151Y-110676319D01*
X183043918Y-110353869D01*
X182797429Y-110106949D01*
X182475211Y-109973153D01*
X182126319Y-109972849D01*
X181803869Y-110106082D01*
X181556949Y-110352571D01*
X181456375Y-110594781D01*
X179870578Y-112180578D01*
X179702146Y-112432655D01*
X179643000Y-112730000D01*
X179643000Y-116860647D01*
X179409454Y-117016697D01*
X179150000Y-117404998D01*
X178890546Y-117016697D01*
X178657000Y-116860647D01*
X178657000Y-112291844D01*
X181855500Y-109093344D01*
X182096131Y-108993918D01*
X182343051Y-108747429D01*
X182476847Y-108425211D01*
X182477151Y-108076319D01*
X182343918Y-107753869D01*
X182097429Y-107506949D01*
X181775211Y-107373153D01*
X181426319Y-107372849D01*
X181103869Y-107506082D01*
X180856949Y-107752571D01*
X180756375Y-107994781D01*
X177330578Y-111420578D01*
X177162146Y-111672655D01*
X177103000Y-111970000D01*
X177103000Y-116860647D01*
X176869454Y-117016697D01*
X176610000Y-117404998D01*
X176350546Y-117016697D01*
X176117000Y-116860647D01*
X176117000Y-111831844D01*
X182105500Y-105843344D01*
X182346131Y-105743918D01*
X182593051Y-105497429D01*
X182726847Y-105175211D01*
X182727151Y-104826319D01*
X182593918Y-104503869D01*
X182347429Y-104256949D01*
X182025211Y-104123153D01*
X181676319Y-104122849D01*
X181436720Y-104221849D01*
X181476847Y-104125211D01*
X181477151Y-103776319D01*
X181343918Y-103453869D01*
X181097429Y-103206949D01*
X180775211Y-103073153D01*
X180426319Y-103072849D01*
X180183934Y-103173000D01*
X177550000Y-103173000D01*
X177252655Y-103232146D01*
X177000578Y-103400578D01*
X164630578Y-115770578D01*
X164462146Y-116022655D01*
X164403000Y-116320000D01*
X164403000Y-116860647D01*
X164169454Y-117016697D01*
X164031607Y-117223000D01*
X163421844Y-117223000D01*
X159243344Y-113044500D01*
X159143918Y-112803869D01*
X158897429Y-112556949D01*
X158575211Y-112423153D01*
X158226319Y-112422849D01*
X158077000Y-112484546D01*
X158077000Y-103473681D01*
X159422849Y-103473681D01*
X159523000Y-103716066D01*
X159523000Y-108184330D01*
X159423153Y-108424789D01*
X159422849Y-108773681D01*
X159556082Y-109096131D01*
X159802571Y-109343051D01*
X160124789Y-109476847D01*
X160473681Y-109477151D01*
X160796131Y-109343918D01*
X161043051Y-109097429D01*
X161176847Y-108775211D01*
X161177151Y-108426319D01*
X161077000Y-108183934D01*
X161077000Y-103715670D01*
X161176847Y-103475211D01*
X161177151Y-103126319D01*
X161043918Y-102803869D01*
X160797429Y-102556949D01*
X160475211Y-102423153D01*
X160126319Y-102422849D01*
X159803869Y-102556082D01*
X159556949Y-102802571D01*
X159423153Y-103124789D01*
X159422849Y-103473681D01*
X158077000Y-103473681D01*
X158077000Y-95242879D01*
X162471861Y-95242879D01*
X162681192Y-95749498D01*
X163068463Y-96137446D01*
X163574716Y-96347661D01*
X164122879Y-96348139D01*
X164629498Y-96138808D01*
X165017446Y-95751537D01*
X165134667Y-95469238D01*
X166408664Y-95469238D01*
X166791639Y-96396109D01*
X167500161Y-97105869D01*
X168426362Y-97490461D01*
X169429238Y-97491336D01*
X170356109Y-97108361D01*
X171065869Y-96399839D01*
X171450461Y-95473638D01*
X171450662Y-95242879D01*
X172631861Y-95242879D01*
X172841192Y-95749498D01*
X173228463Y-96137446D01*
X173734716Y-96347661D01*
X174282879Y-96348139D01*
X174789498Y-96138808D01*
X175177446Y-95751537D01*
X175387661Y-95245284D01*
X175388139Y-94697121D01*
X175178808Y-94190502D01*
X174791537Y-93802554D01*
X174285284Y-93592339D01*
X173737121Y-93591861D01*
X173230502Y-93801192D01*
X172842554Y-94188463D01*
X172632339Y-94694716D01*
X172631861Y-95242879D01*
X171450662Y-95242879D01*
X171451336Y-94470762D01*
X171068361Y-93543891D01*
X170359839Y-92834131D01*
X169433638Y-92449539D01*
X168430762Y-92448664D01*
X167503891Y-92831639D01*
X166794131Y-93540161D01*
X166409539Y-94466362D01*
X166408664Y-95469238D01*
X165134667Y-95469238D01*
X165227661Y-95245284D01*
X165228139Y-94697121D01*
X165018808Y-94190502D01*
X164928297Y-94099833D01*
X165450726Y-94100289D01*
X166064743Y-93846582D01*
X166534931Y-93377214D01*
X166789709Y-92763641D01*
X166790289Y-92099274D01*
X166536582Y-91485257D01*
X166067214Y-91015069D01*
X165453641Y-90760291D01*
X164789274Y-90759711D01*
X164175257Y-91013418D01*
X163705069Y-91482786D01*
X163450291Y-92096359D01*
X163449711Y-92760726D01*
X163703418Y-93374743D01*
X163920456Y-93592160D01*
X163577121Y-93591861D01*
X163070502Y-93801192D01*
X162682554Y-94188463D01*
X162472339Y-94694716D01*
X162471861Y-95242879D01*
X158077000Y-95242879D01*
X158077000Y-84573681D01*
X159422849Y-84573681D01*
X159523000Y-84816066D01*
X159523000Y-90384330D01*
X159423153Y-90624789D01*
X159422849Y-90973681D01*
X159556082Y-91296131D01*
X159802571Y-91543051D01*
X160124789Y-91676847D01*
X160473681Y-91677151D01*
X160796131Y-91543918D01*
X161043051Y-91297429D01*
X161176847Y-90975211D01*
X161177151Y-90626319D01*
X161077000Y-90383934D01*
X161077000Y-90220726D01*
X169799711Y-90220726D01*
X170053418Y-90834743D01*
X170522786Y-91304931D01*
X171136359Y-91559709D01*
X171800726Y-91560289D01*
X172414743Y-91306582D01*
X172884931Y-90837214D01*
X173139709Y-90223641D01*
X173140289Y-89559274D01*
X172886582Y-88945257D01*
X172417214Y-88475069D01*
X171803641Y-88220291D01*
X171139274Y-88219711D01*
X170525257Y-88473418D01*
X170055069Y-88942786D01*
X169800291Y-89556359D01*
X169799711Y-90220726D01*
X161077000Y-90220726D01*
X161077000Y-84815670D01*
X161176847Y-84575211D01*
X161177151Y-84226319D01*
X161043918Y-83903869D01*
X160797429Y-83656949D01*
X160475211Y-83523153D01*
X160126319Y-83522849D01*
X159803869Y-83656082D01*
X159556949Y-83902571D01*
X159423153Y-84224789D01*
X159422849Y-84573681D01*
X158077000Y-84573681D01*
X158077000Y-76192879D01*
X162471861Y-76192879D01*
X162681192Y-76699498D01*
X163068463Y-77087446D01*
X163574716Y-77297661D01*
X164122879Y-77298139D01*
X164629498Y-77088808D01*
X165017446Y-76701537D01*
X165134667Y-76419238D01*
X166408664Y-76419238D01*
X166791639Y-77346109D01*
X167500161Y-78055869D01*
X168426362Y-78440461D01*
X169429238Y-78441336D01*
X170356109Y-78058361D01*
X171065869Y-77349839D01*
X171450461Y-76423638D01*
X171450662Y-76192879D01*
X172631861Y-76192879D01*
X172841192Y-76699498D01*
X173228463Y-77087446D01*
X173734716Y-77297661D01*
X174282879Y-77298139D01*
X174789498Y-77088808D01*
X175177446Y-76701537D01*
X175387661Y-76195284D01*
X175388139Y-75647121D01*
X175178808Y-75140502D01*
X174791537Y-74752554D01*
X174285284Y-74542339D01*
X173737121Y-74541861D01*
X173230502Y-74751192D01*
X172842554Y-75138463D01*
X172632339Y-75644716D01*
X172631861Y-76192879D01*
X171450662Y-76192879D01*
X171451336Y-75420762D01*
X171068361Y-74493891D01*
X170359839Y-73784131D01*
X169433638Y-73399539D01*
X168430762Y-73398664D01*
X167503891Y-73781639D01*
X166794131Y-74490161D01*
X166409539Y-75416362D01*
X166408664Y-76419238D01*
X165134667Y-76419238D01*
X165227661Y-76195284D01*
X165228139Y-75647121D01*
X165018808Y-75140502D01*
X164928297Y-75049833D01*
X165450726Y-75050289D01*
X166064743Y-74796582D01*
X166534931Y-74327214D01*
X166789709Y-73713641D01*
X166790289Y-73049274D01*
X166536582Y-72435257D01*
X166067214Y-71965069D01*
X165453641Y-71710291D01*
X164789274Y-71709711D01*
X164175257Y-71963418D01*
X163705069Y-72432786D01*
X163450291Y-73046359D01*
X163449711Y-73710726D01*
X163703418Y-74324743D01*
X163920456Y-74542160D01*
X163577121Y-74541861D01*
X163070502Y-74751192D01*
X162682554Y-75138463D01*
X162472339Y-75644716D01*
X162471861Y-76192879D01*
X158077000Y-76192879D01*
X158077000Y-65950000D01*
X157998824Y-65556984D01*
X157943163Y-65473681D01*
X159422849Y-65473681D01*
X159523000Y-65716066D01*
X159523000Y-71384330D01*
X159423153Y-71624789D01*
X159422849Y-71973681D01*
X159556082Y-72296131D01*
X159802571Y-72543051D01*
X160124789Y-72676847D01*
X160473681Y-72677151D01*
X160796131Y-72543918D01*
X161043051Y-72297429D01*
X161176847Y-71975211D01*
X161177151Y-71626319D01*
X161077000Y-71383934D01*
X161077000Y-71170726D01*
X169799711Y-71170726D01*
X170053418Y-71784743D01*
X170522786Y-72254931D01*
X171136359Y-72509709D01*
X171800726Y-72510289D01*
X172414743Y-72256582D01*
X172884931Y-71787214D01*
X173139709Y-71173641D01*
X173140289Y-70509274D01*
X172886582Y-69895257D01*
X172417214Y-69425069D01*
X171803641Y-69170291D01*
X171139274Y-69169711D01*
X170525257Y-69423418D01*
X170055069Y-69892786D01*
X169800291Y-70506359D01*
X169799711Y-71170726D01*
X161077000Y-71170726D01*
X161077000Y-65715670D01*
X161176847Y-65475211D01*
X161177151Y-65126319D01*
X161043918Y-64803869D01*
X160797429Y-64556949D01*
X160475211Y-64423153D01*
X160126319Y-64422849D01*
X159803869Y-64556082D01*
X159556949Y-64802571D01*
X159423153Y-65124789D01*
X159422849Y-65473681D01*
X157943163Y-65473681D01*
X157877295Y-65375103D01*
X159425397Y-63827000D01*
X171554106Y-63827000D01*
X171914853Y-63976795D01*
X172383093Y-63977204D01*
X172746614Y-63827000D01*
X174474602Y-63827000D01*
X176073000Y-65425398D01*
X176073000Y-75874603D01*
X172995161Y-78952441D01*
X172634154Y-79101606D01*
X172302770Y-79432412D01*
X172123205Y-79864853D01*
X172122796Y-80333093D01*
X172301606Y-80765846D01*
X172632412Y-81097230D01*
X173064853Y-81276795D01*
X173533093Y-81277204D01*
X173774895Y-81177293D01*
X176073000Y-83475398D01*
X176073000Y-95274603D01*
X172573801Y-98773801D01*
X172397114Y-99038232D01*
X172302770Y-99132412D01*
X172123205Y-99564853D01*
X172122796Y-100033093D01*
X172301606Y-100465846D01*
X172632412Y-100797230D01*
X173064853Y-100976795D01*
X173533093Y-100977204D01*
X173965846Y-100798394D01*
X174297230Y-100467588D01*
X174476795Y-100035147D01*
X174477022Y-99775376D01*
X177826196Y-96426201D01*
X177826199Y-96426199D01*
X178048824Y-96093016D01*
X178116749Y-95751537D01*
X178127001Y-95700000D01*
X178127000Y-95699995D01*
X178127000Y-88885750D01*
X183549000Y-88885750D01*
X183549000Y-89742309D01*
X183645673Y-89975698D01*
X183824301Y-90154327D01*
X184057690Y-90251000D01*
X184914250Y-90251000D01*
X185073000Y-90092250D01*
X185073000Y-88727000D01*
X183707750Y-88727000D01*
X183549000Y-88885750D01*
X178127000Y-88885750D01*
X178127000Y-87457691D01*
X183549000Y-87457691D01*
X183549000Y-88314250D01*
X183707750Y-88473000D01*
X185073000Y-88473000D01*
X185073000Y-87107750D01*
X185327000Y-87107750D01*
X185327000Y-88473000D01*
X185347000Y-88473000D01*
X185347000Y-88727000D01*
X185327000Y-88727000D01*
X185327000Y-90092250D01*
X185485750Y-90251000D01*
X186342310Y-90251000D01*
X186575699Y-90154327D01*
X186754327Y-89975698D01*
X186814015Y-89831599D01*
X187149519Y-90055775D01*
X187740000Y-90173229D01*
X188330481Y-90055775D01*
X188831066Y-89721295D01*
X189165546Y-89220710D01*
X189283000Y-88630229D01*
X189283000Y-88569771D01*
X189165546Y-87979290D01*
X188831066Y-87478705D01*
X188330481Y-87144225D01*
X187740000Y-87026771D01*
X187149519Y-87144225D01*
X186814015Y-87368401D01*
X186754327Y-87224302D01*
X186575699Y-87045673D01*
X186342310Y-86949000D01*
X185485750Y-86949000D01*
X185327000Y-87107750D01*
X185073000Y-87107750D01*
X184914250Y-86949000D01*
X184057690Y-86949000D01*
X183824301Y-87045673D01*
X183645673Y-87224302D01*
X183549000Y-87457691D01*
X178127000Y-87457691D01*
X178127000Y-83050000D01*
X178048824Y-82656984D01*
X177826199Y-82323801D01*
X175177398Y-79675000D01*
X177369451Y-77482946D01*
X183554017Y-77482946D01*
X183822812Y-78068379D01*
X184295182Y-78506385D01*
X184777056Y-78705975D01*
X185033000Y-78586836D01*
X185033000Y-77227000D01*
X183672633Y-77227000D01*
X183554017Y-77482946D01*
X177369451Y-77482946D01*
X177826196Y-77026201D01*
X177826199Y-77026199D01*
X178032762Y-76717054D01*
X183554017Y-76717054D01*
X183672633Y-76973000D01*
X185033000Y-76973000D01*
X185033000Y-75613164D01*
X185287000Y-75613164D01*
X185287000Y-76973000D01*
X185307000Y-76973000D01*
X185307000Y-77227000D01*
X185287000Y-77227000D01*
X185287000Y-78586836D01*
X185542944Y-78705975D01*
X186024818Y-78506385D01*
X186202777Y-78341372D01*
X186298842Y-78490660D01*
X186474951Y-78610990D01*
X186684000Y-78653324D01*
X188716000Y-78653324D01*
X188911294Y-78616577D01*
X189090660Y-78501158D01*
X189210990Y-78325049D01*
X189253324Y-78116000D01*
X189253324Y-76084000D01*
X189216577Y-75888706D01*
X189101158Y-75709340D01*
X188925049Y-75589010D01*
X188716000Y-75546676D01*
X186684000Y-75546676D01*
X186488706Y-75583423D01*
X186309340Y-75698842D01*
X186201177Y-75857144D01*
X186024818Y-75693615D01*
X185542944Y-75494025D01*
X185287000Y-75613164D01*
X185033000Y-75613164D01*
X184777056Y-75494025D01*
X184295182Y-75693615D01*
X183822812Y-76131621D01*
X183554017Y-76717054D01*
X178032762Y-76717054D01*
X178048824Y-76693016D01*
X178102407Y-76423638D01*
X178127001Y-76300000D01*
X178127000Y-76299995D01*
X178127000Y-65000005D01*
X178127001Y-65000000D01*
X178048824Y-64606985D01*
X178048824Y-64606984D01*
X177826199Y-64273801D01*
X175626199Y-62073801D01*
X175293016Y-61851176D01*
X174900000Y-61773000D01*
X172745894Y-61773000D01*
X172385147Y-61623205D01*
X171916907Y-61622796D01*
X171553386Y-61773000D01*
X159000005Y-61773000D01*
X159000000Y-61772999D01*
X158606985Y-61851175D01*
X158606983Y-61851176D01*
X158606984Y-61851176D01*
X158273801Y-62073801D01*
X158273799Y-62073804D01*
X157163827Y-63183775D01*
X157098824Y-62856984D01*
X156876199Y-62523801D01*
X156876196Y-62523799D01*
X156476199Y-62123801D01*
X156143016Y-61901176D01*
X155750000Y-61823000D01*
X136795894Y-61823000D01*
X136435147Y-61673205D01*
X135966907Y-61672796D01*
X135534154Y-61851606D01*
X135202770Y-62182412D01*
X135023205Y-62614853D01*
X135022796Y-63083093D01*
X116302000Y-63083093D01*
X116302000Y-57142879D01*
X124371861Y-57142879D01*
X124581192Y-57649498D01*
X124968463Y-58037446D01*
X125474716Y-58247661D01*
X126022879Y-58248139D01*
X126529498Y-58038808D01*
X126917446Y-57651537D01*
X127034667Y-57369238D01*
X128308664Y-57369238D01*
X128691639Y-58296109D01*
X129400161Y-59005869D01*
X130326362Y-59390461D01*
X131329238Y-59391336D01*
X132256109Y-59008361D01*
X132965869Y-58299839D01*
X133350461Y-57373638D01*
X133350662Y-57142879D01*
X134531861Y-57142879D01*
X134741192Y-57649498D01*
X135128463Y-58037446D01*
X135634716Y-58247661D01*
X136182879Y-58248139D01*
X136689498Y-58038808D01*
X137077446Y-57651537D01*
X137287661Y-57145284D01*
X137287663Y-57142879D01*
X143421861Y-57142879D01*
X143631192Y-57649498D01*
X144018463Y-58037446D01*
X144524716Y-58247661D01*
X145072879Y-58248139D01*
X145579498Y-58038808D01*
X145967446Y-57651537D01*
X146084667Y-57369238D01*
X147358664Y-57369238D01*
X147741639Y-58296109D01*
X148450161Y-59005869D01*
X149376362Y-59390461D01*
X150379238Y-59391336D01*
X151306109Y-59008361D01*
X152015869Y-58299839D01*
X152400461Y-57373638D01*
X152400662Y-57142879D01*
X153581861Y-57142879D01*
X153791192Y-57649498D01*
X154178463Y-58037446D01*
X154684716Y-58247661D01*
X155232879Y-58248139D01*
X155739498Y-58038808D01*
X156127446Y-57651537D01*
X156337661Y-57145284D01*
X156337663Y-57142879D01*
X162471861Y-57142879D01*
X162681192Y-57649498D01*
X163068463Y-58037446D01*
X163574716Y-58247661D01*
X164122879Y-58248139D01*
X164629498Y-58038808D01*
X165017446Y-57651537D01*
X165134667Y-57369238D01*
X166408664Y-57369238D01*
X166791639Y-58296109D01*
X167500161Y-59005869D01*
X168426362Y-59390461D01*
X169429238Y-59391336D01*
X170356109Y-59008361D01*
X171065869Y-58299839D01*
X171450461Y-57373638D01*
X171450662Y-57142879D01*
X172631861Y-57142879D01*
X172841192Y-57649498D01*
X173228463Y-58037446D01*
X173734716Y-58247661D01*
X174282879Y-58248139D01*
X174789498Y-58038808D01*
X175177446Y-57651537D01*
X175387661Y-57145284D01*
X175388139Y-56597121D01*
X175178808Y-56090502D01*
X174791537Y-55702554D01*
X174285284Y-55492339D01*
X173737121Y-55491861D01*
X173230502Y-55701192D01*
X172842554Y-56088463D01*
X172632339Y-56594716D01*
X172631861Y-57142879D01*
X171450662Y-57142879D01*
X171451336Y-56370762D01*
X171068361Y-55443891D01*
X170359839Y-54734131D01*
X169433638Y-54349539D01*
X168430762Y-54348664D01*
X167503891Y-54731639D01*
X166794131Y-55440161D01*
X166409539Y-56366362D01*
X166408664Y-57369238D01*
X165134667Y-57369238D01*
X165227661Y-57145284D01*
X165228139Y-56597121D01*
X165018808Y-56090502D01*
X164928297Y-55999833D01*
X165450726Y-56000289D01*
X166064743Y-55746582D01*
X166534931Y-55277214D01*
X166789709Y-54663641D01*
X166790289Y-53999274D01*
X166536582Y-53385257D01*
X166067214Y-52915069D01*
X165453641Y-52660291D01*
X164789274Y-52659711D01*
X164175257Y-52913418D01*
X163705069Y-53382786D01*
X163450291Y-53996359D01*
X163449711Y-54660726D01*
X163703418Y-55274743D01*
X163920456Y-55492160D01*
X163577121Y-55491861D01*
X163070502Y-55701192D01*
X162682554Y-56088463D01*
X162472339Y-56594716D01*
X162471861Y-57142879D01*
X156337663Y-57142879D01*
X156338139Y-56597121D01*
X156128808Y-56090502D01*
X155741537Y-55702554D01*
X155235284Y-55492339D01*
X154687121Y-55491861D01*
X154180502Y-55701192D01*
X153792554Y-56088463D01*
X153582339Y-56594716D01*
X153581861Y-57142879D01*
X152400662Y-57142879D01*
X152401336Y-56370762D01*
X152018361Y-55443891D01*
X151309839Y-54734131D01*
X150383638Y-54349539D01*
X149380762Y-54348664D01*
X148453891Y-54731639D01*
X147744131Y-55440161D01*
X147359539Y-56366362D01*
X147358664Y-57369238D01*
X146084667Y-57369238D01*
X146177661Y-57145284D01*
X146178139Y-56597121D01*
X145968808Y-56090502D01*
X145878297Y-55999833D01*
X146400726Y-56000289D01*
X147014743Y-55746582D01*
X147484931Y-55277214D01*
X147739709Y-54663641D01*
X147740289Y-53999274D01*
X147486582Y-53385257D01*
X147017214Y-52915069D01*
X146403641Y-52660291D01*
X145739274Y-52659711D01*
X145125257Y-52913418D01*
X144655069Y-53382786D01*
X144400291Y-53996359D01*
X144399711Y-54660726D01*
X144653418Y-55274743D01*
X144870456Y-55492160D01*
X144527121Y-55491861D01*
X144020502Y-55701192D01*
X143632554Y-56088463D01*
X143422339Y-56594716D01*
X143421861Y-57142879D01*
X137287663Y-57142879D01*
X137288139Y-56597121D01*
X137078808Y-56090502D01*
X136691537Y-55702554D01*
X136185284Y-55492339D01*
X135637121Y-55491861D01*
X135130502Y-55701192D01*
X134742554Y-56088463D01*
X134532339Y-56594716D01*
X134531861Y-57142879D01*
X133350662Y-57142879D01*
X133351336Y-56370762D01*
X132968361Y-55443891D01*
X132259839Y-54734131D01*
X131333638Y-54349539D01*
X130330762Y-54348664D01*
X129403891Y-54731639D01*
X128694131Y-55440161D01*
X128309539Y-56366362D01*
X128308664Y-57369238D01*
X127034667Y-57369238D01*
X127127661Y-57145284D01*
X127128139Y-56597121D01*
X126918808Y-56090502D01*
X126828297Y-55999833D01*
X127350726Y-56000289D01*
X127964743Y-55746582D01*
X128434931Y-55277214D01*
X128689709Y-54663641D01*
X128690289Y-53999274D01*
X128436582Y-53385257D01*
X127967214Y-52915069D01*
X127353641Y-52660291D01*
X126689274Y-52659711D01*
X126075257Y-52913418D01*
X125605069Y-53382786D01*
X125350291Y-53996359D01*
X125349711Y-54660726D01*
X125603418Y-55274743D01*
X125820456Y-55492160D01*
X125477121Y-55491861D01*
X124970502Y-55701192D01*
X124582554Y-56088463D01*
X124372339Y-56594716D01*
X124371861Y-57142879D01*
X116302000Y-57142879D01*
X116302000Y-50606783D01*
X117140557Y-50606783D01*
X117529320Y-51547663D01*
X118248550Y-52268150D01*
X119188750Y-52658555D01*
X120206783Y-52659443D01*
X121147663Y-52270680D01*
X121297879Y-52120726D01*
X131699711Y-52120726D01*
X131953418Y-52734743D01*
X132422786Y-53204931D01*
X133036359Y-53459709D01*
X133700726Y-53460289D01*
X134314743Y-53206582D01*
X134784931Y-52737214D01*
X135039709Y-52123641D01*
X135039711Y-52120726D01*
X150749711Y-52120726D01*
X151003418Y-52734743D01*
X151472786Y-53204931D01*
X152086359Y-53459709D01*
X152750726Y-53460289D01*
X153364743Y-53206582D01*
X153834931Y-52737214D01*
X154089709Y-52123641D01*
X154089711Y-52120726D01*
X169799711Y-52120726D01*
X170053418Y-52734743D01*
X170522786Y-53204931D01*
X171136359Y-53459709D01*
X171800726Y-53460289D01*
X172414743Y-53206582D01*
X172884931Y-52737214D01*
X173139709Y-52123641D01*
X173140289Y-51459274D01*
X172886582Y-50845257D01*
X172648524Y-50606783D01*
X187390557Y-50606783D01*
X187779320Y-51547663D01*
X188498550Y-52268150D01*
X189438750Y-52658555D01*
X190456783Y-52659443D01*
X191397663Y-52270680D01*
X192118150Y-51551450D01*
X192508555Y-50611250D01*
X192509443Y-49593217D01*
X192120680Y-48652337D01*
X191401450Y-47931850D01*
X190461250Y-47541445D01*
X189443217Y-47540557D01*
X188502337Y-47929320D01*
X187781850Y-48648550D01*
X187391445Y-49588750D01*
X187390557Y-50606783D01*
X172648524Y-50606783D01*
X172417214Y-50375069D01*
X171803641Y-50120291D01*
X171139274Y-50119711D01*
X170525257Y-50373418D01*
X170055069Y-50842786D01*
X169800291Y-51456359D01*
X169799711Y-52120726D01*
X154089711Y-52120726D01*
X154090289Y-51459274D01*
X153836582Y-50845257D01*
X153367214Y-50375069D01*
X152753641Y-50120291D01*
X152089274Y-50119711D01*
X151475257Y-50373418D01*
X151005069Y-50842786D01*
X150750291Y-51456359D01*
X150749711Y-52120726D01*
X135039711Y-52120726D01*
X135040289Y-51459274D01*
X134786582Y-50845257D01*
X134317214Y-50375069D01*
X133703641Y-50120291D01*
X133039274Y-50119711D01*
X132425257Y-50373418D01*
X131955069Y-50842786D01*
X131700291Y-51456359D01*
X131699711Y-52120726D01*
X121297879Y-52120726D01*
X121868150Y-51551450D01*
X122258555Y-50611250D01*
X122259443Y-49593217D01*
X121870680Y-48652337D01*
X121151450Y-47931850D01*
X120211250Y-47541445D01*
X119193217Y-47540557D01*
X118252337Y-47929320D01*
X117531850Y-48648550D01*
X117141445Y-49588750D01*
X117140557Y-50606783D01*
X116302000Y-50606783D01*
X116302000Y-46702000D01*
X193098000Y-46702000D01*
X193098000Y-136248000D01*
X193098000Y-136248000D01*
G37*
X193098000Y-136248000D02*
X116302000Y-136248000D01*
X116302000Y-132856783D01*
X117890557Y-132856783D01*
X118279320Y-133797663D01*
X118998550Y-134518150D01*
X119938750Y-134908555D01*
X120956783Y-134909443D01*
X121897663Y-134520680D01*
X122618150Y-133801450D01*
X123008555Y-132861250D01*
X123008558Y-132856783D01*
X187390557Y-132856783D01*
X187779320Y-133797663D01*
X188498550Y-134518150D01*
X189438750Y-134908555D01*
X190456783Y-134909443D01*
X191397663Y-134520680D01*
X192118150Y-133801450D01*
X192508555Y-132861250D01*
X192509443Y-131843217D01*
X192120680Y-130902337D01*
X191401450Y-130181850D01*
X190461250Y-129791445D01*
X189443217Y-129790557D01*
X188502337Y-130179320D01*
X187781850Y-130898550D01*
X187391445Y-131838750D01*
X187390557Y-132856783D01*
X123008558Y-132856783D01*
X123009443Y-131843217D01*
X122620680Y-130902337D01*
X121901450Y-130181850D01*
X120961250Y-129791445D01*
X119943217Y-129790557D01*
X119002337Y-130179320D01*
X118281850Y-130898550D01*
X117891445Y-131838750D01*
X117890557Y-132856783D01*
X116302000Y-132856783D01*
X116302000Y-114292879D01*
X143421861Y-114292879D01*
X143631192Y-114799498D01*
X144018463Y-115187446D01*
X144524716Y-115397661D01*
X145072879Y-115398139D01*
X145579498Y-115188808D01*
X145967446Y-114801537D01*
X146084667Y-114519238D01*
X147358664Y-114519238D01*
X147741639Y-115446109D01*
X148450161Y-116155869D01*
X149376362Y-116540461D01*
X150379238Y-116541336D01*
X151306109Y-116158361D01*
X152015869Y-115449839D01*
X152400461Y-114523638D01*
X152401336Y-113520762D01*
X152018361Y-112593891D01*
X151309839Y-111884131D01*
X150383638Y-111499539D01*
X149380762Y-111498664D01*
X148453891Y-111881639D01*
X147744131Y-112590161D01*
X147359539Y-113516362D01*
X147358664Y-114519238D01*
X146084667Y-114519238D01*
X146177661Y-114295284D01*
X146178139Y-113747121D01*
X145968808Y-113240502D01*
X145878297Y-113149833D01*
X146400726Y-113150289D01*
X147014743Y-112896582D01*
X147484931Y-112427214D01*
X147739709Y-111813641D01*
X147740289Y-111149274D01*
X147486582Y-110535257D01*
X147017214Y-110065069D01*
X146403641Y-109810291D01*
X145739274Y-109809711D01*
X145125257Y-110063418D01*
X144655069Y-110532786D01*
X144400291Y-111146359D01*
X144399711Y-111810726D01*
X144653418Y-112424743D01*
X144870456Y-112642160D01*
X144527121Y-112641861D01*
X144020502Y-112851192D01*
X143632554Y-113238463D01*
X143422339Y-113744716D01*
X143421861Y-114292879D01*
X116302000Y-114292879D01*
X116302000Y-109270726D01*
X150749711Y-109270726D01*
X151003418Y-109884743D01*
X151472786Y-110354931D01*
X152086359Y-110609709D01*
X152750726Y-110610289D01*
X153364743Y-110356582D01*
X153834931Y-109887214D01*
X154089709Y-109273641D01*
X154090289Y-108609274D01*
X153836582Y-107995257D01*
X153367214Y-107525069D01*
X152753641Y-107270291D01*
X152089274Y-107269711D01*
X151475257Y-107523418D01*
X151005069Y-107992786D01*
X150750291Y-108606359D01*
X150749711Y-109270726D01*
X116302000Y-109270726D01*
X116302000Y-103873681D01*
X140422849Y-103873681D01*
X140523000Y-104116066D01*
X140523000Y-106284330D01*
X140423153Y-106524789D01*
X140422849Y-106873681D01*
X140556082Y-107196131D01*
X140802571Y-107443051D01*
X141124789Y-107576847D01*
X141473681Y-107577151D01*
X141796131Y-107443918D01*
X142043051Y-107197429D01*
X142176847Y-106875211D01*
X142177151Y-106526319D01*
X142077000Y-106283934D01*
X142077000Y-104115670D01*
X142176847Y-103875211D01*
X142177151Y-103526319D01*
X142043918Y-103203869D01*
X141797429Y-102956949D01*
X141475211Y-102823153D01*
X141126319Y-102822849D01*
X140803869Y-102956082D01*
X140556949Y-103202571D01*
X140423153Y-103524789D01*
X140422849Y-103873681D01*
X116302000Y-103873681D01*
X116302000Y-95242879D01*
X124371861Y-95242879D01*
X124581192Y-95749498D01*
X124968463Y-96137446D01*
X125474716Y-96347661D01*
X126022879Y-96348139D01*
X126529498Y-96138808D01*
X126917446Y-95751537D01*
X127034667Y-95469238D01*
X128308664Y-95469238D01*
X128691639Y-96396109D01*
X129400161Y-97105869D01*
X130326362Y-97490461D01*
X131329238Y-97491336D01*
X132256109Y-97108361D01*
X132965869Y-96399839D01*
X133350461Y-95473638D01*
X133350662Y-95242879D01*
X134531861Y-95242879D01*
X134741192Y-95749498D01*
X135128463Y-96137446D01*
X135634716Y-96347661D01*
X136182879Y-96348139D01*
X136689498Y-96138808D01*
X137077446Y-95751537D01*
X137287661Y-95245284D01*
X137288139Y-94697121D01*
X137078808Y-94190502D01*
X136691537Y-93802554D01*
X136185284Y-93592339D01*
X135637121Y-93591861D01*
X135130502Y-93801192D01*
X134742554Y-94188463D01*
X134532339Y-94694716D01*
X134531861Y-95242879D01*
X133350662Y-95242879D01*
X133351336Y-94470762D01*
X132968361Y-93543891D01*
X132259839Y-92834131D01*
X131333638Y-92449539D01*
X130330762Y-92448664D01*
X129403891Y-92831639D01*
X128694131Y-93540161D01*
X128309539Y-94466362D01*
X128308664Y-95469238D01*
X127034667Y-95469238D01*
X127127661Y-95245284D01*
X127128139Y-94697121D01*
X126918808Y-94190502D01*
X126828297Y-94099833D01*
X127350726Y-94100289D01*
X127964743Y-93846582D01*
X128434931Y-93377214D01*
X128689709Y-92763641D01*
X128690289Y-92099274D01*
X128436582Y-91485257D01*
X127967214Y-91015069D01*
X127353641Y-90760291D01*
X126689274Y-90759711D01*
X126075257Y-91013418D01*
X125605069Y-91482786D01*
X125350291Y-92096359D01*
X125349711Y-92760726D01*
X125603418Y-93374743D01*
X125820456Y-93592160D01*
X125477121Y-93591861D01*
X124970502Y-93801192D01*
X124582554Y-94188463D01*
X124372339Y-94694716D01*
X124371861Y-95242879D01*
X116302000Y-95242879D01*
X116302000Y-90220726D01*
X131699711Y-90220726D01*
X131953418Y-90834743D01*
X132422786Y-91304931D01*
X133036359Y-91559709D01*
X133700726Y-91560289D01*
X134314743Y-91306582D01*
X134784931Y-90837214D01*
X135039709Y-90223641D01*
X135040289Y-89559274D01*
X134786582Y-88945257D01*
X134317214Y-88475069D01*
X133703641Y-88220291D01*
X133039274Y-88219711D01*
X132425257Y-88473418D01*
X131955069Y-88942786D01*
X131700291Y-89556359D01*
X131699711Y-90220726D01*
X116302000Y-90220726D01*
X116302000Y-76192879D01*
X124371861Y-76192879D01*
X124581192Y-76699498D01*
X124968463Y-77087446D01*
X125474716Y-77297661D01*
X126022879Y-77298139D01*
X126529498Y-77088808D01*
X126917446Y-76701537D01*
X127034667Y-76419238D01*
X128308664Y-76419238D01*
X128691639Y-77346109D01*
X129400161Y-78055869D01*
X130326362Y-78440461D01*
X131329238Y-78441336D01*
X132256109Y-78058361D01*
X132965869Y-77349839D01*
X133350461Y-76423638D01*
X133350662Y-76192879D01*
X134531861Y-76192879D01*
X134741192Y-76699498D01*
X135128463Y-77087446D01*
X135634716Y-77297661D01*
X136182879Y-77298139D01*
X136689498Y-77088808D01*
X137077446Y-76701537D01*
X137287661Y-76195284D01*
X137288139Y-75647121D01*
X137078808Y-75140502D01*
X136691537Y-74752554D01*
X136185284Y-74542339D01*
X135637121Y-74541861D01*
X135130502Y-74751192D01*
X134742554Y-75138463D01*
X134532339Y-75644716D01*
X134531861Y-76192879D01*
X133350662Y-76192879D01*
X133351336Y-75420762D01*
X132968361Y-74493891D01*
X132259839Y-73784131D01*
X131333638Y-73399539D01*
X130330762Y-73398664D01*
X129403891Y-73781639D01*
X128694131Y-74490161D01*
X128309539Y-75416362D01*
X128308664Y-76419238D01*
X127034667Y-76419238D01*
X127127661Y-76195284D01*
X127128139Y-75647121D01*
X126918808Y-75140502D01*
X126828297Y-75049833D01*
X127350726Y-75050289D01*
X127964743Y-74796582D01*
X128434931Y-74327214D01*
X128689709Y-73713641D01*
X128690289Y-73049274D01*
X128436582Y-72435257D01*
X127967214Y-71965069D01*
X127353641Y-71710291D01*
X126689274Y-71709711D01*
X126075257Y-71963418D01*
X125605069Y-72432786D01*
X125350291Y-73046359D01*
X125349711Y-73710726D01*
X125603418Y-74324743D01*
X125820456Y-74542160D01*
X125477121Y-74541861D01*
X124970502Y-74751192D01*
X124582554Y-75138463D01*
X124372339Y-75644716D01*
X124371861Y-76192879D01*
X116302000Y-76192879D01*
X116302000Y-71170726D01*
X131699711Y-71170726D01*
X131953418Y-71784743D01*
X132422786Y-72254931D01*
X133036359Y-72509709D01*
X133700726Y-72510289D01*
X134314743Y-72256582D01*
X134784931Y-71787214D01*
X135039709Y-71173641D01*
X135040289Y-70509274D01*
X134786582Y-69895257D01*
X134317214Y-69425069D01*
X133703641Y-69170291D01*
X133039274Y-69169711D01*
X132425257Y-69423418D01*
X131955069Y-69892786D01*
X131700291Y-70506359D01*
X131699711Y-71170726D01*
X116302000Y-71170726D01*
X116302000Y-63083093D01*
X135022796Y-63083093D01*
X135201606Y-63515846D01*
X135532412Y-63847230D01*
X135964853Y-64026795D01*
X136433093Y-64027204D01*
X136796614Y-63877000D01*
X138156733Y-63877000D01*
X137734154Y-64051606D01*
X137402770Y-64382412D01*
X137223205Y-64814853D01*
X137222796Y-65283093D01*
X137401606Y-65715846D01*
X137623000Y-65937627D01*
X137623000Y-82973000D01*
X137525480Y-82973000D01*
X137285147Y-82873205D01*
X136816907Y-82872796D01*
X136384154Y-83051606D01*
X136052770Y-83382412D01*
X135873205Y-83814853D01*
X135872796Y-84283093D01*
X136051606Y-84715846D01*
X136382412Y-85047230D01*
X136814853Y-85226795D01*
X137283093Y-85227204D01*
X137623000Y-85086757D01*
X137623000Y-101154106D01*
X137473205Y-101514853D01*
X137472796Y-101983093D01*
X137651606Y-102415846D01*
X137982412Y-102747230D01*
X138414853Y-102926795D01*
X138883093Y-102927204D01*
X139315846Y-102748394D01*
X139647230Y-102417588D01*
X139826795Y-101985147D01*
X139827204Y-101516907D01*
X139677000Y-101153386D01*
X139677000Y-95242879D01*
X143421861Y-95242879D01*
X143631192Y-95749498D01*
X144018463Y-96137446D01*
X144524716Y-96347661D01*
X145072879Y-96348139D01*
X145579498Y-96138808D01*
X145967446Y-95751537D01*
X146084667Y-95469238D01*
X147358664Y-95469238D01*
X147741639Y-96396109D01*
X148450161Y-97105869D01*
X149376362Y-97490461D01*
X150379238Y-97491336D01*
X151306109Y-97108361D01*
X152015869Y-96399839D01*
X152400461Y-95473638D01*
X152401336Y-94470762D01*
X152018361Y-93543891D01*
X151309839Y-92834131D01*
X150383638Y-92449539D01*
X149380762Y-92448664D01*
X148453891Y-92831639D01*
X147744131Y-93540161D01*
X147359539Y-94466362D01*
X147358664Y-95469238D01*
X146084667Y-95469238D01*
X146177661Y-95245284D01*
X146178139Y-94697121D01*
X145968808Y-94190502D01*
X145878297Y-94099833D01*
X146400726Y-94100289D01*
X147014743Y-93846582D01*
X147484931Y-93377214D01*
X147739709Y-92763641D01*
X147740289Y-92099274D01*
X147486582Y-91485257D01*
X147017214Y-91015069D01*
X146403641Y-90760291D01*
X145739274Y-90759711D01*
X145125257Y-91013418D01*
X144655069Y-91482786D01*
X144400291Y-92096359D01*
X144399711Y-92760726D01*
X144653418Y-93374743D01*
X144870456Y-93592160D01*
X144527121Y-93591861D01*
X144020502Y-93801192D01*
X143632554Y-94188463D01*
X143422339Y-94694716D01*
X143421861Y-95242879D01*
X139677000Y-95242879D01*
X139677000Y-84573681D01*
X140422849Y-84573681D01*
X140523000Y-84816066D01*
X140523000Y-90384330D01*
X140423153Y-90624789D01*
X140422849Y-90973681D01*
X140556082Y-91296131D01*
X140802571Y-91543051D01*
X141124789Y-91676847D01*
X141473681Y-91677151D01*
X141796131Y-91543918D01*
X142043051Y-91297429D01*
X142176847Y-90975211D01*
X142177151Y-90626319D01*
X142077000Y-90383934D01*
X142077000Y-90220726D01*
X150749711Y-90220726D01*
X151003418Y-90834743D01*
X151472786Y-91304931D01*
X152086359Y-91559709D01*
X152750726Y-91560289D01*
X153364743Y-91306582D01*
X153834931Y-90837214D01*
X154089709Y-90223641D01*
X154090289Y-89559274D01*
X153836582Y-88945257D01*
X153367214Y-88475069D01*
X152753641Y-88220291D01*
X152089274Y-88219711D01*
X151475257Y-88473418D01*
X151005069Y-88942786D01*
X150750291Y-89556359D01*
X150749711Y-90220726D01*
X142077000Y-90220726D01*
X142077000Y-84815670D01*
X142176847Y-84575211D01*
X142177151Y-84226319D01*
X142043918Y-83903869D01*
X141797429Y-83656949D01*
X141475211Y-83523153D01*
X141126319Y-83522849D01*
X140803869Y-83656082D01*
X140556949Y-83902571D01*
X140423153Y-84224789D01*
X140422849Y-84573681D01*
X139677000Y-84573681D01*
X139677000Y-76192879D01*
X143421861Y-76192879D01*
X143631192Y-76699498D01*
X144018463Y-77087446D01*
X144524716Y-77297661D01*
X145072879Y-77298139D01*
X145579498Y-77088808D01*
X145967446Y-76701537D01*
X146084667Y-76419238D01*
X147358664Y-76419238D01*
X147741639Y-77346109D01*
X148450161Y-78055869D01*
X149376362Y-78440461D01*
X150379238Y-78441336D01*
X151306109Y-78058361D01*
X152015869Y-77349839D01*
X152400461Y-76423638D01*
X152401336Y-75420762D01*
X152018361Y-74493891D01*
X151309839Y-73784131D01*
X150383638Y-73399539D01*
X149380762Y-73398664D01*
X148453891Y-73781639D01*
X147744131Y-74490161D01*
X147359539Y-75416362D01*
X147358664Y-76419238D01*
X146084667Y-76419238D01*
X146177661Y-76195284D01*
X146178139Y-75647121D01*
X145968808Y-75140502D01*
X145878297Y-75049833D01*
X146400726Y-75050289D01*
X147014743Y-74796582D01*
X147484931Y-74327214D01*
X147739709Y-73713641D01*
X147740289Y-73049274D01*
X147486582Y-72435257D01*
X147017214Y-71965069D01*
X146403641Y-71710291D01*
X145739274Y-71709711D01*
X145125257Y-71963418D01*
X144655069Y-72432786D01*
X144400291Y-73046359D01*
X144399711Y-73710726D01*
X144653418Y-74324743D01*
X144870456Y-74542160D01*
X144527121Y-74541861D01*
X144020502Y-74751192D01*
X143632554Y-75138463D01*
X143422339Y-75644716D01*
X143421861Y-76192879D01*
X139677000Y-76192879D01*
X139677000Y-65473681D01*
X140422849Y-65473681D01*
X140523000Y-65716066D01*
X140523000Y-71384330D01*
X140423153Y-71624789D01*
X140422849Y-71973681D01*
X140556082Y-72296131D01*
X140802571Y-72543051D01*
X141124789Y-72676847D01*
X141473681Y-72677151D01*
X141796131Y-72543918D01*
X142043051Y-72297429D01*
X142176847Y-71975211D01*
X142177151Y-71626319D01*
X142077000Y-71383934D01*
X142077000Y-71170726D01*
X150749711Y-71170726D01*
X151003418Y-71784743D01*
X151472786Y-72254931D01*
X152086359Y-72509709D01*
X152750726Y-72510289D01*
X153364743Y-72256582D01*
X153834931Y-71787214D01*
X154089709Y-71173641D01*
X154090289Y-70509274D01*
X153836582Y-69895257D01*
X153367214Y-69425069D01*
X152753641Y-69170291D01*
X152089274Y-69169711D01*
X151475257Y-69423418D01*
X151005069Y-69892786D01*
X150750291Y-70506359D01*
X150749711Y-71170726D01*
X142077000Y-71170726D01*
X142077000Y-65715670D01*
X142176847Y-65475211D01*
X142177151Y-65126319D01*
X142043918Y-64803869D01*
X141797429Y-64556949D01*
X141475211Y-64423153D01*
X141126319Y-64422849D01*
X140803869Y-64556082D01*
X140556949Y-64802571D01*
X140423153Y-65124789D01*
X140422849Y-65473681D01*
X139677000Y-65473681D01*
X139677000Y-65300000D01*
X139598824Y-64906984D01*
X139577154Y-64874552D01*
X139577204Y-64816907D01*
X139398394Y-64384154D01*
X139067588Y-64052770D01*
X138644286Y-63877000D01*
X155123000Y-63877000D01*
X155123000Y-64454106D01*
X154973205Y-64814853D01*
X154972796Y-65283093D01*
X155151606Y-65715846D01*
X155482412Y-66047230D01*
X155845670Y-66198068D01*
X156023000Y-66375398D01*
X156023000Y-75034509D01*
X155741537Y-74752554D01*
X155235284Y-74542339D01*
X154687121Y-74541861D01*
X154180502Y-74751192D01*
X153792554Y-75138463D01*
X153582339Y-75644716D01*
X153581861Y-76192879D01*
X153791192Y-76699498D01*
X154178463Y-77087446D01*
X154684716Y-77297661D01*
X155232879Y-77298139D01*
X155739498Y-77088808D01*
X156023000Y-76805801D01*
X156023000Y-82823194D01*
X155566907Y-82822796D01*
X155134154Y-83001606D01*
X154802770Y-83332412D01*
X154623205Y-83764853D01*
X154622796Y-84233093D01*
X154801606Y-84665846D01*
X155132412Y-84997230D01*
X155564853Y-85176795D01*
X156023000Y-85177195D01*
X156023000Y-94084509D01*
X155741537Y-93802554D01*
X155235284Y-93592339D01*
X154687121Y-93591861D01*
X154180502Y-93801192D01*
X153792554Y-94188463D01*
X153582339Y-94694716D01*
X153581861Y-95242879D01*
X153791192Y-95749498D01*
X154178463Y-96137446D01*
X154684716Y-96347661D01*
X155232879Y-96348139D01*
X155739498Y-96138808D01*
X156023000Y-95855801D01*
X156023000Y-102063494D01*
X155685147Y-101923205D01*
X155216907Y-101922796D01*
X154784154Y-102101606D01*
X154452770Y-102432412D01*
X154273205Y-102864853D01*
X154272796Y-103333093D01*
X154451606Y-103765846D01*
X154782412Y-104097230D01*
X155214853Y-104276795D01*
X155683093Y-104277204D01*
X156023000Y-104136757D01*
X156023000Y-113134509D01*
X155741537Y-112852554D01*
X155235284Y-112642339D01*
X154687121Y-112641861D01*
X154180502Y-112851192D01*
X153792554Y-113238463D01*
X153582339Y-113744716D01*
X153581861Y-114292879D01*
X153791192Y-114799498D01*
X154178463Y-115187446D01*
X154684716Y-115397661D01*
X155232879Y-115398139D01*
X155739498Y-115188808D01*
X156023000Y-114905801D01*
X156023000Y-121162741D01*
X155702770Y-121482412D01*
X155523205Y-121914853D01*
X155522796Y-122383093D01*
X155673000Y-122746614D01*
X155673000Y-127450000D01*
X155751176Y-127843016D01*
X155973801Y-128176199D01*
X157023799Y-129226196D01*
X157023801Y-129226199D01*
X157356984Y-129448824D01*
X157750000Y-129527000D01*
X173800000Y-129527000D01*
X174193016Y-129448824D01*
X174526199Y-129226199D01*
X174526200Y-129226198D01*
X178606196Y-125146201D01*
X178606199Y-125146199D01*
X178828824Y-124813016D01*
X178907000Y-124420000D01*
X178907000Y-121498678D01*
X179150000Y-121135003D01*
X179409454Y-121523303D01*
X179860597Y-121824747D01*
X180392757Y-121930600D01*
X180447243Y-121930600D01*
X180979403Y-121824747D01*
X181430546Y-121523303D01*
X181690000Y-121135003D01*
X181949454Y-121523303D01*
X182400597Y-121824747D01*
X182932757Y-121930600D01*
X182987243Y-121930600D01*
X183519403Y-121824747D01*
X183970546Y-121523303D01*
X184271990Y-121072160D01*
X184331730Y-120771824D01*
X184552571Y-120993051D01*
X184673000Y-121043057D01*
X184673000Y-126834330D01*
X184573153Y-127074789D01*
X184572849Y-127423681D01*
X184706082Y-127746131D01*
X184952571Y-127993051D01*
X185274789Y-128126847D01*
X185623681Y-128127151D01*
X185946131Y-127993918D01*
X186193051Y-127747429D01*
X186326847Y-127425211D01*
X186327151Y-127076319D01*
X186227000Y-126833934D01*
X186227000Y-120650000D01*
X186167854Y-120352655D01*
X185999422Y-120100578D01*
X185893344Y-119994500D01*
X185793918Y-119753869D01*
X185547429Y-119506949D01*
X185225211Y-119373153D01*
X184876319Y-119372849D01*
X184553869Y-119506082D01*
X184306949Y-119752571D01*
X184228179Y-119942272D01*
X183970546Y-119556697D01*
X183541473Y-119270000D01*
X183970546Y-118983303D01*
X184271990Y-118532160D01*
X184377843Y-118000000D01*
X184271990Y-117467840D01*
X183970546Y-117016697D01*
X183737000Y-116860647D01*
X183737000Y-115561844D01*
X184955500Y-114343344D01*
X185196131Y-114243918D01*
X185443051Y-113997429D01*
X185576847Y-113675211D01*
X185577151Y-113326319D01*
X185443918Y-113003869D01*
X185197429Y-112756949D01*
X184875211Y-112623153D01*
X184526319Y-112622849D01*
X184203869Y-112756082D01*
X183956949Y-113002571D01*
X183856375Y-113244781D01*
X182410578Y-114690578D01*
X182242146Y-114942655D01*
X182183000Y-115240000D01*
X182183000Y-116860647D01*
X181949454Y-117016697D01*
X181690000Y-117404998D01*
X181430546Y-117016697D01*
X181197000Y-116860647D01*
X181197000Y-113051844D01*
X182555500Y-111693344D01*
X182796131Y-111593918D01*
X183043051Y-111347429D01*
X183176847Y-111025211D01*
X183177151Y-110676319D01*
X183043918Y-110353869D01*
X182797429Y-110106949D01*
X182475211Y-109973153D01*
X182126319Y-109972849D01*
X181803869Y-110106082D01*
X181556949Y-110352571D01*
X181456375Y-110594781D01*
X179870578Y-112180578D01*
X179702146Y-112432655D01*
X179643000Y-112730000D01*
X179643000Y-116860647D01*
X179409454Y-117016697D01*
X179150000Y-117404998D01*
X178890546Y-117016697D01*
X178657000Y-116860647D01*
X178657000Y-112291844D01*
X181855500Y-109093344D01*
X182096131Y-108993918D01*
X182343051Y-108747429D01*
X182476847Y-108425211D01*
X182477151Y-108076319D01*
X182343918Y-107753869D01*
X182097429Y-107506949D01*
X181775211Y-107373153D01*
X181426319Y-107372849D01*
X181103869Y-107506082D01*
X180856949Y-107752571D01*
X180756375Y-107994781D01*
X177330578Y-111420578D01*
X177162146Y-111672655D01*
X177103000Y-111970000D01*
X177103000Y-116860647D01*
X176869454Y-117016697D01*
X176610000Y-117404998D01*
X176350546Y-117016697D01*
X176117000Y-116860647D01*
X176117000Y-111831844D01*
X182105500Y-105843344D01*
X182346131Y-105743918D01*
X182593051Y-105497429D01*
X182726847Y-105175211D01*
X182727151Y-104826319D01*
X182593918Y-104503869D01*
X182347429Y-104256949D01*
X182025211Y-104123153D01*
X181676319Y-104122849D01*
X181436720Y-104221849D01*
X181476847Y-104125211D01*
X181477151Y-103776319D01*
X181343918Y-103453869D01*
X181097429Y-103206949D01*
X180775211Y-103073153D01*
X180426319Y-103072849D01*
X180183934Y-103173000D01*
X177550000Y-103173000D01*
X177252655Y-103232146D01*
X177000578Y-103400578D01*
X164630578Y-115770578D01*
X164462146Y-116022655D01*
X164403000Y-116320000D01*
X164403000Y-116860647D01*
X164169454Y-117016697D01*
X164031607Y-117223000D01*
X163421844Y-117223000D01*
X159243344Y-113044500D01*
X159143918Y-112803869D01*
X158897429Y-112556949D01*
X158575211Y-112423153D01*
X158226319Y-112422849D01*
X158077000Y-112484546D01*
X158077000Y-103473681D01*
X159422849Y-103473681D01*
X159523000Y-103716066D01*
X159523000Y-108184330D01*
X159423153Y-108424789D01*
X159422849Y-108773681D01*
X159556082Y-109096131D01*
X159802571Y-109343051D01*
X160124789Y-109476847D01*
X160473681Y-109477151D01*
X160796131Y-109343918D01*
X161043051Y-109097429D01*
X161176847Y-108775211D01*
X161177151Y-108426319D01*
X161077000Y-108183934D01*
X161077000Y-103715670D01*
X161176847Y-103475211D01*
X161177151Y-103126319D01*
X161043918Y-102803869D01*
X160797429Y-102556949D01*
X160475211Y-102423153D01*
X160126319Y-102422849D01*
X159803869Y-102556082D01*
X159556949Y-102802571D01*
X159423153Y-103124789D01*
X159422849Y-103473681D01*
X158077000Y-103473681D01*
X158077000Y-95242879D01*
X162471861Y-95242879D01*
X162681192Y-95749498D01*
X163068463Y-96137446D01*
X163574716Y-96347661D01*
X164122879Y-96348139D01*
X164629498Y-96138808D01*
X165017446Y-95751537D01*
X165134667Y-95469238D01*
X166408664Y-95469238D01*
X166791639Y-96396109D01*
X167500161Y-97105869D01*
X168426362Y-97490461D01*
X169429238Y-97491336D01*
X170356109Y-97108361D01*
X171065869Y-96399839D01*
X171450461Y-95473638D01*
X171450662Y-95242879D01*
X172631861Y-95242879D01*
X172841192Y-95749498D01*
X173228463Y-96137446D01*
X173734716Y-96347661D01*
X174282879Y-96348139D01*
X174789498Y-96138808D01*
X175177446Y-95751537D01*
X175387661Y-95245284D01*
X175388139Y-94697121D01*
X175178808Y-94190502D01*
X174791537Y-93802554D01*
X174285284Y-93592339D01*
X173737121Y-93591861D01*
X173230502Y-93801192D01*
X172842554Y-94188463D01*
X172632339Y-94694716D01*
X172631861Y-95242879D01*
X171450662Y-95242879D01*
X171451336Y-94470762D01*
X171068361Y-93543891D01*
X170359839Y-92834131D01*
X169433638Y-92449539D01*
X168430762Y-92448664D01*
X167503891Y-92831639D01*
X166794131Y-93540161D01*
X166409539Y-94466362D01*
X166408664Y-95469238D01*
X165134667Y-95469238D01*
X165227661Y-95245284D01*
X165228139Y-94697121D01*
X165018808Y-94190502D01*
X164928297Y-94099833D01*
X165450726Y-94100289D01*
X166064743Y-93846582D01*
X166534931Y-93377214D01*
X166789709Y-92763641D01*
X166790289Y-92099274D01*
X166536582Y-91485257D01*
X166067214Y-91015069D01*
X165453641Y-90760291D01*
X164789274Y-90759711D01*
X164175257Y-91013418D01*
X163705069Y-91482786D01*
X163450291Y-92096359D01*
X163449711Y-92760726D01*
X163703418Y-93374743D01*
X163920456Y-93592160D01*
X163577121Y-93591861D01*
X163070502Y-93801192D01*
X162682554Y-94188463D01*
X162472339Y-94694716D01*
X162471861Y-95242879D01*
X158077000Y-95242879D01*
X158077000Y-84573681D01*
X159422849Y-84573681D01*
X159523000Y-84816066D01*
X159523000Y-90384330D01*
X159423153Y-90624789D01*
X159422849Y-90973681D01*
X159556082Y-91296131D01*
X159802571Y-91543051D01*
X160124789Y-91676847D01*
X160473681Y-91677151D01*
X160796131Y-91543918D01*
X161043051Y-91297429D01*
X161176847Y-90975211D01*
X161177151Y-90626319D01*
X161077000Y-90383934D01*
X161077000Y-90220726D01*
X169799711Y-90220726D01*
X170053418Y-90834743D01*
X170522786Y-91304931D01*
X171136359Y-91559709D01*
X171800726Y-91560289D01*
X172414743Y-91306582D01*
X172884931Y-90837214D01*
X173139709Y-90223641D01*
X173140289Y-89559274D01*
X172886582Y-88945257D01*
X172417214Y-88475069D01*
X171803641Y-88220291D01*
X171139274Y-88219711D01*
X170525257Y-88473418D01*
X170055069Y-88942786D01*
X169800291Y-89556359D01*
X169799711Y-90220726D01*
X161077000Y-90220726D01*
X161077000Y-84815670D01*
X161176847Y-84575211D01*
X161177151Y-84226319D01*
X161043918Y-83903869D01*
X160797429Y-83656949D01*
X160475211Y-83523153D01*
X160126319Y-83522849D01*
X159803869Y-83656082D01*
X159556949Y-83902571D01*
X159423153Y-84224789D01*
X159422849Y-84573681D01*
X158077000Y-84573681D01*
X158077000Y-76192879D01*
X162471861Y-76192879D01*
X162681192Y-76699498D01*
X163068463Y-77087446D01*
X163574716Y-77297661D01*
X164122879Y-77298139D01*
X164629498Y-77088808D01*
X165017446Y-76701537D01*
X165134667Y-76419238D01*
X166408664Y-76419238D01*
X166791639Y-77346109D01*
X167500161Y-78055869D01*
X168426362Y-78440461D01*
X169429238Y-78441336D01*
X170356109Y-78058361D01*
X171065869Y-77349839D01*
X171450461Y-76423638D01*
X171450662Y-76192879D01*
X172631861Y-76192879D01*
X172841192Y-76699498D01*
X173228463Y-77087446D01*
X173734716Y-77297661D01*
X174282879Y-77298139D01*
X174789498Y-77088808D01*
X175177446Y-76701537D01*
X175387661Y-76195284D01*
X175388139Y-75647121D01*
X175178808Y-75140502D01*
X174791537Y-74752554D01*
X174285284Y-74542339D01*
X173737121Y-74541861D01*
X173230502Y-74751192D01*
X172842554Y-75138463D01*
X172632339Y-75644716D01*
X172631861Y-76192879D01*
X171450662Y-76192879D01*
X171451336Y-75420762D01*
X171068361Y-74493891D01*
X170359839Y-73784131D01*
X169433638Y-73399539D01*
X168430762Y-73398664D01*
X167503891Y-73781639D01*
X166794131Y-74490161D01*
X166409539Y-75416362D01*
X166408664Y-76419238D01*
X165134667Y-76419238D01*
X165227661Y-76195284D01*
X165228139Y-75647121D01*
X165018808Y-75140502D01*
X164928297Y-75049833D01*
X165450726Y-75050289D01*
X166064743Y-74796582D01*
X166534931Y-74327214D01*
X166789709Y-73713641D01*
X166790289Y-73049274D01*
X166536582Y-72435257D01*
X166067214Y-71965069D01*
X165453641Y-71710291D01*
X164789274Y-71709711D01*
X164175257Y-71963418D01*
X163705069Y-72432786D01*
X163450291Y-73046359D01*
X163449711Y-73710726D01*
X163703418Y-74324743D01*
X163920456Y-74542160D01*
X163577121Y-74541861D01*
X163070502Y-74751192D01*
X162682554Y-75138463D01*
X162472339Y-75644716D01*
X162471861Y-76192879D01*
X158077000Y-76192879D01*
X158077000Y-65950000D01*
X157998824Y-65556984D01*
X157943163Y-65473681D01*
X159422849Y-65473681D01*
X159523000Y-65716066D01*
X159523000Y-71384330D01*
X159423153Y-71624789D01*
X159422849Y-71973681D01*
X159556082Y-72296131D01*
X159802571Y-72543051D01*
X160124789Y-72676847D01*
X160473681Y-72677151D01*
X160796131Y-72543918D01*
X161043051Y-72297429D01*
X161176847Y-71975211D01*
X161177151Y-71626319D01*
X161077000Y-71383934D01*
X161077000Y-71170726D01*
X169799711Y-71170726D01*
X170053418Y-71784743D01*
X170522786Y-72254931D01*
X171136359Y-72509709D01*
X171800726Y-72510289D01*
X172414743Y-72256582D01*
X172884931Y-71787214D01*
X173139709Y-71173641D01*
X173140289Y-70509274D01*
X172886582Y-69895257D01*
X172417214Y-69425069D01*
X171803641Y-69170291D01*
X171139274Y-69169711D01*
X170525257Y-69423418D01*
X170055069Y-69892786D01*
X169800291Y-70506359D01*
X169799711Y-71170726D01*
X161077000Y-71170726D01*
X161077000Y-65715670D01*
X161176847Y-65475211D01*
X161177151Y-65126319D01*
X161043918Y-64803869D01*
X160797429Y-64556949D01*
X160475211Y-64423153D01*
X160126319Y-64422849D01*
X159803869Y-64556082D01*
X159556949Y-64802571D01*
X159423153Y-65124789D01*
X159422849Y-65473681D01*
X157943163Y-65473681D01*
X157877295Y-65375103D01*
X159425397Y-63827000D01*
X171554106Y-63827000D01*
X171914853Y-63976795D01*
X172383093Y-63977204D01*
X172746614Y-63827000D01*
X174474602Y-63827000D01*
X176073000Y-65425398D01*
X176073000Y-75874603D01*
X172995161Y-78952441D01*
X172634154Y-79101606D01*
X172302770Y-79432412D01*
X172123205Y-79864853D01*
X172122796Y-80333093D01*
X172301606Y-80765846D01*
X172632412Y-81097230D01*
X173064853Y-81276795D01*
X173533093Y-81277204D01*
X173774895Y-81177293D01*
X176073000Y-83475398D01*
X176073000Y-95274603D01*
X172573801Y-98773801D01*
X172397114Y-99038232D01*
X172302770Y-99132412D01*
X172123205Y-99564853D01*
X172122796Y-100033093D01*
X172301606Y-100465846D01*
X172632412Y-100797230D01*
X173064853Y-100976795D01*
X173533093Y-100977204D01*
X173965846Y-100798394D01*
X174297230Y-100467588D01*
X174476795Y-100035147D01*
X174477022Y-99775376D01*
X177826196Y-96426201D01*
X177826199Y-96426199D01*
X178048824Y-96093016D01*
X178116749Y-95751537D01*
X178127001Y-95700000D01*
X178127000Y-95699995D01*
X178127000Y-88885750D01*
X183549000Y-88885750D01*
X183549000Y-89742309D01*
X183645673Y-89975698D01*
X183824301Y-90154327D01*
X184057690Y-90251000D01*
X184914250Y-90251000D01*
X185073000Y-90092250D01*
X185073000Y-88727000D01*
X183707750Y-88727000D01*
X183549000Y-88885750D01*
X178127000Y-88885750D01*
X178127000Y-87457691D01*
X183549000Y-87457691D01*
X183549000Y-88314250D01*
X183707750Y-88473000D01*
X185073000Y-88473000D01*
X185073000Y-87107750D01*
X185327000Y-87107750D01*
X185327000Y-88473000D01*
X185347000Y-88473000D01*
X185347000Y-88727000D01*
X185327000Y-88727000D01*
X185327000Y-90092250D01*
X185485750Y-90251000D01*
X186342310Y-90251000D01*
X186575699Y-90154327D01*
X186754327Y-89975698D01*
X186814015Y-89831599D01*
X187149519Y-90055775D01*
X187740000Y-90173229D01*
X188330481Y-90055775D01*
X188831066Y-89721295D01*
X189165546Y-89220710D01*
X189283000Y-88630229D01*
X189283000Y-88569771D01*
X189165546Y-87979290D01*
X188831066Y-87478705D01*
X188330481Y-87144225D01*
X187740000Y-87026771D01*
X187149519Y-87144225D01*
X186814015Y-87368401D01*
X186754327Y-87224302D01*
X186575699Y-87045673D01*
X186342310Y-86949000D01*
X185485750Y-86949000D01*
X185327000Y-87107750D01*
X185073000Y-87107750D01*
X184914250Y-86949000D01*
X184057690Y-86949000D01*
X183824301Y-87045673D01*
X183645673Y-87224302D01*
X183549000Y-87457691D01*
X178127000Y-87457691D01*
X178127000Y-83050000D01*
X178048824Y-82656984D01*
X177826199Y-82323801D01*
X175177398Y-79675000D01*
X177369451Y-77482946D01*
X183554017Y-77482946D01*
X183822812Y-78068379D01*
X184295182Y-78506385D01*
X184777056Y-78705975D01*
X185033000Y-78586836D01*
X185033000Y-77227000D01*
X183672633Y-77227000D01*
X183554017Y-77482946D01*
X177369451Y-77482946D01*
X177826196Y-77026201D01*
X177826199Y-77026199D01*
X178032762Y-76717054D01*
X183554017Y-76717054D01*
X183672633Y-76973000D01*
X185033000Y-76973000D01*
X185033000Y-75613164D01*
X185287000Y-75613164D01*
X185287000Y-76973000D01*
X185307000Y-76973000D01*
X185307000Y-77227000D01*
X185287000Y-77227000D01*
X185287000Y-78586836D01*
X185542944Y-78705975D01*
X186024818Y-78506385D01*
X186202777Y-78341372D01*
X186298842Y-78490660D01*
X186474951Y-78610990D01*
X186684000Y-78653324D01*
X188716000Y-78653324D01*
X188911294Y-78616577D01*
X189090660Y-78501158D01*
X189210990Y-78325049D01*
X189253324Y-78116000D01*
X189253324Y-76084000D01*
X189216577Y-75888706D01*
X189101158Y-75709340D01*
X188925049Y-75589010D01*
X188716000Y-75546676D01*
X186684000Y-75546676D01*
X186488706Y-75583423D01*
X186309340Y-75698842D01*
X186201177Y-75857144D01*
X186024818Y-75693615D01*
X185542944Y-75494025D01*
X185287000Y-75613164D01*
X185033000Y-75613164D01*
X184777056Y-75494025D01*
X184295182Y-75693615D01*
X183822812Y-76131621D01*
X183554017Y-76717054D01*
X178032762Y-76717054D01*
X178048824Y-76693016D01*
X178102407Y-76423638D01*
X178127001Y-76300000D01*
X178127000Y-76299995D01*
X178127000Y-65000005D01*
X178127001Y-65000000D01*
X178048824Y-64606985D01*
X178048824Y-64606984D01*
X177826199Y-64273801D01*
X175626199Y-62073801D01*
X175293016Y-61851176D01*
X174900000Y-61773000D01*
X172745894Y-61773000D01*
X172385147Y-61623205D01*
X171916907Y-61622796D01*
X171553386Y-61773000D01*
X159000005Y-61773000D01*
X159000000Y-61772999D01*
X158606985Y-61851175D01*
X158606983Y-61851176D01*
X158606984Y-61851176D01*
X158273801Y-62073801D01*
X158273799Y-62073804D01*
X157163827Y-63183775D01*
X157098824Y-62856984D01*
X156876199Y-62523801D01*
X156876196Y-62523799D01*
X156476199Y-62123801D01*
X156143016Y-61901176D01*
X155750000Y-61823000D01*
X136795894Y-61823000D01*
X136435147Y-61673205D01*
X135966907Y-61672796D01*
X135534154Y-61851606D01*
X135202770Y-62182412D01*
X135023205Y-62614853D01*
X135022796Y-63083093D01*
X116302000Y-63083093D01*
X116302000Y-57142879D01*
X124371861Y-57142879D01*
X124581192Y-57649498D01*
X124968463Y-58037446D01*
X125474716Y-58247661D01*
X126022879Y-58248139D01*
X126529498Y-58038808D01*
X126917446Y-57651537D01*
X127034667Y-57369238D01*
X128308664Y-57369238D01*
X128691639Y-58296109D01*
X129400161Y-59005869D01*
X130326362Y-59390461D01*
X131329238Y-59391336D01*
X132256109Y-59008361D01*
X132965869Y-58299839D01*
X133350461Y-57373638D01*
X133350662Y-57142879D01*
X134531861Y-57142879D01*
X134741192Y-57649498D01*
X135128463Y-58037446D01*
X135634716Y-58247661D01*
X136182879Y-58248139D01*
X136689498Y-58038808D01*
X137077446Y-57651537D01*
X137287661Y-57145284D01*
X137287663Y-57142879D01*
X143421861Y-57142879D01*
X143631192Y-57649498D01*
X144018463Y-58037446D01*
X144524716Y-58247661D01*
X145072879Y-58248139D01*
X145579498Y-58038808D01*
X145967446Y-57651537D01*
X146084667Y-57369238D01*
X147358664Y-57369238D01*
X147741639Y-58296109D01*
X148450161Y-59005869D01*
X149376362Y-59390461D01*
X150379238Y-59391336D01*
X151306109Y-59008361D01*
X152015869Y-58299839D01*
X152400461Y-57373638D01*
X152400662Y-57142879D01*
X153581861Y-57142879D01*
X153791192Y-57649498D01*
X154178463Y-58037446D01*
X154684716Y-58247661D01*
X155232879Y-58248139D01*
X155739498Y-58038808D01*
X156127446Y-57651537D01*
X156337661Y-57145284D01*
X156337663Y-57142879D01*
X162471861Y-57142879D01*
X162681192Y-57649498D01*
X163068463Y-58037446D01*
X163574716Y-58247661D01*
X164122879Y-58248139D01*
X164629498Y-58038808D01*
X165017446Y-57651537D01*
X165134667Y-57369238D01*
X166408664Y-57369238D01*
X166791639Y-58296109D01*
X167500161Y-59005869D01*
X168426362Y-59390461D01*
X169429238Y-59391336D01*
X170356109Y-59008361D01*
X171065869Y-58299839D01*
X171450461Y-57373638D01*
X171450662Y-57142879D01*
X172631861Y-57142879D01*
X172841192Y-57649498D01*
X173228463Y-58037446D01*
X173734716Y-58247661D01*
X174282879Y-58248139D01*
X174789498Y-58038808D01*
X175177446Y-57651537D01*
X175387661Y-57145284D01*
X175388139Y-56597121D01*
X175178808Y-56090502D01*
X174791537Y-55702554D01*
X174285284Y-55492339D01*
X173737121Y-55491861D01*
X173230502Y-55701192D01*
X172842554Y-56088463D01*
X172632339Y-56594716D01*
X172631861Y-57142879D01*
X171450662Y-57142879D01*
X171451336Y-56370762D01*
X171068361Y-55443891D01*
X170359839Y-54734131D01*
X169433638Y-54349539D01*
X168430762Y-54348664D01*
X167503891Y-54731639D01*
X166794131Y-55440161D01*
X166409539Y-56366362D01*
X166408664Y-57369238D01*
X165134667Y-57369238D01*
X165227661Y-57145284D01*
X165228139Y-56597121D01*
X165018808Y-56090502D01*
X164928297Y-55999833D01*
X165450726Y-56000289D01*
X166064743Y-55746582D01*
X166534931Y-55277214D01*
X166789709Y-54663641D01*
X166790289Y-53999274D01*
X166536582Y-53385257D01*
X166067214Y-52915069D01*
X165453641Y-52660291D01*
X164789274Y-52659711D01*
X164175257Y-52913418D01*
X163705069Y-53382786D01*
X163450291Y-53996359D01*
X163449711Y-54660726D01*
X163703418Y-55274743D01*
X163920456Y-55492160D01*
X163577121Y-55491861D01*
X163070502Y-55701192D01*
X162682554Y-56088463D01*
X162472339Y-56594716D01*
X162471861Y-57142879D01*
X156337663Y-57142879D01*
X156338139Y-56597121D01*
X156128808Y-56090502D01*
X155741537Y-55702554D01*
X155235284Y-55492339D01*
X154687121Y-55491861D01*
X154180502Y-55701192D01*
X153792554Y-56088463D01*
X153582339Y-56594716D01*
X153581861Y-57142879D01*
X152400662Y-57142879D01*
X152401336Y-56370762D01*
X152018361Y-55443891D01*
X151309839Y-54734131D01*
X150383638Y-54349539D01*
X149380762Y-54348664D01*
X148453891Y-54731639D01*
X147744131Y-55440161D01*
X147359539Y-56366362D01*
X147358664Y-57369238D01*
X146084667Y-57369238D01*
X146177661Y-57145284D01*
X146178139Y-56597121D01*
X145968808Y-56090502D01*
X145878297Y-55999833D01*
X146400726Y-56000289D01*
X147014743Y-55746582D01*
X147484931Y-55277214D01*
X147739709Y-54663641D01*
X147740289Y-53999274D01*
X147486582Y-53385257D01*
X147017214Y-52915069D01*
X146403641Y-52660291D01*
X145739274Y-52659711D01*
X145125257Y-52913418D01*
X144655069Y-53382786D01*
X144400291Y-53996359D01*
X144399711Y-54660726D01*
X144653418Y-55274743D01*
X144870456Y-55492160D01*
X144527121Y-55491861D01*
X144020502Y-55701192D01*
X143632554Y-56088463D01*
X143422339Y-56594716D01*
X143421861Y-57142879D01*
X137287663Y-57142879D01*
X137288139Y-56597121D01*
X137078808Y-56090502D01*
X136691537Y-55702554D01*
X136185284Y-55492339D01*
X135637121Y-55491861D01*
X135130502Y-55701192D01*
X134742554Y-56088463D01*
X134532339Y-56594716D01*
X134531861Y-57142879D01*
X133350662Y-57142879D01*
X133351336Y-56370762D01*
X132968361Y-55443891D01*
X132259839Y-54734131D01*
X131333638Y-54349539D01*
X130330762Y-54348664D01*
X129403891Y-54731639D01*
X128694131Y-55440161D01*
X128309539Y-56366362D01*
X128308664Y-57369238D01*
X127034667Y-57369238D01*
X127127661Y-57145284D01*
X127128139Y-56597121D01*
X126918808Y-56090502D01*
X126828297Y-55999833D01*
X127350726Y-56000289D01*
X127964743Y-55746582D01*
X128434931Y-55277214D01*
X128689709Y-54663641D01*
X128690289Y-53999274D01*
X128436582Y-53385257D01*
X127967214Y-52915069D01*
X127353641Y-52660291D01*
X126689274Y-52659711D01*
X126075257Y-52913418D01*
X125605069Y-53382786D01*
X125350291Y-53996359D01*
X125349711Y-54660726D01*
X125603418Y-55274743D01*
X125820456Y-55492160D01*
X125477121Y-55491861D01*
X124970502Y-55701192D01*
X124582554Y-56088463D01*
X124372339Y-56594716D01*
X124371861Y-57142879D01*
X116302000Y-57142879D01*
X116302000Y-50606783D01*
X117140557Y-50606783D01*
X117529320Y-51547663D01*
X118248550Y-52268150D01*
X119188750Y-52658555D01*
X120206783Y-52659443D01*
X121147663Y-52270680D01*
X121297879Y-52120726D01*
X131699711Y-52120726D01*
X131953418Y-52734743D01*
X132422786Y-53204931D01*
X133036359Y-53459709D01*
X133700726Y-53460289D01*
X134314743Y-53206582D01*
X134784931Y-52737214D01*
X135039709Y-52123641D01*
X135039711Y-52120726D01*
X150749711Y-52120726D01*
X151003418Y-52734743D01*
X151472786Y-53204931D01*
X152086359Y-53459709D01*
X152750726Y-53460289D01*
X153364743Y-53206582D01*
X153834931Y-52737214D01*
X154089709Y-52123641D01*
X154089711Y-52120726D01*
X169799711Y-52120726D01*
X170053418Y-52734743D01*
X170522786Y-53204931D01*
X171136359Y-53459709D01*
X171800726Y-53460289D01*
X172414743Y-53206582D01*
X172884931Y-52737214D01*
X173139709Y-52123641D01*
X173140289Y-51459274D01*
X172886582Y-50845257D01*
X172648524Y-50606783D01*
X187390557Y-50606783D01*
X187779320Y-51547663D01*
X188498550Y-52268150D01*
X189438750Y-52658555D01*
X190456783Y-52659443D01*
X191397663Y-52270680D01*
X192118150Y-51551450D01*
X192508555Y-50611250D01*
X192509443Y-49593217D01*
X192120680Y-48652337D01*
X191401450Y-47931850D01*
X190461250Y-47541445D01*
X189443217Y-47540557D01*
X188502337Y-47929320D01*
X187781850Y-48648550D01*
X187391445Y-49588750D01*
X187390557Y-50606783D01*
X172648524Y-50606783D01*
X172417214Y-50375069D01*
X171803641Y-50120291D01*
X171139274Y-50119711D01*
X170525257Y-50373418D01*
X170055069Y-50842786D01*
X169800291Y-51456359D01*
X169799711Y-52120726D01*
X154089711Y-52120726D01*
X154090289Y-51459274D01*
X153836582Y-50845257D01*
X153367214Y-50375069D01*
X152753641Y-50120291D01*
X152089274Y-50119711D01*
X151475257Y-50373418D01*
X151005069Y-50842786D01*
X150750291Y-51456359D01*
X150749711Y-52120726D01*
X135039711Y-52120726D01*
X135040289Y-51459274D01*
X134786582Y-50845257D01*
X134317214Y-50375069D01*
X133703641Y-50120291D01*
X133039274Y-50119711D01*
X132425257Y-50373418D01*
X131955069Y-50842786D01*
X131700291Y-51456359D01*
X131699711Y-52120726D01*
X121297879Y-52120726D01*
X121868150Y-51551450D01*
X122258555Y-50611250D01*
X122259443Y-49593217D01*
X121870680Y-48652337D01*
X121151450Y-47931850D01*
X120211250Y-47541445D01*
X119193217Y-47540557D01*
X118252337Y-47929320D01*
X117531850Y-48648550D01*
X117141445Y-49588750D01*
X117140557Y-50606783D01*
X116302000Y-50606783D01*
X116302000Y-46702000D01*
X193098000Y-46702000D01*
X193098000Y-136248000D01*
G36*
X158144781Y-114143625D02*
X162550578Y-118549422D01*
X162802655Y-118717854D01*
X163100000Y-118777000D01*
X164031607Y-118777000D01*
X164169454Y-118983303D01*
X164402585Y-119139076D01*
X164316400Y-119139076D01*
X164121106Y-119175823D01*
X163941740Y-119291242D01*
X163821410Y-119467351D01*
X163779076Y-119676400D01*
X163779076Y-119763000D01*
X163610000Y-119763000D01*
X163312655Y-119822146D01*
X163060578Y-119990578D01*
X158200578Y-124850578D01*
X158032146Y-125102655D01*
X157973000Y-125400000D01*
X157973000Y-126084330D01*
X157873153Y-126324789D01*
X157872849Y-126673681D01*
X158006082Y-126996131D01*
X158252571Y-127243051D01*
X158574789Y-127376847D01*
X158923681Y-127377151D01*
X159246131Y-127243918D01*
X159493051Y-126997429D01*
X159626847Y-126675211D01*
X159627151Y-126326319D01*
X159527000Y-126083934D01*
X159527000Y-125721844D01*
X163789555Y-121459289D01*
X163815823Y-121598894D01*
X163931242Y-121778260D01*
X164107351Y-121898590D01*
X164316400Y-121940924D01*
X165210232Y-121940924D01*
X162050578Y-125100578D01*
X161882146Y-125352655D01*
X161823000Y-125650000D01*
X161823000Y-125684330D01*
X161723153Y-125924789D01*
X161722849Y-126273681D01*
X161856082Y-126596131D01*
X162102571Y-126843051D01*
X162424789Y-126976847D01*
X162773681Y-126977151D01*
X163096131Y-126843918D01*
X163343051Y-126597429D01*
X163476847Y-126275211D01*
X163477151Y-125926319D01*
X163461179Y-125887665D01*
X167463789Y-121885055D01*
X167692757Y-121930600D01*
X167747243Y-121930600D01*
X167776345Y-121924811D01*
X166050578Y-123650578D01*
X165882146Y-123902655D01*
X165823000Y-124200000D01*
X165823000Y-125536548D01*
X165806949Y-125552571D01*
X165673153Y-125874789D01*
X165672849Y-126223681D01*
X165806082Y-126546131D01*
X166052571Y-126793051D01*
X166374789Y-126926847D01*
X166723681Y-126927151D01*
X167046131Y-126793918D01*
X167293051Y-126547429D01*
X167426847Y-126225211D01*
X167427151Y-125876319D01*
X167377000Y-125754944D01*
X167377000Y-124521844D01*
X170012129Y-121886715D01*
X170232757Y-121930600D01*
X170287243Y-121930600D01*
X170819403Y-121824747D01*
X171270546Y-121523303D01*
X171530000Y-121135003D01*
X171789454Y-121523303D01*
X172240597Y-121824747D01*
X172772757Y-121930600D01*
X172827243Y-121930600D01*
X173359403Y-121824747D01*
X173810546Y-121523303D01*
X174016157Y-121215584D01*
X174057312Y-121314947D01*
X174451510Y-121746821D01*
X174980973Y-121994968D01*
X175213000Y-121874469D01*
X175213000Y-120667000D01*
X175193000Y-120667000D01*
X175193000Y-120413000D01*
X175213000Y-120413000D01*
X175213000Y-120393000D01*
X175467000Y-120393000D01*
X175467000Y-120413000D01*
X175487000Y-120413000D01*
X175487000Y-120667000D01*
X175467000Y-120667000D01*
X175467000Y-121874469D01*
X175699027Y-121994968D01*
X176228490Y-121746821D01*
X176622688Y-121314947D01*
X176663843Y-121215584D01*
X176853000Y-121498678D01*
X176853000Y-123994603D01*
X173374602Y-127473000D01*
X158175397Y-127473000D01*
X157727000Y-127024602D01*
X157727000Y-122745894D01*
X157876795Y-122385147D01*
X157876803Y-122375633D01*
X157998824Y-122193016D01*
X158011794Y-122127809D01*
X158077001Y-121800000D01*
X158077000Y-121799995D01*
X158077000Y-114115480D01*
X158144781Y-114143625D01*
X158144781Y-114143625D01*
G37*
X158144781Y-114143625D02*
X162550578Y-118549422D01*
X162802655Y-118717854D01*
X163100000Y-118777000D01*
X164031607Y-118777000D01*
X164169454Y-118983303D01*
X164402585Y-119139076D01*
X164316400Y-119139076D01*
X164121106Y-119175823D01*
X163941740Y-119291242D01*
X163821410Y-119467351D01*
X163779076Y-119676400D01*
X163779076Y-119763000D01*
X163610000Y-119763000D01*
X163312655Y-119822146D01*
X163060578Y-119990578D01*
X158200578Y-124850578D01*
X158032146Y-125102655D01*
X157973000Y-125400000D01*
X157973000Y-126084330D01*
X157873153Y-126324789D01*
X157872849Y-126673681D01*
X158006082Y-126996131D01*
X158252571Y-127243051D01*
X158574789Y-127376847D01*
X158923681Y-127377151D01*
X159246131Y-127243918D01*
X159493051Y-126997429D01*
X159626847Y-126675211D01*
X159627151Y-126326319D01*
X159527000Y-126083934D01*
X159527000Y-125721844D01*
X163789555Y-121459289D01*
X163815823Y-121598894D01*
X163931242Y-121778260D01*
X164107351Y-121898590D01*
X164316400Y-121940924D01*
X165210232Y-121940924D01*
X162050578Y-125100578D01*
X161882146Y-125352655D01*
X161823000Y-125650000D01*
X161823000Y-125684330D01*
X161723153Y-125924789D01*
X161722849Y-126273681D01*
X161856082Y-126596131D01*
X162102571Y-126843051D01*
X162424789Y-126976847D01*
X162773681Y-126977151D01*
X163096131Y-126843918D01*
X163343051Y-126597429D01*
X163476847Y-126275211D01*
X163477151Y-125926319D01*
X163461179Y-125887665D01*
X167463789Y-121885055D01*
X167692757Y-121930600D01*
X167747243Y-121930600D01*
X167776345Y-121924811D01*
X166050578Y-123650578D01*
X165882146Y-123902655D01*
X165823000Y-124200000D01*
X165823000Y-125536548D01*
X165806949Y-125552571D01*
X165673153Y-125874789D01*
X165672849Y-126223681D01*
X165806082Y-126546131D01*
X166052571Y-126793051D01*
X166374789Y-126926847D01*
X166723681Y-126927151D01*
X167046131Y-126793918D01*
X167293051Y-126547429D01*
X167426847Y-126225211D01*
X167427151Y-125876319D01*
X167377000Y-125754944D01*
X167377000Y-124521844D01*
X170012129Y-121886715D01*
X170232757Y-121930600D01*
X170287243Y-121930600D01*
X170819403Y-121824747D01*
X171270546Y-121523303D01*
X171530000Y-121135003D01*
X171789454Y-121523303D01*
X172240597Y-121824747D01*
X172772757Y-121930600D01*
X172827243Y-121930600D01*
X173359403Y-121824747D01*
X173810546Y-121523303D01*
X174016157Y-121215584D01*
X174057312Y-121314947D01*
X174451510Y-121746821D01*
X174980973Y-121994968D01*
X175213000Y-121874469D01*
X175213000Y-120667000D01*
X175193000Y-120667000D01*
X175193000Y-120413000D01*
X175213000Y-120413000D01*
X175213000Y-120393000D01*
X175467000Y-120393000D01*
X175467000Y-120413000D01*
X175487000Y-120413000D01*
X175487000Y-120667000D01*
X175467000Y-120667000D01*
X175467000Y-121874469D01*
X175699027Y-121994968D01*
X176228490Y-121746821D01*
X176622688Y-121314947D01*
X176663843Y-121215584D01*
X176853000Y-121498678D01*
X176853000Y-123994603D01*
X173374602Y-127473000D01*
X158175397Y-127473000D01*
X157727000Y-127024602D01*
X157727000Y-122745894D01*
X157876795Y-122385147D01*
X157876803Y-122375633D01*
X157998824Y-122193016D01*
X158011794Y-122127809D01*
X158077001Y-121800000D01*
X158077000Y-121799995D01*
X158077000Y-114115480D01*
X158144781Y-114143625D01*
M02*
