G04 #@! TF.FileFunction,Soldermask,Bot*
%FSLAX46Y46*%
G04 Gerber Fmt 4.6, Leading zero omitted, Abs format (unit mm)*
G04 Created by KiCad (PCBNEW 4.0.5-e0-6337~49~ubuntu16.04.1) date Thu Dec 29 17:38:52 2016*
%MOMM*%
%LPD*%
G01*
G04 APERTURE LIST*
%ADD10C,0.100000*%
%ADD11R,2.127200X2.127200*%
%ADD12O,2.127200X2.127200*%
%ADD13C,4.464000*%
%ADD14R,2.432000X2.432000*%
%ADD15O,2.432000X2.432000*%
%ADD16C,2.686000*%
G04 APERTURE END LIST*
D10*
D11*
X165180000Y-120540000D03*
D12*
X165180000Y-118000000D03*
X167720000Y-120540000D03*
X167720000Y-118000000D03*
X170260000Y-120540000D03*
X170260000Y-118000000D03*
X172800000Y-120540000D03*
X172800000Y-118000000D03*
X175340000Y-120540000D03*
X175340000Y-118000000D03*
X177880000Y-120540000D03*
X177880000Y-118000000D03*
X180420000Y-120540000D03*
X180420000Y-118000000D03*
X182960000Y-120540000D03*
X182960000Y-118000000D03*
D13*
X189950000Y-50100000D03*
X120450000Y-132350000D03*
X189950000Y-132350000D03*
X119700000Y-50100000D03*
D14*
X185200000Y-88600000D03*
D15*
X187740000Y-88600000D03*
D14*
X187700000Y-77100000D03*
D15*
X185160000Y-77100000D03*
D16*
X171470000Y-51790000D03*
X165120000Y-54330000D03*
X171470000Y-89890000D03*
X165120000Y-92430000D03*
X171470000Y-70840000D03*
X165120000Y-73380000D03*
X152420000Y-108940000D03*
X146070000Y-111480000D03*
X152420000Y-89890000D03*
X146070000Y-92430000D03*
X152420000Y-70840000D03*
X146070000Y-73380000D03*
X152420000Y-51790000D03*
X146070000Y-54330000D03*
X133370000Y-89890000D03*
X127020000Y-92430000D03*
X133370000Y-51790000D03*
X127020000Y-54330000D03*
X133370000Y-70840000D03*
X127020000Y-73380000D03*
M02*
