M48
;DRILL file {KiCad 4.0.5-e0-6337~49~ubuntu16.04.1} date Thu Dec 29 17:38:29 2016
;FORMAT={-:-/ absolute / metric / decimal}
FMAT,2
METRIC,TZ
T1C1.702
T2C3.988
%
G90
G05
M71
T1
X125.75Y-56.87
X125.75Y-75.92
X125.75Y-94.97
X135.91Y-56.87
X135.91Y-75.92
X135.91Y-94.97
X144.8Y-56.87
X144.8Y-75.92
X144.8Y-94.97
X144.8Y-114.02
X154.96Y-56.87
X154.96Y-75.92
X154.96Y-94.97
X154.96Y-114.02
X163.85Y-56.87
X163.85Y-75.92
X163.85Y-94.97
X174.01Y-56.87
X174.01Y-75.92
X174.01Y-94.97
T2
X130.83Y-56.87
X130.83Y-75.92
X130.83Y-94.97
X149.88Y-56.87
X149.88Y-75.92
X149.88Y-94.97
X149.88Y-114.02
X168.93Y-56.87
X168.93Y-75.92
X168.93Y-94.97
T0
M30
