M48
;DRILL file {KiCad 4.0.5-e0-6337~49~ubuntu16.04.1} date Thu Dec 29 17:38:29 2016
;FORMAT={-:-/ absolute / metric / decimal}
FMAT,2
METRIC,TZ
T1C0.400
T2C0.600
T3C1.016
T4C1.499
T5C3.200
%
G90
G05
M71
T1
X141.3Y-65.3
X141.3Y-71.8
X141.3Y-84.4
X141.3Y-90.8
X141.3Y-103.7
X141.3Y-106.7
X158.4Y-113.3
X158.75Y-126.5
X160.3Y-65.3
X160.3Y-71.8
X160.3Y-84.4
X160.3Y-90.8
X160.3Y-103.3
X160.3Y-108.6
X162.6Y-126.1
X166.55Y-126.05
X180.6Y-103.95
X181.6Y-108.25
X181.85Y-105.
X182.3Y-110.85
X184.7Y-113.5
X185.05Y-120.25
X185.45Y-127.25
T2
X136.2Y-62.85
X137.05Y-84.05
X138.4Y-65.05
X138.65Y-101.75
X155.45Y-103.1
X155.8Y-84.
X156.15Y-65.05
X156.7Y-122.15
X172.15Y-62.8
X173.3Y-80.1
X173.3Y-99.8
T3
X165.18Y-118.
X165.18Y-120.54
X167.72Y-118.
X167.72Y-120.54
X170.26Y-118.
X170.26Y-120.54
X172.8Y-118.
X172.8Y-120.54
X175.34Y-118.
X175.34Y-120.54
X177.88Y-118.
X177.88Y-120.54
X180.42Y-118.
X180.42Y-120.54
X182.96Y-118.
X182.96Y-120.54
X185.16Y-77.1
X185.2Y-88.6
X187.7Y-77.1
X187.74Y-88.6
T4
X127.02Y-54.33
X127.02Y-73.38
X127.02Y-92.43
X133.37Y-51.79
X133.37Y-70.84
X133.37Y-89.89
X146.07Y-54.33
X146.07Y-73.38
X146.07Y-92.43
X146.07Y-111.48
X152.42Y-51.79
X152.42Y-70.84
X152.42Y-89.89
X152.42Y-108.94
X165.12Y-54.33
X165.12Y-73.38
X165.12Y-92.43
X171.47Y-51.79
X171.47Y-70.84
X171.47Y-89.89
T5
X119.7Y-50.1
X120.45Y-132.35
X189.95Y-50.1
X189.95Y-132.35
T0
M30
