M48
;DRILL file {KiCad 4.0.7} date Fri Feb  9 22:51:22 2018
;FORMAT={2:4/ absolute / inch / suppress leading zeros}
FMAT,2
INCH,TZ
T1C0.067
T2C0.120
T3C0.157
%
G90
G05
M72
T1
X3028Y38520
X3949Y8606
X4902Y31043
X5823Y23563
X7028Y38520
X7700Y16089
X7949Y8606
X8902Y31043
X9823Y23563
X10492Y38524
X11700Y16089
X13299Y8606
X14244Y31047
X14492Y38524
X16114Y23567
X17299Y8606
X17965Y38531
X18244Y31047
X19870Y16083
X20114Y23567
X21713Y31043
X21965Y38531
X22657Y8602
X23591Y23563
X23870Y16083
X25441Y38524
X25713Y31043
X26657Y8602
X27354Y16087
X27591Y23563
X29205Y31047
X29441Y38524
X31083Y23567
X31354Y16087
X32906Y38524
X33205Y31047
X34823Y16083
X35083Y23567
X36685Y31047
X36906Y38524
X38571Y23567
X38823Y16083
X40386Y38528
X40685Y31047
X42291Y16083
X42571Y23567
X44165Y31047
X44386Y38528
X46051Y23567
X46291Y16083
X47862Y38524
X48165Y31047
X49772Y16083
X50051Y23567
X50748Y8602
X51646Y31047
X51862Y38524
X53535Y23567
X53772Y16083
X54748Y8602
X55343Y38524
X55646Y31047
X57256Y16087
X57535Y23567
X59126Y31047
X59343Y38524
X61016Y23567
X61256Y16087
X62823Y38524
X63126Y31047
X64736Y16087
X65016Y23567
X66606Y31047
X66823Y38524
X68496Y23563
X68736Y16087
X70295Y38524
X70606Y31047
X72217Y16091
X72496Y23563
X74087Y31047
X74295Y38524
X75976Y23567
X76217Y16091
X77768Y38524
X78087Y31047
X79697Y16091
X79787Y8618
X79976Y23567
X81567Y31047
X81768Y38524
X83457Y23567
X83697Y16091
X83787Y8618
X85252Y38524
X85567Y31047
X87177Y16089
X87457Y23567
X89047Y31043
X89252Y38524
X90937Y23571
X91016Y8618
X91177Y16089
X92732Y38524
X93047Y31043
X94937Y23571
X95016Y8618
X96528Y31043
X96732Y38524
X97508Y16093
X100370Y8618
X100528Y31043
X101508Y16093
X103119Y23571
X103968Y38530
X104370Y8618
X105907Y31039
X107119Y23571
X107839Y16098
X107850Y8618
X107968Y38530
X109907Y31039
X111839Y16098
X111850Y8618
X115289Y38539
X115309Y31049
X115319Y23569
X115327Y16098
X115333Y8612
X119289Y38539
X119309Y31049
X119319Y23569
X119327Y16098
X119333Y8612
T2
X5000Y18839
X14400Y18839
X33048Y5852
X72448Y5852
X100419Y26321
X101268Y41280
X109819Y26321
X110668Y41280
T3
X5000Y12839
X5028Y38520
X5949Y8606
X6902Y31043
X7823Y23563
X9700Y16089
X12492Y38524
X14400Y12839
X15299Y8606
X16244Y31047
X18114Y23567
X19965Y38531
X21870Y16083
X23713Y31043
X24657Y8602
X25591Y23563
X27441Y38524
X29354Y16087
X31205Y31047
X33048Y11852
X33083Y23567
X34906Y38524
X36823Y16083
X38685Y31047
X40571Y23567
X42386Y38528
X44291Y16083
X46165Y31047
X48051Y23567
X49862Y38524
X51772Y16083
X52748Y8602
X53646Y31047
X55535Y23567
X57343Y38524
X59256Y16087
X61126Y31047
X63016Y23567
X64823Y38524
X66736Y16087
X68606Y31047
X70496Y23563
X72295Y38524
X72448Y11852
X74217Y16091
X76087Y31047
X77976Y23567
X79768Y38524
X81697Y16091
X81787Y8618
X83567Y31047
X85457Y23567
X87252Y38524
X89177Y16089
X91047Y31043
X92937Y23571
X93016Y8618
X94732Y38524
X98528Y31043
X99508Y16093
X100419Y20321
X101268Y35280
X102370Y8618
X105119Y23571
X105968Y38530
X107907Y31039
X109819Y20321
X109839Y16098
X109850Y8618
X110668Y35280
X117289Y38539
X117309Y31049
X117319Y23569
X117327Y16098
X117333Y8612
T0
M30
