M48
;DRILL file {KiCad 4.0.7} date Fri Feb  9 22:51:22 2018
;FORMAT={2:4/ absolute / inch / suppress leading zeros}
FMAT,2
INCH,TZ
T1C0.012
T2C0.016
T3C0.020
T4C0.022
T5C0.030
T6C0.031
T7C0.039
T8C0.040
T9C0.059
T10C0.118
T11C0.120
%
G90
G05
M72
T1
X1778Y45321
X1778Y44927
X1778Y44533
X1778Y44140
X2959Y21896
X2959Y21502
X2959Y21108
X3266Y10134
X3266Y9740
X3266Y9346
X3327Y33793
X3327Y33400
X3327Y33006
X3469Y28746
X3559Y41681
X3720Y33793
X3720Y33400
X3720Y33006
X3862Y28746
X3953Y40917
X3953Y40524
X4114Y33793
X4114Y33400
X4114Y33006
X4169Y42276
X4256Y28746
X4346Y40917
X4346Y40524
X4346Y40130
X4441Y46902
X4441Y46508
X4441Y46114
X4740Y40917
X4740Y40524
X4740Y40130
X4835Y46902
X4835Y46508
X4835Y46114
X5228Y46902
X5228Y46508
X5228Y46114
X5699Y11187
X6093Y11581
X6486Y11974
X6748Y35980
X7419Y35445
X7752Y6079
X7813Y35445
X8207Y35445
X8579Y28510
X9008Y6433
X9008Y6039
X9402Y6433
X9402Y6039
X9593Y21059
X9795Y6433
X9795Y6039
X9945Y42128
X10234Y44772
X10234Y44378
X10252Y30793
X10252Y30400
X10252Y30006
X10339Y42128
X10646Y30793
X10646Y30400
X10646Y30006
X11039Y30793
X11039Y30400
X11039Y30006
X11173Y40931
X11268Y24134
X11268Y23740
X11268Y23346
X11453Y13567
X11567Y40931
X11661Y24134
X11661Y23740
X11661Y23346
X11961Y40931
X12055Y24134
X12055Y23740
X12055Y23346
X13795Y43628
X13925Y16823
X13925Y16429
X13925Y16035
X14071Y36010
X14189Y43628
X14319Y16823
X14319Y16429
X14319Y16035
X14583Y43628
X14713Y16823
X14713Y16429
X14713Y16035
X14976Y43628
X15321Y45399
X15599Y45677
X15878Y45956
X16156Y46234
X16829Y18941
X17102Y6069
X17222Y18941
X17616Y18941
X17978Y28530
X18010Y18941
X18303Y6470
X18303Y6077
X18575Y9274
X18575Y8880
X18575Y8486
X18697Y6470
X18697Y6077
X18904Y41305
X18969Y9274
X18969Y8880
X18969Y8486
X19091Y6470
X19091Y6077
X19297Y41305
X19362Y9274
X19362Y8880
X19362Y8486
X19691Y41305
X19789Y21079
X20705Y44898
X20705Y44504
X20705Y44110
X21098Y44898
X21098Y44504
X21098Y44110
X21492Y44898
X21492Y44504
X21492Y44110
X21541Y36010
X23169Y26305
X23563Y26305
X23579Y13569
X23957Y26305
X24350Y26305
X25380Y28510
X26463Y6098
X26911Y24248
X27190Y24527
X27417Y21059
X27468Y24805
X27929Y45173
X27929Y44780
X27929Y44386
X28224Y33854
X28323Y45173
X28323Y44780
X28323Y44386
X28618Y33854
X28717Y45173
X28717Y44780
X28717Y44386
X29012Y33854
X29051Y35990
X29081Y9612
X29081Y9219
X29081Y8825
X29406Y33854
X29474Y9612
X29474Y9219
X29474Y8825
X29868Y35445
X29868Y9612
X29868Y9219
X29868Y8825
X30262Y35445
X30656Y35445
X30695Y39043
X30695Y38650
X30695Y38256
X31069Y13569
X32890Y28510
X34878Y21069
X35217Y45563
X35217Y45169
X35217Y44776
X36758Y36010
X37191Y19102
X37585Y19102
X37978Y19102
X38159Y16677
X38372Y19102
X38438Y16956
X38530Y13559
X38716Y17234
X39051Y6856
X39051Y6463
X39051Y6069
X39445Y6856
X39445Y6463
X39445Y6069
X39839Y6856
X39839Y6463
X39839Y6069
X40341Y28549
X41167Y7998
X42368Y21049
X43923Y35970
X45134Y26335
X45528Y26335
X45921Y26335
X45970Y13569
X46315Y26335
X47791Y28510
X49341Y23827
X49619Y24105
X49858Y21039
X49897Y24384
X51039Y33913
X51413Y35990
X51433Y33913
X51827Y33913
X52220Y35449
X52220Y33913
X52614Y35449
X53008Y35449
X53337Y38188
X53337Y37794
X53337Y37401
X53451Y13569
X54563Y6069
X54593Y39145
X54593Y38751
X55281Y28530
X56431Y9031
X56431Y8638
X56431Y8244
X56825Y9031
X56825Y8638
X56825Y8244
X57219Y9031
X57219Y8638
X57219Y8244
X57329Y21059
X58864Y35990
X59659Y19169
X60053Y19169
X60447Y19169
X60549Y16737
X60828Y17015
X60841Y19169
X60951Y13579
X61106Y17293
X62781Y28530
X64780Y21049
X66394Y36030
X67575Y6935
X67575Y6541
X67575Y6148
X67811Y7978
X67969Y6935
X67969Y6541
X67969Y6148
X68264Y27427
X68264Y27033
X68264Y26640
X68362Y6935
X68362Y6541
X68362Y6148
X68431Y13589
X68657Y27427
X68657Y27033
X68657Y26640
X69051Y27427
X69051Y27033
X69051Y26640
X70291Y28549
X72289Y21049
X72752Y33953
X72942Y24916
X72942Y24522
X72942Y24128
X73087Y29606
X73091Y29303
X73146Y33953
X73539Y33953
X73894Y36039
X73933Y33953
X74705Y35457
X75098Y35457
X75492Y35457
X75506Y38823
X75506Y38429
X75506Y38035
X75911Y13589
X76157Y9071
X76157Y8677
X76157Y8283
X76551Y9071
X76551Y8677
X76551Y8283
X76945Y9071
X76945Y8677
X76945Y8283
X77317Y31768
X77595Y32046
X77713Y28490
X77874Y32325
X79222Y23823
X79501Y24102
X79779Y24380
X79799Y21049
X81173Y19189
X81335Y36039
X81496Y43657
X81496Y43264
X81496Y42870
X81569Y19195
X81890Y43657
X81890Y43264
X81890Y42870
X81963Y19195
X82283Y43657
X82283Y43264
X82283Y42870
X83112Y16796
X83362Y13598
X83391Y17074
X83426Y26532
X83426Y26138
X83610Y42713
X83638Y6098
X83669Y17352
X83888Y42435
X85232Y28530
X85663Y17063
X85663Y16669
X85663Y16276
X87250Y21049
X87571Y25141
X87965Y25141
X88359Y25141
X88854Y35990
X90862Y13569
X92555Y28697
X92831Y28392
X92986Y42748
X93380Y42748
X93774Y42748
X93824Y29971
X93935Y33949
X94089Y16343
X94089Y15949
X94089Y15555
X94103Y29693
X94167Y42748
X94329Y33949
X94381Y29414
X94482Y16343
X94482Y15949
X94482Y15555
X94722Y33949
X94740Y21059
X94829Y6108
X94876Y16343
X94876Y15949
X94876Y15555
X95116Y33949
X95894Y24886
X96028Y29303
X96028Y28980
X96217Y24886
X96315Y36010
X97102Y9406
X97102Y9012
X97102Y8618
X97114Y24886
X97437Y24886
X97496Y9406
X97496Y9012
X97496Y8618
X97884Y36203
X97890Y9406
X97890Y9012
X97890Y8618
X98278Y36203
X98311Y39268
X98311Y38874
X98311Y38480
X98671Y36203
X98705Y39268
X98705Y38874
X98705Y38480
X99098Y39268
X99098Y38874
X99098Y38480
X99967Y28618
X100291Y28382
X101305Y13549
X102350Y30823
X102350Y30429
X102429Y45299
X102429Y44906
X102429Y44512
X102744Y30823
X102744Y30429
X102823Y45299
X102823Y44906
X102823Y44512
X103217Y45299
X103217Y44906
X103217Y44512
X104199Y6118
X104313Y30157
X104313Y29764
X104313Y29370
X104618Y16559
X104618Y16165
X105012Y16559
X105012Y16165
X105012Y15772
X105406Y16165
X105406Y15772
X105864Y34699
X105864Y34305
X106258Y34699
X106258Y34305
X106652Y34699
X106652Y34305
X106915Y21069
X107024Y27427
X107024Y27033
X107024Y26640
X107417Y27427
X107417Y27033
X107417Y26640
X107614Y36030
X107811Y27427
X107811Y27033
X107811Y26640
X109380Y23051
X109380Y22657
X109524Y28549
X109774Y23051
X109774Y22657
X110167Y23051
X110167Y22657
X111593Y31553
X111593Y31159
X111593Y30766
X111630Y13579
X111659Y6108
X111986Y31553
X111986Y31159
X111986Y30766
X112380Y31553
X112380Y31159
X112380Y30766
X112661Y39280
X112661Y38886
X112661Y38492
X113055Y39280
X113055Y38886
X113055Y38492
X113431Y18933
X113431Y18618
X113449Y39280
X113449Y38886
X113449Y38492
X114297Y30469
X114356Y23008
X116547Y46193
X116547Y45799
X116547Y45406
X116941Y46193
X116941Y45799
X116941Y45406
X117335Y46193
X117335Y45799
X117335Y45406
X119100Y35803
X119110Y36266
X119140Y6089
X119150Y13795
X119159Y21276
X119159Y20872
X119159Y13362
X119179Y28736
X119179Y28352
T2
X2870Y37260
X3807Y7346
X4776Y29783
X5681Y22303
X6984Y37280
X7565Y14829
X8854Y29780
X9063Y45417
X9780Y22299
X10157Y34740
X10508Y36000
X11669Y14819
X13157Y7346
X13402Y27280
X14248Y28520
X14445Y37280
X15252Y19957
X16118Y21039
X17650Y34740
X17969Y36020
X18205Y29799
X19209Y11660
X19878Y13559
X20075Y22319
X20862Y27280
X21709Y28520
X21906Y37260
X22492Y7343
X22752Y19957
X23598Y21039
X23815Y14819
X25047Y34740
X25449Y36000
X25665Y29780
X26591Y12594
X27358Y13559
X27555Y22319
X28362Y27280
X29209Y28520
X29406Y37260
X30252Y19957
X31079Y21059
X31315Y14819
X32441Y34740
X32587Y46492
X32909Y35980
X33165Y29780
X33575Y13031
X34839Y13559
X35035Y22280
X35843Y27280
X36118Y46492
X36689Y28520
X36817Y44258
X36850Y25722
X36866Y37280
X37594Y9543
X37732Y19957
X37992Y41047
X38228Y42819
X38465Y41047
X38579Y21039
X38776Y14819
X39961Y34740
X40390Y36000
X40646Y29799
X41531Y11925
X42299Y13559
X42516Y22299
X43071Y25339
X43224Y42354
X43323Y27280
X43587Y43276
X43705Y42339
X44094Y44567
X44169Y28520
X44185Y42319
X44346Y37260
X44488Y44882
X44685Y42319
X45118Y44094
X45185Y42319
X45193Y19957
X45512Y46063
X45512Y43780
X46059Y21039
X46256Y14819
X46260Y45224
X46551Y41665
X47484Y34740
X47870Y36000
X48126Y29799
X49012Y11925
X49134Y44094
X49780Y13559
X50012Y44807
X50016Y22299
X50528Y45361
X50701Y7343
X50803Y27280
X51031Y44799
X51535Y44791
X51650Y28520
X51827Y37260
X52047Y43551
X52441Y43937
X52693Y19957
X53528Y45799
X53539Y21059
X53736Y14819
X54283Y43642
X54291Y39937
X54705Y43634
X54941Y34740
X55165Y43638
X55350Y36000
X55606Y29780
X55622Y43638
X56512Y11925
X56815Y40142
X57217Y40992
X57260Y13579
X57496Y22299
X58283Y27280
X59130Y28520
X59287Y37280
X60154Y19957
X61020Y21039
X61217Y14819
X61693Y40972
X62398Y34740
X62831Y36000
X63087Y29799
X63992Y11925
X64248Y9543
X64740Y13579
X64976Y22299
X65508Y27280
X66610Y28520
X66787Y37240
X67614Y19957
X68500Y21039
X68677Y14819
X69008Y40941
X69740Y34740
X70075Y11925
X70311Y36000
X70567Y29780
X72220Y13579
X72457Y22299
X72555Y33047
X73945Y29787
X74091Y28520
X74248Y37240
X75134Y19957
X75535Y34740
X75866Y41039
X75980Y21039
X76177Y14839
X77327Y34740
X77772Y36000
X78047Y29780
X78953Y12594
X79622Y7358
X79701Y13579
X79937Y22299
X81425Y29787
X81571Y28520
X81728Y37240
X82323Y25024
X82594Y19957
X83035Y34740
X83461Y21039
X83657Y14819
X84171Y41163
X84843Y34740
X85252Y36000
X85528Y29799
X85996Y42303
X86433Y12594
X87181Y13559
X87417Y22319
X88465Y24669
X88638Y29189
X88890Y29783
X89051Y28520
X89228Y37240
X89642Y26177
X90075Y19957
X90236Y40913
X90394Y24945
X90457Y34740
X90512Y41240
X90852Y7358
X90941Y21059
X91138Y14819
X92276Y34740
X92732Y36000
X93008Y29780
X94331Y32358
X94917Y22299
X96350Y29783
X96531Y28520
X96709Y37270
X96787Y12594
X97289Y20528
X97506Y13569
X100222Y7358
X100469Y29780
X101051Y22307
X101264Y31311
X101472Y14839
X102663Y36994
X102963Y22305
X102992Y42031
X103087Y21059
X103844Y37270
X105882Y28520
X107083Y22309
X107112Y12594
X107673Y7358
X107841Y13559
X107978Y37280
X109868Y29780
X111681Y41732
X111797Y14829
X113215Y24209
X113608Y36049
X113687Y24543
X113687Y19514
X113717Y33457
X113850Y12598
X114140Y26620
X114209Y33776
X115179Y7352
X115291Y35970
X115301Y28520
X115301Y21059
X115321Y13589
X116354Y26126
X116366Y18746
X116433Y33618
X118972Y35301
T3
X2348Y42781
X14287Y45990
X98090Y34743
T5
X23228Y44008
X24228Y44008
X25228Y44008
X26228Y44008
T6
X7831Y42565
T7
X72909Y45563
X72909Y44563
X72909Y27563
X72909Y26563
X73909Y45563
X73909Y44563
X73909Y27563
X73909Y26563
X74909Y45563
X74909Y44563
X74909Y27563
X74909Y26563
X75909Y45563
X75909Y44563
X75909Y27563
X75909Y26563
X76909Y45563
X76909Y44563
X76909Y27563
X76909Y26563
X77909Y45563
X77909Y44563
X77909Y27563
X77909Y26563
X78909Y45563
X78909Y44563
X78909Y27563
X78909Y26563
X79909Y45563
X79909Y44563
X79909Y27563
X79909Y26563
X80909Y45563
X80909Y44563
X81909Y45563
X81909Y44563
X81909Y27563
X81909Y26563
X82909Y45563
X82909Y44563
X82909Y27563
X83909Y45563
X83909Y44563
X83909Y27563
X84909Y45563
X84909Y44563
X84909Y27563
X84909Y26563
X85909Y45563
X85909Y44563
X85909Y27563
X85909Y26563
X86909Y45563
X86909Y44563
X86909Y27563
X86909Y26563
X87909Y27563
X88908Y27563
X88908Y26563
X88909Y45563
X88909Y44563
X89909Y45563
X89909Y44563
X90409Y27563
X90409Y26563
X90909Y45563
X90909Y44563
X91409Y27563
X91409Y26563
X91909Y45563
X91909Y44563
X92409Y27563
X92409Y26563
X92909Y45563
X92909Y44563
X93409Y27563
X93409Y26563
X93909Y45563
X93909Y44563
X94409Y27563
X94409Y26563
X94909Y45563
X94909Y44563
X95409Y27563
X95409Y26563
X95909Y45563
X95909Y44563
X96409Y27563
X96409Y26563
X97409Y27563
X97409Y26563
X98409Y27563
X98409Y26563
X99408Y27563
X99408Y26563
T8
X23240Y45094
X24240Y45094
X25240Y45094
X26240Y45094
X39740Y44839
X39740Y43492
X61205Y44165
X62205Y44165
X63205Y44165
X64205Y44165
X65205Y44165
X66205Y44165
X67205Y44165
X68205Y44165
X69205Y44165
X70205Y44165
X71205Y44165
X88051Y42980
X89051Y42980
X90051Y42980
X91051Y42980
X97823Y45677
X98823Y45677
X99823Y45677
X103248Y43063
X104248Y43063
X105248Y43063
X106248Y43063
X107248Y43063
X109870Y45833
X110870Y45833
X111870Y45833
X112870Y45833
X113870Y45833
T9
X3528Y39520
X4449Y9606
X5402Y32043
X6028Y40520
X6323Y24563
X6949Y10606
X7902Y33043
X8200Y17089
X8823Y25563
X10700Y18089
X10992Y39524
X13492Y40524
X13799Y9606
X14744Y32047
X16299Y10606
X16614Y24567
X17244Y33047
X18465Y39531
X19114Y25567
X20370Y17083
X20965Y40531
X22213Y32043
X22870Y18083
X23157Y9602
X24091Y24563
X24713Y33043
X25657Y10602
X25941Y39524
X26591Y25563
X27854Y17087
X28441Y40524
X29705Y32047
X30354Y18087
X31583Y24567
X32205Y33047
X33406Y39524
X34083Y25567
X35323Y17083
X35906Y40524
X37185Y32047
X37823Y18083
X39071Y24567
X39685Y33047
X40886Y39528
X41571Y25567
X42791Y17083
X43386Y40528
X44665Y32047
X45291Y18083
X46551Y24567
X47165Y33047
X48362Y39524
X49051Y25567
X50272Y17083
X50862Y40524
X51248Y9602
X52146Y32047
X52772Y18083
X53748Y10602
X54035Y24567
X54646Y33047
X55843Y39524
X56535Y25567
X57756Y17087
X58343Y40524
X59626Y32047
X60256Y18087
X61516Y24567
X62126Y33047
X63323Y39524
X64016Y25567
X65236Y17087
X65823Y40524
X67106Y32047
X67736Y18087
X68996Y24563
X69606Y33047
X70795Y39524
X71496Y25563
X72717Y17091
X73295Y40524
X74587Y32047
X75217Y18091
X76476Y24567
X77087Y33047
X78268Y39524
X78976Y25567
X80197Y17091
X80287Y9618
X80768Y40524
X82067Y32047
X82697Y18091
X82787Y10618
X83957Y24567
X84567Y33047
X85752Y39524
X86457Y25567
X87677Y17089
X88252Y40524
X89547Y32043
X90177Y18089
X91437Y24571
X91516Y9618
X92047Y33043
X93232Y39524
X93937Y25571
X94016Y10618
X95732Y40524
X97028Y32043
X98008Y17093
X99528Y33043
X100508Y18093
X100870Y9618
X103370Y10618
X103619Y24571
X104468Y39530
X106119Y25571
X106407Y32039
X106968Y40530
X108339Y17098
X108350Y9618
X108907Y33039
X110839Y18098
X110850Y10618
X115789Y39539
X115809Y32049
X115819Y24569
X115827Y17098
X115833Y9612
X118289Y40539
X118309Y33049
X118319Y25569
X118327Y18098
X118333Y10612
T10
X18823Y55228
X18823Y44795
X30634Y55228
X30634Y44795
T11
X3835Y27516
X4898Y44720
X9917Y9179
X58077Y45075
X59228Y9169
X111876Y27486
X113579Y9189
X119425Y44937
T3
X1694Y46088G85X1950Y46088
G05
X1694Y43332G85X1950Y43332
G05
T4
X2885Y45754G85X2885Y45635
G05
X2885Y43785G85X2885Y43667
G05
T0
M30
