G04 #@! TF.FileFunction,Soldermask,Top*
%FSLAX46Y46*%
G04 Gerber Fmt 4.6, Leading zero omitted, Abs format (unit mm)*
G04 Created by KiCad (PCBNEW 4.0.7) date Fri Feb  9 22:51:10 2018*
%MOMM*%
%LPD*%
G01*
G04 APERTURE LIST*
%ADD10C,0.100000*%
%ADD11C,4.464000*%
%ADD12C,1.924000*%
%ADD13C,3.600000*%
%ADD14R,2.127200X2.432000*%
%ADD15O,2.127200X2.432000*%
%ADD16R,1.197560X1.197560*%
%ADD17R,1.300000X0.900000*%
%ADD18C,2.900000*%
%ADD19R,1.150000X1.200000*%
%ADD20O,1.350000X1.650000*%
%ADD21O,1.950000X1.400000*%
%ADD22R,0.900000X0.800000*%
%ADD23R,0.900000X0.700000*%
%ADD24R,1.500000X1.160000*%
%ADD25R,2.635200X2.635200*%
%ADD26R,2.100000X2.100000*%
%ADD27O,2.100000X2.100000*%
%ADD28C,2.100000*%
%ADD29C,2.686000*%
G04 APERTURE END LIST*
D10*
D11*
X147515000Y114490000D03*
D12*
X66620000Y111780000D03*
X64080000Y111780000D03*
X61540000Y111780000D03*
X59000000Y111780000D03*
D13*
X47810000Y113780000D03*
X77810000Y113780000D03*
X47810000Y140280000D03*
X77810000Y140280000D03*
D14*
X253550000Y116020000D03*
D15*
X251010000Y116020000D03*
X248470000Y116020000D03*
D14*
X223650000Y109170000D03*
D15*
X226190000Y109170000D03*
X228730000Y109170000D03*
X231270000Y109170000D03*
D11*
X9740000Y69890000D03*
X284165000Y69815000D03*
X303340000Y114140000D03*
X150440000Y23290000D03*
X288490000Y23340000D03*
X25190000Y23315000D03*
D16*
X247970000Y111391400D03*
X247970000Y112890000D03*
X250220000Y111390000D03*
X250220000Y112888600D03*
X252520000Y111390700D03*
X252520000Y112889300D03*
D17*
X247970000Y108640000D03*
X247970000Y110140000D03*
X250220000Y108640000D03*
X250220000Y110140000D03*
X252520000Y108640000D03*
X252520000Y110140000D03*
D18*
X4515000Y107365000D03*
X36290000Y116815000D03*
D14*
X279070000Y116415000D03*
D15*
X281610000Y116415000D03*
X284150000Y116415000D03*
X286690000Y116415000D03*
X289230000Y116415000D03*
D14*
X155460000Y112180000D03*
D15*
X158000000Y112180000D03*
X160540000Y112180000D03*
X163080000Y112180000D03*
X165620000Y112180000D03*
X168160000Y112180000D03*
X170700000Y112180000D03*
X173240000Y112180000D03*
X175780000Y112180000D03*
X178320000Y112180000D03*
X180860000Y112180000D03*
D11*
X12440000Y113590000D03*
D14*
X272410000Y109380000D03*
D15*
X269870000Y109380000D03*
X267330000Y109380000D03*
X264790000Y109380000D03*
X262250000Y109380000D03*
D19*
X24415000Y112765000D03*
X24415000Y114265000D03*
D18*
X14165000Y109015000D03*
D20*
X7327540Y111064100D03*
X7327540Y116064100D03*
D21*
X4627540Y110064100D03*
X4627540Y117064100D03*
D22*
X82770000Y114960000D03*
D23*
X82770000Y113960000D03*
X82770000Y114460000D03*
D22*
X82770000Y113460000D03*
D23*
X83770000Y114460000D03*
D22*
X83770000Y114960000D03*
D23*
X83770000Y113960000D03*
D22*
X83770000Y113460000D03*
X96250000Y110990000D03*
D23*
X96250000Y111990000D03*
X96250000Y111490000D03*
D22*
X96250000Y112490000D03*
D23*
X95250000Y111490000D03*
D22*
X95250000Y110990000D03*
D23*
X95250000Y111990000D03*
D22*
X95250000Y112490000D03*
D24*
X87110000Y114940000D03*
X87110000Y113670000D03*
X87110000Y112400000D03*
X87110000Y111130000D03*
X91710000Y111130000D03*
X91710000Y112400000D03*
X91710000Y113670000D03*
X91710000Y114940000D03*
D14*
X66650000Y114540000D03*
D15*
X64110000Y114540000D03*
X61570000Y114540000D03*
X59030000Y114540000D03*
D25*
X100940000Y113890000D03*
X100940000Y110470000D03*
D26*
X243610000Y115730000D03*
D27*
X243610000Y113190000D03*
X241070000Y115730000D03*
X241070000Y113190000D03*
X238530000Y115730000D03*
X238530000Y113190000D03*
X235990000Y115730000D03*
X235990000Y113190000D03*
X233450000Y115730000D03*
X233450000Y113190000D03*
X230910000Y115730000D03*
X230910000Y113190000D03*
X228370000Y115730000D03*
X228370000Y113190000D03*
X225830000Y115730000D03*
X225830000Y113190000D03*
X220750000Y115730000D03*
X220750000Y113190000D03*
X218210000Y115730000D03*
X218210000Y113190000D03*
X215670000Y115730000D03*
X215670000Y113190000D03*
X213130000Y115730000D03*
X213130000Y113190000D03*
X210590000Y115730000D03*
X210590000Y113190000D03*
X208050000Y115730000D03*
X208050000Y113190000D03*
X205510000Y115730000D03*
X205510000Y113190000D03*
X202970000Y115730000D03*
X202970000Y113190000D03*
X200430000Y115730000D03*
X200430000Y113190000D03*
X197890000Y115730000D03*
X197890000Y113190000D03*
X195350000Y115730000D03*
X195350000Y113190000D03*
X192810000Y115730000D03*
X192810000Y113190000D03*
X190270000Y115730000D03*
X190270000Y113190000D03*
X187730000Y115730000D03*
X187730000Y113190000D03*
X185190000Y115730000D03*
X185190000Y113190000D03*
X252496158Y70010914D03*
X252496158Y67470000D03*
X190270000Y70010000D03*
X195350000Y70010000D03*
X195350000Y67470000D03*
X192810000Y70010000D03*
X192810000Y67470000D03*
X190270000Y67470000D03*
X208050000Y70010000D03*
X210590000Y70010000D03*
X213130000Y70010000D03*
X208050000Y67470000D03*
X197890000Y70010000D03*
X202970000Y67470000D03*
X200430000Y70010000D03*
X200430000Y67470000D03*
X202970000Y70010000D03*
X197890000Y67470000D03*
X185190000Y67470000D03*
X187730000Y70010000D03*
X185190000Y70010000D03*
X187730000Y67470000D03*
X220750000Y70010000D03*
X220750000Y67470000D03*
X218210000Y70010000D03*
X218210000Y67470000D03*
X215670000Y70010000D03*
X215670000Y67470000D03*
X234720000Y70010000D03*
X239800000Y67470000D03*
X237260000Y70010000D03*
X237260000Y67470000D03*
X239800000Y70010000D03*
X242340000Y67470000D03*
X242340000Y70010000D03*
X234720000Y67470000D03*
X244880000Y70010000D03*
X247420000Y70010000D03*
D28*
X249960000Y70010000D03*
D27*
X249960000Y67470000D03*
X247420000Y67470000D03*
X244880000Y67470000D03*
X223290000Y70010000D03*
X232180000Y70010000D03*
X232180000Y67470000D03*
X229640000Y70010000D03*
X229640000Y67470000D03*
X225826158Y70010000D03*
X225826158Y67470914D03*
D29*
X300565000Y26955000D03*
X294215000Y24415000D03*
X300550000Y45970000D03*
X294200000Y43430000D03*
X300530000Y64945000D03*
X294180000Y62405000D03*
X300505000Y83945000D03*
X294155000Y81405000D03*
X300455000Y102970000D03*
X294105000Y100430000D03*
X262560000Y26970000D03*
X256210000Y24430000D03*
X281530000Y45970000D03*
X275180000Y43430000D03*
X252800000Y83930000D03*
X246450000Y81390000D03*
X229050000Y45945000D03*
X222700000Y43405000D03*
X233800000Y83930000D03*
X227450000Y81390000D03*
X224160000Y102930000D03*
X217810000Y100390000D03*
X210050000Y45950000D03*
X203700000Y43410000D03*
X219600000Y64940000D03*
X213250000Y62400000D03*
X214800000Y83940000D03*
X208450000Y81400000D03*
X205150000Y102930000D03*
X198800000Y100390000D03*
X191050000Y45950000D03*
X184700000Y43410000D03*
X200600000Y64940000D03*
X194250000Y62400000D03*
X186170000Y102930000D03*
X179820000Y100390000D03*
X172050000Y45940000D03*
X165700000Y43400000D03*
X176800000Y83940000D03*
X170450000Y81400000D03*
X153050000Y45940000D03*
X146700000Y43400000D03*
X162600000Y64940000D03*
X156250000Y62400000D03*
X157800000Y83940000D03*
X151450000Y81400000D03*
X134040000Y45930000D03*
X127690000Y43390000D03*
X143600000Y64940000D03*
X137250000Y62400000D03*
X138800000Y83940000D03*
X132450000Y81400000D03*
X129190000Y102930000D03*
X122840000Y100390000D03*
X115040000Y45930000D03*
X108690000Y43390000D03*
X124590000Y64940000D03*
X118240000Y62400000D03*
X119800000Y83940000D03*
X113450000Y81400000D03*
X105590000Y64940000D03*
X99240000Y62400000D03*
X100800000Y83940000D03*
X94450000Y81400000D03*
X77100000Y45940000D03*
X70750000Y43400000D03*
X86570000Y64940000D03*
X80220000Y62400000D03*
X81800000Y83940000D03*
X75450000Y81400000D03*
X72240000Y102930000D03*
X65890000Y100390000D03*
X58090000Y45930000D03*
X51740000Y43390000D03*
X67540000Y64930000D03*
X61190000Y62390000D03*
X62770000Y83930000D03*
X56420000Y81390000D03*
X53250000Y102950000D03*
X46900000Y100410000D03*
X48550000Y64940000D03*
X42200000Y62400000D03*
X15310000Y102920000D03*
X8960000Y100380000D03*
X243160000Y102930000D03*
X236810000Y100390000D03*
X91200000Y102930000D03*
X84850000Y100390000D03*
X34270000Y102930000D03*
X27920000Y100390000D03*
X43800000Y83940000D03*
X37450000Y81400000D03*
X281560000Y26970000D03*
X275210000Y24430000D03*
X181600000Y64930000D03*
X175250000Y62390000D03*
X167190000Y102930000D03*
X160840000Y100390000D03*
X110200000Y102940000D03*
X103850000Y100400000D03*
X195800000Y83940000D03*
X189450000Y81400000D03*
X96070000Y45930000D03*
X89720000Y43390000D03*
X148190000Y102930000D03*
X141840000Y100390000D03*
X238600000Y64950000D03*
X232250000Y62410000D03*
X20070000Y83930000D03*
X13720000Y81390000D03*
X210280000Y26970000D03*
X203930000Y24430000D03*
X276625000Y83920000D03*
X270275000Y81380000D03*
X238800000Y26970000D03*
X232450000Y24430000D03*
X136520000Y26930000D03*
X130170000Y24390000D03*
X65170000Y26930000D03*
X58820000Y24390000D03*
X41400000Y26940000D03*
X35050000Y24400000D03*
X17650000Y26940000D03*
X11300000Y24400000D03*
X22410000Y64930000D03*
X16060000Y62390000D03*
X255290000Y45955000D03*
X248940000Y43415000D03*
X269542000Y64950000D03*
X263192000Y62410000D03*
X27178000Y45945000D03*
X20828000Y43405000D03*
X271698000Y102945000D03*
X265348000Y100405000D03*
M02*
