G04 #@! TF.FileFunction,Legend,Top*
%FSLAX46Y46*%
G04 Gerber Fmt 4.6, Leading zero omitted, Abs format (unit mm)*
G04 Created by KiCad (PCBNEW 4.0.5-e0-6337~49~ubuntu16.04.1) date Tue Jan  3 12:00:36 2017*
%MOMM*%
%LPD*%
G01*
G04 APERTURE LIST*
%ADD10C,0.100000*%
%ADD11C,0.300000*%
%ADD12C,0.150000*%
%ADD13C,0.120000*%
%ADD14C,0.381000*%
%ADD15C,0.203200*%
G04 APERTURE END LIST*
D10*
D11*
X163557143Y-122050000D02*
X164271429Y-122050000D01*
X163414286Y-122478571D02*
X163914286Y-120978571D01*
X164414286Y-122478571D01*
X164914286Y-122478571D02*
X164914286Y-120978571D01*
X164914286Y-121692857D02*
X165771429Y-121692857D01*
X165771429Y-122478571D02*
X165771429Y-120978571D01*
X163485715Y-118978571D02*
X164342858Y-118978571D01*
X163914287Y-120478571D02*
X163914287Y-118978571D01*
X165414286Y-120407143D02*
X165271429Y-120478571D01*
X164985715Y-120478571D01*
X164842858Y-120407143D01*
X164771429Y-120264286D01*
X164771429Y-119692857D01*
X164842858Y-119550000D01*
X164985715Y-119478571D01*
X165271429Y-119478571D01*
X165414286Y-119550000D01*
X165485715Y-119692857D01*
X165485715Y-119835714D01*
X164771429Y-119978571D01*
X166057143Y-120407143D02*
X166200000Y-120478571D01*
X166485715Y-120478571D01*
X166628572Y-120407143D01*
X166700000Y-120264286D01*
X166700000Y-120192857D01*
X166628572Y-120050000D01*
X166485715Y-119978571D01*
X166271429Y-119978571D01*
X166128572Y-119907143D01*
X166057143Y-119764286D01*
X166057143Y-119692857D01*
X166128572Y-119550000D01*
X166271429Y-119478571D01*
X166485715Y-119478571D01*
X166628572Y-119550000D01*
X167128572Y-119478571D02*
X167700001Y-119478571D01*
X167342858Y-118978571D02*
X167342858Y-120264286D01*
X167414286Y-120407143D01*
X167557144Y-120478571D01*
X167700001Y-120478571D01*
X168200001Y-120478571D02*
X168200001Y-118978571D01*
X168771429Y-118978571D01*
X168914287Y-119050000D01*
X168985715Y-119121429D01*
X169057144Y-119264286D01*
X169057144Y-119478571D01*
X168985715Y-119621429D01*
X168914287Y-119692857D01*
X168771429Y-119764286D01*
X168200001Y-119764286D01*
X170342858Y-120478571D02*
X170342858Y-119692857D01*
X170271429Y-119550000D01*
X170128572Y-119478571D01*
X169842858Y-119478571D01*
X169700001Y-119550000D01*
X170342858Y-120407143D02*
X170200001Y-120478571D01*
X169842858Y-120478571D01*
X169700001Y-120407143D01*
X169628572Y-120264286D01*
X169628572Y-120121429D01*
X169700001Y-119978571D01*
X169842858Y-119907143D01*
X170200001Y-119907143D01*
X170342858Y-119835714D01*
X171700001Y-120478571D02*
X171700001Y-118978571D01*
X171700001Y-120407143D02*
X171557144Y-120478571D01*
X171271430Y-120478571D01*
X171128572Y-120407143D01*
X171057144Y-120335714D01*
X170985715Y-120192857D01*
X170985715Y-119764286D01*
X171057144Y-119621429D01*
X171128572Y-119550000D01*
X171271430Y-119478571D01*
X171557144Y-119478571D01*
X171700001Y-119550000D01*
X173342858Y-118978571D02*
X173842858Y-120478571D01*
X174342858Y-118978571D01*
X175628572Y-120478571D02*
X174771429Y-120478571D01*
X175200001Y-120478571D02*
X175200001Y-118978571D01*
X175057144Y-119192857D01*
X174914286Y-119335714D01*
X174771429Y-119407143D01*
X176271429Y-120335714D02*
X176342857Y-120407143D01*
X176271429Y-120478571D01*
X176200000Y-120407143D01*
X176271429Y-120335714D01*
X176271429Y-120478571D01*
X177771429Y-120478571D02*
X176914286Y-120478571D01*
X177342858Y-120478571D02*
X177342858Y-118978571D01*
X177200001Y-119192857D01*
X177057143Y-119335714D01*
X176914286Y-119407143D01*
X176178571Y-44892857D02*
X175464286Y-45392857D01*
X176178571Y-45750000D02*
X174678571Y-45750000D01*
X174678571Y-45178572D01*
X174750000Y-45035714D01*
X174821429Y-44964286D01*
X174964286Y-44892857D01*
X175178571Y-44892857D01*
X175321429Y-44964286D01*
X175392857Y-45035714D01*
X175464286Y-45178572D01*
X175464286Y-45750000D01*
X174678571Y-43964286D02*
X174678571Y-43678572D01*
X174750000Y-43535714D01*
X174892857Y-43392857D01*
X175178571Y-43321429D01*
X175678571Y-43321429D01*
X175964286Y-43392857D01*
X176107143Y-43535714D01*
X176178571Y-43678572D01*
X176178571Y-43964286D01*
X176107143Y-44107143D01*
X175964286Y-44250000D01*
X175678571Y-44321429D01*
X175178571Y-44321429D01*
X174892857Y-44250000D01*
X174750000Y-44107143D01*
X174678571Y-43964286D01*
X174678571Y-42821428D02*
X176178571Y-42464285D01*
X175107143Y-42178571D01*
X176178571Y-41892857D01*
X174678571Y-41535714D01*
X174678571Y-40678571D02*
X174678571Y-40535714D01*
X174750000Y-40392857D01*
X174821429Y-40321428D01*
X174964286Y-40249999D01*
X175250000Y-40178571D01*
X175607143Y-40178571D01*
X175892857Y-40249999D01*
X176035714Y-40321428D01*
X176107143Y-40392857D01*
X176178571Y-40535714D01*
X176178571Y-40678571D01*
X176107143Y-40821428D01*
X176035714Y-40892857D01*
X175892857Y-40964285D01*
X175607143Y-41035714D01*
X175250000Y-41035714D01*
X174964286Y-40964285D01*
X174821429Y-40892857D01*
X174750000Y-40821428D01*
X174678571Y-40678571D01*
X176278571Y-53249999D02*
X175564286Y-53749999D01*
X176278571Y-54107142D02*
X174778571Y-54107142D01*
X174778571Y-53535714D01*
X174850000Y-53392856D01*
X174921429Y-53321428D01*
X175064286Y-53249999D01*
X175278571Y-53249999D01*
X175421429Y-53321428D01*
X175492857Y-53392856D01*
X175564286Y-53535714D01*
X175564286Y-54107142D01*
X174850000Y-51821428D02*
X174778571Y-51964285D01*
X174778571Y-52178571D01*
X174850000Y-52392856D01*
X174992857Y-52535714D01*
X175135714Y-52607142D01*
X175421429Y-52678571D01*
X175635714Y-52678571D01*
X175921429Y-52607142D01*
X176064286Y-52535714D01*
X176207143Y-52392856D01*
X176278571Y-52178571D01*
X176278571Y-52035714D01*
X176207143Y-51821428D01*
X176135714Y-51749999D01*
X175635714Y-51749999D01*
X175635714Y-52035714D01*
X175492857Y-50607142D02*
X175564286Y-50392856D01*
X175635714Y-50321428D01*
X175778571Y-50249999D01*
X175992857Y-50249999D01*
X176135714Y-50321428D01*
X176207143Y-50392856D01*
X176278571Y-50535714D01*
X176278571Y-51107142D01*
X174778571Y-51107142D01*
X174778571Y-50607142D01*
X174850000Y-50464285D01*
X174921429Y-50392856D01*
X175064286Y-50321428D01*
X175207143Y-50321428D01*
X175350000Y-50392856D01*
X175421429Y-50464285D01*
X175492857Y-50607142D01*
X175492857Y-51107142D01*
X174778571Y-49321428D02*
X174778571Y-49178571D01*
X174850000Y-49035714D01*
X174921429Y-48964285D01*
X175064286Y-48892856D01*
X175350000Y-48821428D01*
X175707143Y-48821428D01*
X175992857Y-48892856D01*
X176135714Y-48964285D01*
X176207143Y-49035714D01*
X176278571Y-49178571D01*
X176278571Y-49321428D01*
X176207143Y-49464285D01*
X176135714Y-49535714D01*
X175992857Y-49607142D01*
X175707143Y-49678571D01*
X175350000Y-49678571D01*
X175064286Y-49607142D01*
X174921429Y-49535714D01*
X174850000Y-49464285D01*
X174778571Y-49321428D01*
X176178571Y-62192857D02*
X175464286Y-62692857D01*
X176178571Y-63050000D02*
X174678571Y-63050000D01*
X174678571Y-62478572D01*
X174750000Y-62335714D01*
X174821429Y-62264286D01*
X174964286Y-62192857D01*
X175178571Y-62192857D01*
X175321429Y-62264286D01*
X175392857Y-62335714D01*
X175464286Y-62478572D01*
X175464286Y-63050000D01*
X174678571Y-61264286D02*
X174678571Y-60978572D01*
X174750000Y-60835714D01*
X174892857Y-60692857D01*
X175178571Y-60621429D01*
X175678571Y-60621429D01*
X175964286Y-60692857D01*
X176107143Y-60835714D01*
X176178571Y-60978572D01*
X176178571Y-61264286D01*
X176107143Y-61407143D01*
X175964286Y-61550000D01*
X175678571Y-61621429D01*
X175178571Y-61621429D01*
X174892857Y-61550000D01*
X174750000Y-61407143D01*
X174678571Y-61264286D01*
X174678571Y-60121428D02*
X176178571Y-59764285D01*
X175107143Y-59478571D01*
X176178571Y-59192857D01*
X174678571Y-58835714D01*
X176178571Y-57478571D02*
X176178571Y-58335714D01*
X176178571Y-57907142D02*
X174678571Y-57907142D01*
X174892857Y-58049999D01*
X175035714Y-58192857D01*
X175107143Y-58335714D01*
X176228571Y-71449999D02*
X175514286Y-71949999D01*
X176228571Y-72307142D02*
X174728571Y-72307142D01*
X174728571Y-71735714D01*
X174800000Y-71592856D01*
X174871429Y-71521428D01*
X175014286Y-71449999D01*
X175228571Y-71449999D01*
X175371429Y-71521428D01*
X175442857Y-71592856D01*
X175514286Y-71735714D01*
X175514286Y-72307142D01*
X174800000Y-70021428D02*
X174728571Y-70164285D01*
X174728571Y-70378571D01*
X174800000Y-70592856D01*
X174942857Y-70735714D01*
X175085714Y-70807142D01*
X175371429Y-70878571D01*
X175585714Y-70878571D01*
X175871429Y-70807142D01*
X176014286Y-70735714D01*
X176157143Y-70592856D01*
X176228571Y-70378571D01*
X176228571Y-70235714D01*
X176157143Y-70021428D01*
X176085714Y-69949999D01*
X175585714Y-69949999D01*
X175585714Y-70235714D01*
X175442857Y-68807142D02*
X175514286Y-68592856D01*
X175585714Y-68521428D01*
X175728571Y-68449999D01*
X175942857Y-68449999D01*
X176085714Y-68521428D01*
X176157143Y-68592856D01*
X176228571Y-68735714D01*
X176228571Y-69307142D01*
X174728571Y-69307142D01*
X174728571Y-68807142D01*
X174800000Y-68664285D01*
X174871429Y-68592856D01*
X175014286Y-68521428D01*
X175157143Y-68521428D01*
X175300000Y-68592856D01*
X175371429Y-68664285D01*
X175442857Y-68807142D01*
X175442857Y-69307142D01*
X176228571Y-67021428D02*
X176228571Y-67878571D01*
X176228571Y-67449999D02*
X174728571Y-67449999D01*
X174942857Y-67592856D01*
X175085714Y-67735714D01*
X175157143Y-67878571D01*
X176278571Y-80442857D02*
X175564286Y-80942857D01*
X176278571Y-81300000D02*
X174778571Y-81300000D01*
X174778571Y-80728572D01*
X174850000Y-80585714D01*
X174921429Y-80514286D01*
X175064286Y-80442857D01*
X175278571Y-80442857D01*
X175421429Y-80514286D01*
X175492857Y-80585714D01*
X175564286Y-80728572D01*
X175564286Y-81300000D01*
X174778571Y-79514286D02*
X174778571Y-79228572D01*
X174850000Y-79085714D01*
X174992857Y-78942857D01*
X175278571Y-78871429D01*
X175778571Y-78871429D01*
X176064286Y-78942857D01*
X176207143Y-79085714D01*
X176278571Y-79228572D01*
X176278571Y-79514286D01*
X176207143Y-79657143D01*
X176064286Y-79800000D01*
X175778571Y-79871429D01*
X175278571Y-79871429D01*
X174992857Y-79800000D01*
X174850000Y-79657143D01*
X174778571Y-79514286D01*
X174778571Y-78371428D02*
X176278571Y-78014285D01*
X175207143Y-77728571D01*
X176278571Y-77442857D01*
X174778571Y-77085714D01*
X174921429Y-76585714D02*
X174850000Y-76514285D01*
X174778571Y-76371428D01*
X174778571Y-76014285D01*
X174850000Y-75871428D01*
X174921429Y-75799999D01*
X175064286Y-75728571D01*
X175207143Y-75728571D01*
X175421429Y-75799999D01*
X176278571Y-76657142D01*
X176278571Y-75728571D01*
X176228571Y-92049999D02*
X175514286Y-92549999D01*
X176228571Y-92907142D02*
X174728571Y-92907142D01*
X174728571Y-92335714D01*
X174800000Y-92192856D01*
X174871429Y-92121428D01*
X175014286Y-92049999D01*
X175228571Y-92049999D01*
X175371429Y-92121428D01*
X175442857Y-92192856D01*
X175514286Y-92335714D01*
X175514286Y-92907142D01*
X174800000Y-90621428D02*
X174728571Y-90764285D01*
X174728571Y-90978571D01*
X174800000Y-91192856D01*
X174942857Y-91335714D01*
X175085714Y-91407142D01*
X175371429Y-91478571D01*
X175585714Y-91478571D01*
X175871429Y-91407142D01*
X176014286Y-91335714D01*
X176157143Y-91192856D01*
X176228571Y-90978571D01*
X176228571Y-90835714D01*
X176157143Y-90621428D01*
X176085714Y-90549999D01*
X175585714Y-90549999D01*
X175585714Y-90835714D01*
X175442857Y-89407142D02*
X175514286Y-89192856D01*
X175585714Y-89121428D01*
X175728571Y-89049999D01*
X175942857Y-89049999D01*
X176085714Y-89121428D01*
X176157143Y-89192856D01*
X176228571Y-89335714D01*
X176228571Y-89907142D01*
X174728571Y-89907142D01*
X174728571Y-89407142D01*
X174800000Y-89264285D01*
X174871429Y-89192856D01*
X175014286Y-89121428D01*
X175157143Y-89121428D01*
X175300000Y-89192856D01*
X175371429Y-89264285D01*
X175442857Y-89407142D01*
X175442857Y-89907142D01*
X174871429Y-88478571D02*
X174800000Y-88407142D01*
X174728571Y-88264285D01*
X174728571Y-87907142D01*
X174800000Y-87764285D01*
X174871429Y-87692856D01*
X175014286Y-87621428D01*
X175157143Y-87621428D01*
X175371429Y-87692856D01*
X176228571Y-88549999D01*
X176228571Y-87621428D01*
X131957143Y-118135714D02*
X131885714Y-118207143D01*
X131671428Y-118278571D01*
X131528571Y-118278571D01*
X131314286Y-118207143D01*
X131171428Y-118064286D01*
X131100000Y-117921429D01*
X131028571Y-117635714D01*
X131028571Y-117421429D01*
X131100000Y-117135714D01*
X131171428Y-116992857D01*
X131314286Y-116850000D01*
X131528571Y-116778571D01*
X131671428Y-116778571D01*
X131885714Y-116850000D01*
X131957143Y-116921429D01*
X132885714Y-116778571D02*
X133171428Y-116778571D01*
X133314286Y-116850000D01*
X133457143Y-116992857D01*
X133528571Y-117278571D01*
X133528571Y-117778571D01*
X133457143Y-118064286D01*
X133314286Y-118207143D01*
X133171428Y-118278571D01*
X132885714Y-118278571D01*
X132742857Y-118207143D01*
X132600000Y-118064286D01*
X132528571Y-117778571D01*
X132528571Y-117278571D01*
X132600000Y-116992857D01*
X132742857Y-116850000D01*
X132885714Y-116778571D01*
X134885715Y-118278571D02*
X134171429Y-118278571D01*
X134171429Y-116778571D01*
X136171429Y-118278571D02*
X135314286Y-118278571D01*
X135742858Y-118278571D02*
X135742858Y-116778571D01*
X135600001Y-116992857D01*
X135457143Y-117135714D01*
X135314286Y-117207143D01*
X143900001Y-118378571D02*
X143400001Y-117664286D01*
X143042858Y-118378571D02*
X143042858Y-116878571D01*
X143614286Y-116878571D01*
X143757144Y-116950000D01*
X143828572Y-117021429D01*
X143900001Y-117164286D01*
X143900001Y-117378571D01*
X143828572Y-117521429D01*
X143757144Y-117592857D01*
X143614286Y-117664286D01*
X143042858Y-117664286D01*
X145328572Y-116950000D02*
X145185715Y-116878571D01*
X144971429Y-116878571D01*
X144757144Y-116950000D01*
X144614286Y-117092857D01*
X144542858Y-117235714D01*
X144471429Y-117521429D01*
X144471429Y-117735714D01*
X144542858Y-118021429D01*
X144614286Y-118164286D01*
X144757144Y-118307143D01*
X144971429Y-118378571D01*
X145114286Y-118378571D01*
X145328572Y-118307143D01*
X145400001Y-118235714D01*
X145400001Y-117735714D01*
X145114286Y-117735714D01*
X146542858Y-117592857D02*
X146757144Y-117664286D01*
X146828572Y-117735714D01*
X146900001Y-117878571D01*
X146900001Y-118092857D01*
X146828572Y-118235714D01*
X146757144Y-118307143D01*
X146614286Y-118378571D01*
X146042858Y-118378571D01*
X146042858Y-116878571D01*
X146542858Y-116878571D01*
X146685715Y-116950000D01*
X146757144Y-117021429D01*
X146828572Y-117164286D01*
X146828572Y-117307143D01*
X146757144Y-117450000D01*
X146685715Y-117521429D01*
X146542858Y-117592857D01*
X146042858Y-117592857D01*
X147400001Y-116878571D02*
X148328572Y-116878571D01*
X147828572Y-117450000D01*
X148042858Y-117450000D01*
X148185715Y-117521429D01*
X148257144Y-117592857D01*
X148328572Y-117735714D01*
X148328572Y-118092857D01*
X148257144Y-118235714D01*
X148185715Y-118307143D01*
X148042858Y-118378571D01*
X147614286Y-118378571D01*
X147471429Y-118307143D01*
X147400001Y-118235714D01*
X158657143Y-116035714D02*
X158585714Y-116107143D01*
X158371428Y-116178571D01*
X158228571Y-116178571D01*
X158014286Y-116107143D01*
X157871428Y-115964286D01*
X157800000Y-115821429D01*
X157728571Y-115535714D01*
X157728571Y-115321429D01*
X157800000Y-115035714D01*
X157871428Y-114892857D01*
X158014286Y-114750000D01*
X158228571Y-114678571D01*
X158371428Y-114678571D01*
X158585714Y-114750000D01*
X158657143Y-114821429D01*
X159585714Y-114678571D02*
X159871428Y-114678571D01*
X160014286Y-114750000D01*
X160157143Y-114892857D01*
X160228571Y-115178571D01*
X160228571Y-115678571D01*
X160157143Y-115964286D01*
X160014286Y-116107143D01*
X159871428Y-116178571D01*
X159585714Y-116178571D01*
X159442857Y-116107143D01*
X159300000Y-115964286D01*
X159228571Y-115678571D01*
X159228571Y-115178571D01*
X159300000Y-114892857D01*
X159442857Y-114750000D01*
X159585714Y-114678571D01*
X161585715Y-116178571D02*
X160871429Y-116178571D01*
X160871429Y-114678571D01*
X162014286Y-114821429D02*
X162085715Y-114750000D01*
X162228572Y-114678571D01*
X162585715Y-114678571D01*
X162728572Y-114750000D01*
X162800001Y-114821429D01*
X162871429Y-114964286D01*
X162871429Y-115107143D01*
X162800001Y-115321429D01*
X161942858Y-116178571D01*
X162871429Y-116178571D01*
X170207143Y-115000000D02*
X170064286Y-114928571D01*
X169850000Y-114928571D01*
X169635715Y-115000000D01*
X169492857Y-115142857D01*
X169421429Y-115285714D01*
X169350000Y-115571429D01*
X169350000Y-115785714D01*
X169421429Y-116071429D01*
X169492857Y-116214286D01*
X169635715Y-116357143D01*
X169850000Y-116428571D01*
X169992857Y-116428571D01*
X170207143Y-116357143D01*
X170278572Y-116285714D01*
X170278572Y-115785714D01*
X169992857Y-115785714D01*
X170921429Y-116428571D02*
X170921429Y-114928571D01*
X171778572Y-116428571D01*
X171778572Y-114928571D01*
X172492858Y-116428571D02*
X172492858Y-114928571D01*
X172850001Y-114928571D01*
X173064286Y-115000000D01*
X173207144Y-115142857D01*
X173278572Y-115285714D01*
X173350001Y-115571429D01*
X173350001Y-115785714D01*
X173278572Y-116071429D01*
X173207144Y-116214286D01*
X173064286Y-116357143D01*
X172850001Y-116428571D01*
X172492858Y-116428571D01*
X177214287Y-114978571D02*
X176500001Y-114978571D01*
X176428572Y-115692857D01*
X176500001Y-115621429D01*
X176642858Y-115550000D01*
X177000001Y-115550000D01*
X177142858Y-115621429D01*
X177214287Y-115692857D01*
X177285715Y-115835714D01*
X177285715Y-116192857D01*
X177214287Y-116335714D01*
X177142858Y-116407143D01*
X177000001Y-116478571D01*
X176642858Y-116478571D01*
X176500001Y-116407143D01*
X176428572Y-116335714D01*
X177714286Y-114978571D02*
X178214286Y-116478571D01*
X178714286Y-114978571D01*
X156707143Y-104678571D02*
X156207143Y-103964286D01*
X155850000Y-104678571D02*
X155850000Y-103178571D01*
X156421428Y-103178571D01*
X156564286Y-103250000D01*
X156635714Y-103321429D01*
X156707143Y-103464286D01*
X156707143Y-103678571D01*
X156635714Y-103821429D01*
X156564286Y-103892857D01*
X156421428Y-103964286D01*
X155850000Y-103964286D01*
X157635714Y-103178571D02*
X157921428Y-103178571D01*
X158064286Y-103250000D01*
X158207143Y-103392857D01*
X158278571Y-103678571D01*
X158278571Y-104178571D01*
X158207143Y-104464286D01*
X158064286Y-104607143D01*
X157921428Y-104678571D01*
X157635714Y-104678571D01*
X157492857Y-104607143D01*
X157350000Y-104464286D01*
X157278571Y-104178571D01*
X157278571Y-103678571D01*
X157350000Y-103392857D01*
X157492857Y-103250000D01*
X157635714Y-103178571D01*
X158778572Y-103178571D02*
X159135715Y-104678571D01*
X159421429Y-103607143D01*
X159707143Y-104678571D01*
X160064286Y-103178571D01*
X160492858Y-103178571D02*
X161421429Y-103178571D01*
X160921429Y-103750000D01*
X161135715Y-103750000D01*
X161278572Y-103821429D01*
X161350001Y-103892857D01*
X161421429Y-104035714D01*
X161421429Y-104392857D01*
X161350001Y-104535714D01*
X161278572Y-104607143D01*
X161135715Y-104678571D01*
X160707143Y-104678571D01*
X160564286Y-104607143D01*
X160492858Y-104535714D01*
X175021429Y-105578571D02*
X174307143Y-105578571D01*
X174307143Y-104078571D01*
X175521429Y-104792857D02*
X176021429Y-104792857D01*
X176235715Y-105578571D02*
X175521429Y-105578571D01*
X175521429Y-104078571D01*
X176235715Y-104078571D01*
X176878572Y-105578571D02*
X176878572Y-104078571D01*
X177235715Y-104078571D01*
X177450000Y-104150000D01*
X177592858Y-104292857D01*
X177664286Y-104435714D01*
X177735715Y-104721429D01*
X177735715Y-104935714D01*
X177664286Y-105221429D01*
X177592858Y-105364286D01*
X177450000Y-105507143D01*
X177235715Y-105578571D01*
X176878572Y-105578571D01*
X178235715Y-104078571D02*
X179164286Y-104078571D01*
X178664286Y-104650000D01*
X178878572Y-104650000D01*
X179021429Y-104721429D01*
X179092858Y-104792857D01*
X179164286Y-104935714D01*
X179164286Y-105292857D01*
X179092858Y-105435714D01*
X179021429Y-105507143D01*
X178878572Y-105578571D01*
X178450000Y-105578571D01*
X178307143Y-105507143D01*
X178235715Y-105435714D01*
X163521429Y-99578571D02*
X162807143Y-99578571D01*
X162807143Y-98078571D01*
X164021429Y-98792857D02*
X164521429Y-98792857D01*
X164735715Y-99578571D02*
X164021429Y-99578571D01*
X164021429Y-98078571D01*
X164735715Y-98078571D01*
X165378572Y-99578571D02*
X165378572Y-98078571D01*
X165735715Y-98078571D01*
X165950000Y-98150000D01*
X166092858Y-98292857D01*
X166164286Y-98435714D01*
X166235715Y-98721429D01*
X166235715Y-98935714D01*
X166164286Y-99221429D01*
X166092858Y-99364286D01*
X165950000Y-99507143D01*
X165735715Y-99578571D01*
X165378572Y-99578571D01*
X167664286Y-99578571D02*
X166807143Y-99578571D01*
X167235715Y-99578571D02*
X167235715Y-98078571D01*
X167092858Y-98292857D01*
X166950000Y-98435714D01*
X166807143Y-98507143D01*
X171121429Y-99578571D02*
X170407143Y-99578571D01*
X170407143Y-98078571D01*
X171621429Y-98792857D02*
X172121429Y-98792857D01*
X172335715Y-99578571D02*
X171621429Y-99578571D01*
X171621429Y-98078571D01*
X172335715Y-98078571D01*
X172978572Y-99578571D02*
X172978572Y-98078571D01*
X173335715Y-98078571D01*
X173550000Y-98150000D01*
X173692858Y-98292857D01*
X173764286Y-98435714D01*
X173835715Y-98721429D01*
X173835715Y-98935714D01*
X173764286Y-99221429D01*
X173692858Y-99364286D01*
X173550000Y-99507143D01*
X173335715Y-99578571D01*
X172978572Y-99578571D01*
X174407143Y-98221429D02*
X174478572Y-98150000D01*
X174621429Y-98078571D01*
X174978572Y-98078571D01*
X175121429Y-98150000D01*
X175192858Y-98221429D01*
X175264286Y-98364286D01*
X175264286Y-98507143D01*
X175192858Y-98721429D01*
X174335715Y-99578571D01*
X175264286Y-99578571D01*
X120957143Y-99335714D02*
X120885714Y-99407143D01*
X120671428Y-99478571D01*
X120528571Y-99478571D01*
X120314286Y-99407143D01*
X120171428Y-99264286D01*
X120100000Y-99121429D01*
X120028571Y-98835714D01*
X120028571Y-98621429D01*
X120100000Y-98335714D01*
X120171428Y-98192857D01*
X120314286Y-98050000D01*
X120528571Y-97978571D01*
X120671428Y-97978571D01*
X120885714Y-98050000D01*
X120957143Y-98121429D01*
X121885714Y-97978571D02*
X122171428Y-97978571D01*
X122314286Y-98050000D01*
X122457143Y-98192857D01*
X122528571Y-98478571D01*
X122528571Y-98978571D01*
X122457143Y-99264286D01*
X122314286Y-99407143D01*
X122171428Y-99478571D01*
X121885714Y-99478571D01*
X121742857Y-99407143D01*
X121600000Y-99264286D01*
X121528571Y-98978571D01*
X121528571Y-98478571D01*
X121600000Y-98192857D01*
X121742857Y-98050000D01*
X121885714Y-97978571D01*
X123885715Y-99478571D02*
X123171429Y-99478571D01*
X123171429Y-97978571D01*
X124671429Y-97978571D02*
X124814286Y-97978571D01*
X124957143Y-98050000D01*
X125028572Y-98121429D01*
X125100001Y-98264286D01*
X125171429Y-98550000D01*
X125171429Y-98907143D01*
X125100001Y-99192857D01*
X125028572Y-99335714D01*
X124957143Y-99407143D01*
X124814286Y-99478571D01*
X124671429Y-99478571D01*
X124528572Y-99407143D01*
X124457143Y-99335714D01*
X124385715Y-99192857D01*
X124314286Y-98907143D01*
X124314286Y-98550000D01*
X124385715Y-98264286D01*
X124457143Y-98121429D01*
X124528572Y-98050000D01*
X124671429Y-97978571D01*
X130814286Y-112478571D02*
X131314286Y-113978571D01*
X131814286Y-112478571D01*
X132528572Y-113978571D02*
X132385714Y-113907143D01*
X132314286Y-113835714D01*
X132242857Y-113692857D01*
X132242857Y-113264286D01*
X132314286Y-113121429D01*
X132385714Y-113050000D01*
X132528572Y-112978571D01*
X132742857Y-112978571D01*
X132885714Y-113050000D01*
X132957143Y-113121429D01*
X133028572Y-113264286D01*
X133028572Y-113692857D01*
X132957143Y-113835714D01*
X132885714Y-113907143D01*
X132742857Y-113978571D01*
X132528572Y-113978571D01*
X134314286Y-112978571D02*
X134314286Y-113978571D01*
X133671429Y-112978571D02*
X133671429Y-113764286D01*
X133742857Y-113907143D01*
X133885715Y-113978571D01*
X134100000Y-113978571D01*
X134242857Y-113907143D01*
X134314286Y-113835714D01*
X134814286Y-112978571D02*
X135385715Y-112978571D01*
X135028572Y-112478571D02*
X135028572Y-113764286D01*
X135100000Y-113907143D01*
X135242858Y-113978571D01*
X135385715Y-113978571D01*
X128364286Y-109578571D02*
X128864286Y-111078571D01*
X129364286Y-109578571D01*
X129864286Y-111078571D02*
X129864286Y-110078571D01*
X129864286Y-109578571D02*
X129792857Y-109650000D01*
X129864286Y-109721429D01*
X129935714Y-109650000D01*
X129864286Y-109578571D01*
X129864286Y-109721429D01*
X130578572Y-110078571D02*
X130578572Y-111078571D01*
X130578572Y-110221429D02*
X130650000Y-110150000D01*
X130792858Y-110078571D01*
X131007143Y-110078571D01*
X131150000Y-110150000D01*
X131221429Y-110292857D01*
X131221429Y-111078571D01*
D12*
X164875000Y-104300000D02*
X164875000Y-105300000D01*
X163525000Y-105300000D02*
X163525000Y-104300000D01*
X120500000Y-107150000D02*
X120500000Y-106450000D01*
X121700000Y-106450000D02*
X121700000Y-107150000D01*
X121700000Y-102750000D02*
X121700000Y-103450000D01*
X120500000Y-103450000D02*
X120500000Y-102750000D01*
X119500000Y-51000000D02*
X119500000Y-48000000D01*
X117700000Y-51000000D02*
X117700000Y-48000000D01*
X119500000Y-70000000D02*
X119500000Y-67000000D01*
X117700000Y-70000000D02*
X117700000Y-67000000D01*
X119500000Y-89000000D02*
X119500000Y-86000000D01*
X117700000Y-89000000D02*
X117700000Y-86000000D01*
X138500000Y-51000000D02*
X138500000Y-48000000D01*
X136700000Y-51000000D02*
X136700000Y-48000000D01*
X138500000Y-70000000D02*
X138500000Y-67000000D01*
X136700000Y-70000000D02*
X136700000Y-67000000D01*
X138500000Y-89000000D02*
X138500000Y-86000000D01*
X136700000Y-89000000D02*
X136700000Y-86000000D01*
X138500000Y-108000000D02*
X138500000Y-105000000D01*
X136700000Y-108000000D02*
X136700000Y-105000000D01*
X157500000Y-51000000D02*
X157500000Y-48000000D01*
X155700000Y-51000000D02*
X155700000Y-48000000D01*
X157500000Y-70000000D02*
X157500000Y-67000000D01*
X155700000Y-70000000D02*
X155700000Y-67000000D01*
X157500000Y-89000000D02*
X157500000Y-86000000D01*
X155700000Y-89000000D02*
X155700000Y-86000000D01*
D13*
X164700000Y-100600000D02*
X163700000Y-100600000D01*
X163700000Y-100600000D02*
X163700000Y-102700000D01*
X164700000Y-100600000D02*
X164700000Y-102700000D01*
X167800000Y-100500000D02*
X166800000Y-100500000D01*
X166800000Y-100500000D02*
X166800000Y-102600000D01*
X167800000Y-100500000D02*
X167800000Y-102600000D01*
X170900000Y-100500000D02*
X169900000Y-100500000D01*
X169900000Y-100500000D02*
X169900000Y-102600000D01*
X170900000Y-100500000D02*
X170900000Y-102600000D01*
X132110000Y-108510000D02*
X132110000Y-107250000D01*
X132110000Y-101690000D02*
X132110000Y-102950000D01*
X128350000Y-108510000D02*
X132110000Y-108510000D01*
X126100000Y-101690000D02*
X132110000Y-101690000D01*
D12*
X167975000Y-104300000D02*
X167975000Y-105300000D01*
X166625000Y-105300000D02*
X166625000Y-104300000D01*
X171075000Y-104300000D02*
X171075000Y-105300000D01*
X169725000Y-105300000D02*
X169725000Y-104300000D01*
X129200000Y-99825000D02*
X130200000Y-99825000D01*
X130200000Y-101175000D02*
X129200000Y-101175000D01*
X126350000Y-99825000D02*
X127350000Y-99825000D01*
X127350000Y-101175000D02*
X126350000Y-101175000D01*
D13*
X158970000Y-114240000D02*
X176870000Y-114240000D01*
X176870000Y-114240000D02*
X176870000Y-108920000D01*
X176870000Y-108920000D02*
X156310000Y-108920000D01*
X156310000Y-108920000D02*
X156310000Y-111580000D01*
X156310000Y-111580000D02*
X158970000Y-111580000D01*
X158970000Y-111580000D02*
X158970000Y-114240000D01*
X157700000Y-114240000D02*
X156310000Y-114240000D01*
X156310000Y-114240000D02*
X156310000Y-112850000D01*
X122260000Y-108730000D02*
X122260000Y-111390000D01*
X122260000Y-111390000D02*
X125040000Y-111390000D01*
X125040000Y-111390000D02*
X125040000Y-108730000D01*
X125040000Y-108730000D02*
X122260000Y-108730000D01*
X122260000Y-107460000D02*
X122260000Y-106070000D01*
X122260000Y-106070000D02*
X123650000Y-106070000D01*
X122260000Y-102830000D02*
X122260000Y-105490000D01*
X122260000Y-105490000D02*
X125040000Y-105490000D01*
X125040000Y-105490000D02*
X125040000Y-102830000D01*
X125040000Y-102830000D02*
X122260000Y-102830000D01*
X122260000Y-101560000D02*
X122260000Y-100170000D01*
X122260000Y-100170000D02*
X123650000Y-100170000D01*
X116486000Y-37300000D02*
G75*
G03X116486000Y-37300000I-2286000J0D01*
G01*
X116486000Y-119800000D02*
G75*
G03X116486000Y-119800000I-2286000J0D01*
G01*
X183986000Y-119800000D02*
G75*
G03X183986000Y-119800000I-2286000J0D01*
G01*
X183986000Y-37300000D02*
G75*
G03X183986000Y-37300000I-2286000J0D01*
G01*
D14*
X158450000Y-62550000D02*
X160228000Y-62550000D01*
X169372000Y-62550000D02*
X171150000Y-62550000D01*
X171150000Y-62550000D02*
X171150000Y-64328000D01*
X171150000Y-73472000D02*
X171150000Y-75250000D01*
X171150000Y-75250000D02*
X169372000Y-75250000D01*
X160228000Y-75250000D02*
X158450000Y-75250000D01*
X158450000Y-75250000D02*
X158450000Y-73472000D01*
X158450000Y-64328000D02*
X158450000Y-62550000D01*
X139450000Y-62550000D02*
X141228000Y-62550000D01*
X150372000Y-62550000D02*
X152150000Y-62550000D01*
X152150000Y-62550000D02*
X152150000Y-64328000D01*
X152150000Y-73472000D02*
X152150000Y-75250000D01*
X152150000Y-75250000D02*
X150372000Y-75250000D01*
X141228000Y-75250000D02*
X139450000Y-75250000D01*
X139450000Y-75250000D02*
X139450000Y-73472000D01*
X139450000Y-64328000D02*
X139450000Y-62550000D01*
X120450000Y-62550000D02*
X122228000Y-62550000D01*
X131372000Y-62550000D02*
X133150000Y-62550000D01*
X133150000Y-62550000D02*
X133150000Y-64328000D01*
X133150000Y-73472000D02*
X133150000Y-75250000D01*
X133150000Y-75250000D02*
X131372000Y-75250000D01*
X122228000Y-75250000D02*
X120450000Y-75250000D01*
X120450000Y-75250000D02*
X120450000Y-73472000D01*
X120450000Y-64328000D02*
X120450000Y-62550000D01*
X120450000Y-43550000D02*
X122228000Y-43550000D01*
X131372000Y-43550000D02*
X133150000Y-43550000D01*
X133150000Y-43550000D02*
X133150000Y-45328000D01*
X133150000Y-54472000D02*
X133150000Y-56250000D01*
X133150000Y-56250000D02*
X131372000Y-56250000D01*
X122228000Y-56250000D02*
X120450000Y-56250000D01*
X120450000Y-56250000D02*
X120450000Y-54472000D01*
X120450000Y-45328000D02*
X120450000Y-43550000D01*
X139450000Y-43550000D02*
X141228000Y-43550000D01*
X150372000Y-43550000D02*
X152150000Y-43550000D01*
X152150000Y-43550000D02*
X152150000Y-45328000D01*
X152150000Y-54472000D02*
X152150000Y-56250000D01*
X152150000Y-56250000D02*
X150372000Y-56250000D01*
X141228000Y-56250000D02*
X139450000Y-56250000D01*
X139450000Y-56250000D02*
X139450000Y-54472000D01*
X139450000Y-45328000D02*
X139450000Y-43550000D01*
X158450000Y-43550000D02*
X160228000Y-43550000D01*
X169372000Y-43550000D02*
X171150000Y-43550000D01*
X171150000Y-43550000D02*
X171150000Y-45328000D01*
X171150000Y-54472000D02*
X171150000Y-56250000D01*
X171150000Y-56250000D02*
X169372000Y-56250000D01*
X160228000Y-56250000D02*
X158450000Y-56250000D01*
X158450000Y-56250000D02*
X158450000Y-54472000D01*
X158450000Y-45328000D02*
X158450000Y-43550000D01*
X158450000Y-81550000D02*
X160228000Y-81550000D01*
X169372000Y-81550000D02*
X171150000Y-81550000D01*
X171150000Y-81550000D02*
X171150000Y-83328000D01*
X171150000Y-92472000D02*
X171150000Y-94250000D01*
X171150000Y-94250000D02*
X169372000Y-94250000D01*
X160228000Y-94250000D02*
X158450000Y-94250000D01*
X158450000Y-94250000D02*
X158450000Y-92472000D01*
X158450000Y-83328000D02*
X158450000Y-81550000D01*
X139450000Y-81550000D02*
X141228000Y-81550000D01*
X150372000Y-81550000D02*
X152150000Y-81550000D01*
X152150000Y-81550000D02*
X152150000Y-83328000D01*
X152150000Y-92472000D02*
X152150000Y-94250000D01*
X152150000Y-94250000D02*
X150372000Y-94250000D01*
X141228000Y-94250000D02*
X139450000Y-94250000D01*
X139450000Y-94250000D02*
X139450000Y-92472000D01*
X139450000Y-83328000D02*
X139450000Y-81550000D01*
X120450000Y-81550000D02*
X122228000Y-81550000D01*
X131372000Y-81550000D02*
X133150000Y-81550000D01*
X133150000Y-81550000D02*
X133150000Y-83328000D01*
X133150000Y-92472000D02*
X133150000Y-94250000D01*
X133150000Y-94250000D02*
X131372000Y-94250000D01*
X122228000Y-94250000D02*
X120450000Y-94250000D01*
X120450000Y-94250000D02*
X120450000Y-92472000D01*
X120450000Y-83328000D02*
X120450000Y-81550000D01*
X139450000Y-100550000D02*
X141228000Y-100550000D01*
X150372000Y-100550000D02*
X152150000Y-100550000D01*
X152150000Y-100550000D02*
X152150000Y-102328000D01*
X152150000Y-111472000D02*
X152150000Y-113250000D01*
X152150000Y-113250000D02*
X150372000Y-113250000D01*
X141228000Y-113250000D02*
X139450000Y-113250000D01*
X139450000Y-113250000D02*
X139450000Y-111472000D01*
X139450000Y-102328000D02*
X139450000Y-100550000D01*
D12*
X163152381Y-104966666D02*
X162676190Y-105300000D01*
X163152381Y-105538095D02*
X162152381Y-105538095D01*
X162152381Y-105157142D01*
X162200000Y-105061904D01*
X162247619Y-105014285D01*
X162342857Y-104966666D01*
X162485714Y-104966666D01*
X162580952Y-105014285D01*
X162628571Y-105061904D01*
X162676190Y-105157142D01*
X162676190Y-105538095D01*
X163152381Y-104014285D02*
X163152381Y-104585714D01*
X163152381Y-104300000D02*
X162152381Y-104300000D01*
X162295238Y-104395238D01*
X162390476Y-104490476D01*
X162438095Y-104585714D01*
X119657143Y-107442857D02*
X119704762Y-107490476D01*
X119752381Y-107633333D01*
X119752381Y-107728571D01*
X119704762Y-107871429D01*
X119609524Y-107966667D01*
X119514286Y-108014286D01*
X119323810Y-108061905D01*
X119180952Y-108061905D01*
X118990476Y-108014286D01*
X118895238Y-107966667D01*
X118800000Y-107871429D01*
X118752381Y-107728571D01*
X118752381Y-107633333D01*
X118800000Y-107490476D01*
X118847619Y-107442857D01*
X119752381Y-106490476D02*
X119752381Y-107061905D01*
X119752381Y-106776191D02*
X118752381Y-106776191D01*
X118895238Y-106871429D01*
X118990476Y-106966667D01*
X119038095Y-107061905D01*
X119752381Y-105538095D02*
X119752381Y-106109524D01*
X119752381Y-105823810D02*
X118752381Y-105823810D01*
X118895238Y-105919048D01*
X118990476Y-106014286D01*
X119038095Y-106109524D01*
X119657143Y-103842857D02*
X119704762Y-103890476D01*
X119752381Y-104033333D01*
X119752381Y-104128571D01*
X119704762Y-104271429D01*
X119609524Y-104366667D01*
X119514286Y-104414286D01*
X119323810Y-104461905D01*
X119180952Y-104461905D01*
X118990476Y-104414286D01*
X118895238Y-104366667D01*
X118800000Y-104271429D01*
X118752381Y-104128571D01*
X118752381Y-104033333D01*
X118800000Y-103890476D01*
X118847619Y-103842857D01*
X119752381Y-102890476D02*
X119752381Y-103461905D01*
X119752381Y-103176191D02*
X118752381Y-103176191D01*
X118895238Y-103271429D01*
X118990476Y-103366667D01*
X119038095Y-103461905D01*
X118752381Y-102557143D02*
X118752381Y-101938095D01*
X119133333Y-102271429D01*
X119133333Y-102128571D01*
X119180952Y-102033333D01*
X119228571Y-101985714D01*
X119323810Y-101938095D01*
X119561905Y-101938095D01*
X119657143Y-101985714D01*
X119704762Y-102033333D01*
X119752381Y-102128571D01*
X119752381Y-102414286D01*
X119704762Y-102509524D01*
X119657143Y-102557143D01*
X119052381Y-46188095D02*
X118052381Y-46188095D01*
X118052381Y-45950000D01*
X118100000Y-45807142D01*
X118195238Y-45711904D01*
X118290476Y-45664285D01*
X118480952Y-45616666D01*
X118623810Y-45616666D01*
X118814286Y-45664285D01*
X118909524Y-45711904D01*
X119004762Y-45807142D01*
X119052381Y-45950000D01*
X119052381Y-46188095D01*
X119052381Y-44664285D02*
X119052381Y-45235714D01*
X119052381Y-44950000D02*
X118052381Y-44950000D01*
X118195238Y-45045238D01*
X118290476Y-45140476D01*
X118338095Y-45235714D01*
X119052381Y-65338095D02*
X118052381Y-65338095D01*
X118052381Y-65100000D01*
X118100000Y-64957142D01*
X118195238Y-64861904D01*
X118290476Y-64814285D01*
X118480952Y-64766666D01*
X118623810Y-64766666D01*
X118814286Y-64814285D01*
X118909524Y-64861904D01*
X119004762Y-64957142D01*
X119052381Y-65100000D01*
X119052381Y-65338095D01*
X118147619Y-64385714D02*
X118100000Y-64338095D01*
X118052381Y-64242857D01*
X118052381Y-64004761D01*
X118100000Y-63909523D01*
X118147619Y-63861904D01*
X118242857Y-63814285D01*
X118338095Y-63814285D01*
X118480952Y-63861904D01*
X119052381Y-64433333D01*
X119052381Y-63814285D01*
X119052381Y-84238095D02*
X118052381Y-84238095D01*
X118052381Y-84000000D01*
X118100000Y-83857142D01*
X118195238Y-83761904D01*
X118290476Y-83714285D01*
X118480952Y-83666666D01*
X118623810Y-83666666D01*
X118814286Y-83714285D01*
X118909524Y-83761904D01*
X119004762Y-83857142D01*
X119052381Y-84000000D01*
X119052381Y-84238095D01*
X118052381Y-83333333D02*
X118052381Y-82714285D01*
X118433333Y-83047619D01*
X118433333Y-82904761D01*
X118480952Y-82809523D01*
X118528571Y-82761904D01*
X118623810Y-82714285D01*
X118861905Y-82714285D01*
X118957143Y-82761904D01*
X119004762Y-82809523D01*
X119052381Y-82904761D01*
X119052381Y-83190476D01*
X119004762Y-83285714D01*
X118957143Y-83333333D01*
X138102381Y-46238095D02*
X137102381Y-46238095D01*
X137102381Y-46000000D01*
X137150000Y-45857142D01*
X137245238Y-45761904D01*
X137340476Y-45714285D01*
X137530952Y-45666666D01*
X137673810Y-45666666D01*
X137864286Y-45714285D01*
X137959524Y-45761904D01*
X138054762Y-45857142D01*
X138102381Y-46000000D01*
X138102381Y-46238095D01*
X137435714Y-44809523D02*
X138102381Y-44809523D01*
X137054762Y-45047619D02*
X137769048Y-45285714D01*
X137769048Y-44666666D01*
X138002381Y-65238095D02*
X137002381Y-65238095D01*
X137002381Y-65000000D01*
X137050000Y-64857142D01*
X137145238Y-64761904D01*
X137240476Y-64714285D01*
X137430952Y-64666666D01*
X137573810Y-64666666D01*
X137764286Y-64714285D01*
X137859524Y-64761904D01*
X137954762Y-64857142D01*
X138002381Y-65000000D01*
X138002381Y-65238095D01*
X137002381Y-63761904D02*
X137002381Y-64238095D01*
X137478571Y-64285714D01*
X137430952Y-64238095D01*
X137383333Y-64142857D01*
X137383333Y-63904761D01*
X137430952Y-63809523D01*
X137478571Y-63761904D01*
X137573810Y-63714285D01*
X137811905Y-63714285D01*
X137907143Y-63761904D01*
X137954762Y-63809523D01*
X138002381Y-63904761D01*
X138002381Y-64142857D01*
X137954762Y-64238095D01*
X137907143Y-64285714D01*
X137952381Y-84238095D02*
X136952381Y-84238095D01*
X136952381Y-84000000D01*
X137000000Y-83857142D01*
X137095238Y-83761904D01*
X137190476Y-83714285D01*
X137380952Y-83666666D01*
X137523810Y-83666666D01*
X137714286Y-83714285D01*
X137809524Y-83761904D01*
X137904762Y-83857142D01*
X137952381Y-84000000D01*
X137952381Y-84238095D01*
X136952381Y-82809523D02*
X136952381Y-83000000D01*
X137000000Y-83095238D01*
X137047619Y-83142857D01*
X137190476Y-83238095D01*
X137380952Y-83285714D01*
X137761905Y-83285714D01*
X137857143Y-83238095D01*
X137904762Y-83190476D01*
X137952381Y-83095238D01*
X137952381Y-82904761D01*
X137904762Y-82809523D01*
X137857143Y-82761904D01*
X137761905Y-82714285D01*
X137523810Y-82714285D01*
X137428571Y-82761904D01*
X137380952Y-82809523D01*
X137333333Y-82904761D01*
X137333333Y-83095238D01*
X137380952Y-83190476D01*
X137428571Y-83238095D01*
X137523810Y-83285714D01*
X138052381Y-103238095D02*
X137052381Y-103238095D01*
X137052381Y-103000000D01*
X137100000Y-102857142D01*
X137195238Y-102761904D01*
X137290476Y-102714285D01*
X137480952Y-102666666D01*
X137623810Y-102666666D01*
X137814286Y-102714285D01*
X137909524Y-102761904D01*
X138004762Y-102857142D01*
X138052381Y-103000000D01*
X138052381Y-103238095D01*
X137052381Y-102333333D02*
X137052381Y-101666666D01*
X138052381Y-102095238D01*
X157102381Y-46238095D02*
X156102381Y-46238095D01*
X156102381Y-46000000D01*
X156150000Y-45857142D01*
X156245238Y-45761904D01*
X156340476Y-45714285D01*
X156530952Y-45666666D01*
X156673810Y-45666666D01*
X156864286Y-45714285D01*
X156959524Y-45761904D01*
X157054762Y-45857142D01*
X157102381Y-46000000D01*
X157102381Y-46238095D01*
X156530952Y-45095238D02*
X156483333Y-45190476D01*
X156435714Y-45238095D01*
X156340476Y-45285714D01*
X156292857Y-45285714D01*
X156197619Y-45238095D01*
X156150000Y-45190476D01*
X156102381Y-45095238D01*
X156102381Y-44904761D01*
X156150000Y-44809523D01*
X156197619Y-44761904D01*
X156292857Y-44714285D01*
X156340476Y-44714285D01*
X156435714Y-44761904D01*
X156483333Y-44809523D01*
X156530952Y-44904761D01*
X156530952Y-45095238D01*
X156578571Y-45190476D01*
X156626190Y-45238095D01*
X156721429Y-45285714D01*
X156911905Y-45285714D01*
X157007143Y-45238095D01*
X157054762Y-45190476D01*
X157102381Y-45095238D01*
X157102381Y-44904761D01*
X157054762Y-44809523D01*
X157007143Y-44761904D01*
X156911905Y-44714285D01*
X156721429Y-44714285D01*
X156626190Y-44761904D01*
X156578571Y-44809523D01*
X156530952Y-44904761D01*
X157102381Y-65288095D02*
X156102381Y-65288095D01*
X156102381Y-65050000D01*
X156150000Y-64907142D01*
X156245238Y-64811904D01*
X156340476Y-64764285D01*
X156530952Y-64716666D01*
X156673810Y-64716666D01*
X156864286Y-64764285D01*
X156959524Y-64811904D01*
X157054762Y-64907142D01*
X157102381Y-65050000D01*
X157102381Y-65288095D01*
X157102381Y-64240476D02*
X157102381Y-64050000D01*
X157054762Y-63954761D01*
X157007143Y-63907142D01*
X156864286Y-63811904D01*
X156673810Y-63764285D01*
X156292857Y-63764285D01*
X156197619Y-63811904D01*
X156150000Y-63859523D01*
X156102381Y-63954761D01*
X156102381Y-64145238D01*
X156150000Y-64240476D01*
X156197619Y-64288095D01*
X156292857Y-64335714D01*
X156530952Y-64335714D01*
X156626190Y-64288095D01*
X156673810Y-64240476D01*
X156721429Y-64145238D01*
X156721429Y-63954761D01*
X156673810Y-63859523D01*
X156626190Y-63811904D01*
X156530952Y-63764285D01*
X157052381Y-84214286D02*
X156052381Y-84214286D01*
X156052381Y-83976191D01*
X156100000Y-83833333D01*
X156195238Y-83738095D01*
X156290476Y-83690476D01*
X156480952Y-83642857D01*
X156623810Y-83642857D01*
X156814286Y-83690476D01*
X156909524Y-83738095D01*
X157004762Y-83833333D01*
X157052381Y-83976191D01*
X157052381Y-84214286D01*
X157052381Y-82690476D02*
X157052381Y-83261905D01*
X157052381Y-82976191D02*
X156052381Y-82976191D01*
X156195238Y-83071429D01*
X156290476Y-83166667D01*
X156338095Y-83261905D01*
X156052381Y-82071429D02*
X156052381Y-81976190D01*
X156100000Y-81880952D01*
X156147619Y-81833333D01*
X156242857Y-81785714D01*
X156433333Y-81738095D01*
X156671429Y-81738095D01*
X156861905Y-81785714D01*
X156957143Y-81833333D01*
X157004762Y-81880952D01*
X157052381Y-81976190D01*
X157052381Y-82071429D01*
X157004762Y-82166667D01*
X156957143Y-82214286D01*
X156861905Y-82261905D01*
X156671429Y-82309524D01*
X156433333Y-82309524D01*
X156242857Y-82261905D01*
X156147619Y-82214286D01*
X156100000Y-82166667D01*
X156052381Y-82071429D01*
X166252381Y-103114286D02*
X165252381Y-103114286D01*
X165252381Y-102876191D01*
X165300000Y-102733333D01*
X165395238Y-102638095D01*
X165490476Y-102590476D01*
X165680952Y-102542857D01*
X165823810Y-102542857D01*
X166014286Y-102590476D01*
X166109524Y-102638095D01*
X166204762Y-102733333D01*
X166252381Y-102876191D01*
X166252381Y-103114286D01*
X166252381Y-101590476D02*
X166252381Y-102161905D01*
X166252381Y-101876191D02*
X165252381Y-101876191D01*
X165395238Y-101971429D01*
X165490476Y-102066667D01*
X165538095Y-102161905D01*
X166252381Y-100638095D02*
X166252381Y-101209524D01*
X166252381Y-100923810D02*
X165252381Y-100923810D01*
X165395238Y-101019048D01*
X165490476Y-101114286D01*
X165538095Y-101209524D01*
X169352381Y-103014286D02*
X168352381Y-103014286D01*
X168352381Y-102776191D01*
X168400000Y-102633333D01*
X168495238Y-102538095D01*
X168590476Y-102490476D01*
X168780952Y-102442857D01*
X168923810Y-102442857D01*
X169114286Y-102490476D01*
X169209524Y-102538095D01*
X169304762Y-102633333D01*
X169352381Y-102776191D01*
X169352381Y-103014286D01*
X169352381Y-101490476D02*
X169352381Y-102061905D01*
X169352381Y-101776191D02*
X168352381Y-101776191D01*
X168495238Y-101871429D01*
X168590476Y-101966667D01*
X168638095Y-102061905D01*
X168447619Y-101109524D02*
X168400000Y-101061905D01*
X168352381Y-100966667D01*
X168352381Y-100728571D01*
X168400000Y-100633333D01*
X168447619Y-100585714D01*
X168542857Y-100538095D01*
X168638095Y-100538095D01*
X168780952Y-100585714D01*
X169352381Y-101157143D01*
X169352381Y-100538095D01*
X172352381Y-103014286D02*
X171352381Y-103014286D01*
X171352381Y-102776191D01*
X171400000Y-102633333D01*
X171495238Y-102538095D01*
X171590476Y-102490476D01*
X171780952Y-102442857D01*
X171923810Y-102442857D01*
X172114286Y-102490476D01*
X172209524Y-102538095D01*
X172304762Y-102633333D01*
X172352381Y-102776191D01*
X172352381Y-103014286D01*
X172352381Y-101490476D02*
X172352381Y-102061905D01*
X172352381Y-101776191D02*
X171352381Y-101776191D01*
X171495238Y-101871429D01*
X171590476Y-101966667D01*
X171638095Y-102061905D01*
X171352381Y-101157143D02*
X171352381Y-100538095D01*
X171733333Y-100871429D01*
X171733333Y-100728571D01*
X171780952Y-100633333D01*
X171828571Y-100585714D01*
X171923810Y-100538095D01*
X172161905Y-100538095D01*
X172257143Y-100585714D01*
X172304762Y-100633333D01*
X172352381Y-100728571D01*
X172352381Y-101014286D01*
X172304762Y-101109524D01*
X172257143Y-101157143D01*
X133061905Y-101352381D02*
X133061905Y-100352381D01*
X133442858Y-100352381D01*
X133538096Y-100400000D01*
X133585715Y-100447619D01*
X133633334Y-100542857D01*
X133633334Y-100685714D01*
X133585715Y-100780952D01*
X133538096Y-100828571D01*
X133442858Y-100876190D01*
X133061905Y-100876190D01*
X133966667Y-100352381D02*
X134585715Y-100352381D01*
X134252381Y-100733333D01*
X134395239Y-100733333D01*
X134490477Y-100780952D01*
X134538096Y-100828571D01*
X134585715Y-100923810D01*
X134585715Y-101161905D01*
X134538096Y-101257143D01*
X134490477Y-101304762D01*
X134395239Y-101352381D01*
X134109524Y-101352381D01*
X134014286Y-101304762D01*
X133966667Y-101257143D01*
X166252381Y-104966666D02*
X165776190Y-105300000D01*
X166252381Y-105538095D02*
X165252381Y-105538095D01*
X165252381Y-105157142D01*
X165300000Y-105061904D01*
X165347619Y-105014285D01*
X165442857Y-104966666D01*
X165585714Y-104966666D01*
X165680952Y-105014285D01*
X165728571Y-105061904D01*
X165776190Y-105157142D01*
X165776190Y-105538095D01*
X165347619Y-104585714D02*
X165300000Y-104538095D01*
X165252381Y-104442857D01*
X165252381Y-104204761D01*
X165300000Y-104109523D01*
X165347619Y-104061904D01*
X165442857Y-104014285D01*
X165538095Y-104014285D01*
X165680952Y-104061904D01*
X166252381Y-104633333D01*
X166252381Y-104014285D01*
X169352381Y-105066666D02*
X168876190Y-105400000D01*
X169352381Y-105638095D02*
X168352381Y-105638095D01*
X168352381Y-105257142D01*
X168400000Y-105161904D01*
X168447619Y-105114285D01*
X168542857Y-105066666D01*
X168685714Y-105066666D01*
X168780952Y-105114285D01*
X168828571Y-105161904D01*
X168876190Y-105257142D01*
X168876190Y-105638095D01*
X168352381Y-104733333D02*
X168352381Y-104114285D01*
X168733333Y-104447619D01*
X168733333Y-104304761D01*
X168780952Y-104209523D01*
X168828571Y-104161904D01*
X168923810Y-104114285D01*
X169161905Y-104114285D01*
X169257143Y-104161904D01*
X169304762Y-104209523D01*
X169352381Y-104304761D01*
X169352381Y-104590476D01*
X169304762Y-104685714D01*
X169257143Y-104733333D01*
X129383334Y-99452381D02*
X129050000Y-98976190D01*
X128811905Y-99452381D02*
X128811905Y-98452381D01*
X129192858Y-98452381D01*
X129288096Y-98500000D01*
X129335715Y-98547619D01*
X129383334Y-98642857D01*
X129383334Y-98785714D01*
X129335715Y-98880952D01*
X129288096Y-98928571D01*
X129192858Y-98976190D01*
X128811905Y-98976190D01*
X130240477Y-98785714D02*
X130240477Y-99452381D01*
X130002381Y-98404762D02*
X129764286Y-99119048D01*
X130383334Y-99119048D01*
X126583334Y-99402381D02*
X126250000Y-98926190D01*
X126011905Y-99402381D02*
X126011905Y-98402381D01*
X126392858Y-98402381D01*
X126488096Y-98450000D01*
X126535715Y-98497619D01*
X126583334Y-98592857D01*
X126583334Y-98735714D01*
X126535715Y-98830952D01*
X126488096Y-98878571D01*
X126392858Y-98926190D01*
X126011905Y-98926190D01*
X127488096Y-98402381D02*
X127011905Y-98402381D01*
X126964286Y-98878571D01*
X127011905Y-98830952D01*
X127107143Y-98783333D01*
X127345239Y-98783333D01*
X127440477Y-98830952D01*
X127488096Y-98878571D01*
X127535715Y-98973810D01*
X127535715Y-99211905D01*
X127488096Y-99307143D01*
X127440477Y-99354762D01*
X127345239Y-99402381D01*
X127107143Y-99402381D01*
X127011905Y-99354762D01*
X126964286Y-99307143D01*
X155667143Y-112270476D02*
X155714762Y-112318095D01*
X155762381Y-112460952D01*
X155762381Y-112556190D01*
X155714762Y-112699048D01*
X155619524Y-112794286D01*
X155524286Y-112841905D01*
X155333810Y-112889524D01*
X155190952Y-112889524D01*
X155000476Y-112841905D01*
X154905238Y-112794286D01*
X154810000Y-112699048D01*
X154762381Y-112556190D01*
X154762381Y-112460952D01*
X154810000Y-112318095D01*
X154857619Y-112270476D01*
X155762381Y-111841905D02*
X154762381Y-111841905D01*
X155762381Y-111270476D01*
X154762381Y-111270476D01*
X155762381Y-110270476D02*
X155762381Y-110841905D01*
X155762381Y-110556191D02*
X154762381Y-110556191D01*
X154905238Y-110651429D01*
X155000476Y-110746667D01*
X155048095Y-110841905D01*
X119809524Y-111357143D02*
X119761905Y-111404762D01*
X119619048Y-111452381D01*
X119523810Y-111452381D01*
X119380952Y-111404762D01*
X119285714Y-111309524D01*
X119238095Y-111214286D01*
X119190476Y-111023810D01*
X119190476Y-110880952D01*
X119238095Y-110690476D01*
X119285714Y-110595238D01*
X119380952Y-110500000D01*
X119523810Y-110452381D01*
X119619048Y-110452381D01*
X119761905Y-110500000D01*
X119809524Y-110547619D01*
X120238095Y-111452381D02*
X120238095Y-110452381D01*
X120809524Y-111452381D01*
X120809524Y-110452381D01*
X121238095Y-110547619D02*
X121285714Y-110500000D01*
X121380952Y-110452381D01*
X121619048Y-110452381D01*
X121714286Y-110500000D01*
X121761905Y-110547619D01*
X121809524Y-110642857D01*
X121809524Y-110738095D01*
X121761905Y-110880952D01*
X121190476Y-111452381D01*
X121809524Y-111452381D01*
X119759524Y-101057143D02*
X119711905Y-101104762D01*
X119569048Y-101152381D01*
X119473810Y-101152381D01*
X119330952Y-101104762D01*
X119235714Y-101009524D01*
X119188095Y-100914286D01*
X119140476Y-100723810D01*
X119140476Y-100580952D01*
X119188095Y-100390476D01*
X119235714Y-100295238D01*
X119330952Y-100200000D01*
X119473810Y-100152381D01*
X119569048Y-100152381D01*
X119711905Y-100200000D01*
X119759524Y-100247619D01*
X120188095Y-101152381D02*
X120188095Y-100152381D01*
X120759524Y-101152381D01*
X120759524Y-100152381D01*
X121140476Y-100152381D02*
X121759524Y-100152381D01*
X121426190Y-100533333D01*
X121569048Y-100533333D01*
X121664286Y-100580952D01*
X121711905Y-100628571D01*
X121759524Y-100723810D01*
X121759524Y-100961905D01*
X121711905Y-101057143D01*
X121664286Y-101104762D01*
X121569048Y-101152381D01*
X121283333Y-101152381D01*
X121188095Y-101104762D01*
X121140476Y-101057143D01*
D15*
X160868000Y-64114048D02*
X161085714Y-64174524D01*
X161448571Y-64174524D01*
X161593714Y-64114048D01*
X161666285Y-64053571D01*
X161738857Y-63932619D01*
X161738857Y-63811667D01*
X161666285Y-63690714D01*
X161593714Y-63630238D01*
X161448571Y-63569762D01*
X161158285Y-63509286D01*
X161013143Y-63448810D01*
X160940571Y-63388333D01*
X160868000Y-63267381D01*
X160868000Y-63146429D01*
X160940571Y-63025476D01*
X161013143Y-62965000D01*
X161158285Y-62904524D01*
X161521143Y-62904524D01*
X161738857Y-62965000D01*
X162246857Y-62904524D02*
X162609714Y-64174524D01*
X162900000Y-63267381D01*
X163190286Y-64174524D01*
X163553143Y-62904524D01*
X164206286Y-64174524D02*
X164496571Y-64174524D01*
X164641714Y-64114048D01*
X164714286Y-64053571D01*
X164859428Y-63872143D01*
X164932000Y-63630238D01*
X164932000Y-63146429D01*
X164859428Y-63025476D01*
X164786857Y-62965000D01*
X164641714Y-62904524D01*
X164351428Y-62904524D01*
X164206286Y-62965000D01*
X164133714Y-63025476D01*
X164061143Y-63146429D01*
X164061143Y-63448810D01*
X164133714Y-63569762D01*
X164206286Y-63630238D01*
X164351428Y-63690714D01*
X164641714Y-63690714D01*
X164786857Y-63630238D01*
X164859428Y-63569762D01*
X164932000Y-63448810D01*
X141868000Y-64114048D02*
X142085714Y-64174524D01*
X142448571Y-64174524D01*
X142593714Y-64114048D01*
X142666285Y-64053571D01*
X142738857Y-63932619D01*
X142738857Y-63811667D01*
X142666285Y-63690714D01*
X142593714Y-63630238D01*
X142448571Y-63569762D01*
X142158285Y-63509286D01*
X142013143Y-63448810D01*
X141940571Y-63388333D01*
X141868000Y-63267381D01*
X141868000Y-63146429D01*
X141940571Y-63025476D01*
X142013143Y-62965000D01*
X142158285Y-62904524D01*
X142521143Y-62904524D01*
X142738857Y-62965000D01*
X143246857Y-62904524D02*
X143609714Y-64174524D01*
X143900000Y-63267381D01*
X144190286Y-64174524D01*
X144553143Y-62904524D01*
X145859428Y-62904524D02*
X145133714Y-62904524D01*
X145061143Y-63509286D01*
X145133714Y-63448810D01*
X145278857Y-63388333D01*
X145641714Y-63388333D01*
X145786857Y-63448810D01*
X145859428Y-63509286D01*
X145932000Y-63630238D01*
X145932000Y-63932619D01*
X145859428Y-64053571D01*
X145786857Y-64114048D01*
X145641714Y-64174524D01*
X145278857Y-64174524D01*
X145133714Y-64114048D01*
X145061143Y-64053571D01*
X122868000Y-64114048D02*
X123085714Y-64174524D01*
X123448571Y-64174524D01*
X123593714Y-64114048D01*
X123666285Y-64053571D01*
X123738857Y-63932619D01*
X123738857Y-63811667D01*
X123666285Y-63690714D01*
X123593714Y-63630238D01*
X123448571Y-63569762D01*
X123158285Y-63509286D01*
X123013143Y-63448810D01*
X122940571Y-63388333D01*
X122868000Y-63267381D01*
X122868000Y-63146429D01*
X122940571Y-63025476D01*
X123013143Y-62965000D01*
X123158285Y-62904524D01*
X123521143Y-62904524D01*
X123738857Y-62965000D01*
X124246857Y-62904524D02*
X124609714Y-64174524D01*
X124900000Y-63267381D01*
X125190286Y-64174524D01*
X125553143Y-62904524D01*
X126061143Y-63025476D02*
X126133714Y-62965000D01*
X126278857Y-62904524D01*
X126641714Y-62904524D01*
X126786857Y-62965000D01*
X126859428Y-63025476D01*
X126932000Y-63146429D01*
X126932000Y-63267381D01*
X126859428Y-63448810D01*
X125988571Y-64174524D01*
X126932000Y-64174524D01*
X122868000Y-45114048D02*
X123085714Y-45174524D01*
X123448571Y-45174524D01*
X123593714Y-45114048D01*
X123666285Y-45053571D01*
X123738857Y-44932619D01*
X123738857Y-44811667D01*
X123666285Y-44690714D01*
X123593714Y-44630238D01*
X123448571Y-44569762D01*
X123158285Y-44509286D01*
X123013143Y-44448810D01*
X122940571Y-44388333D01*
X122868000Y-44267381D01*
X122868000Y-44146429D01*
X122940571Y-44025476D01*
X123013143Y-43965000D01*
X123158285Y-43904524D01*
X123521143Y-43904524D01*
X123738857Y-43965000D01*
X124246857Y-43904524D02*
X124609714Y-45174524D01*
X124900000Y-44267381D01*
X125190286Y-45174524D01*
X125553143Y-43904524D01*
X126932000Y-45174524D02*
X126061143Y-45174524D01*
X126496571Y-45174524D02*
X126496571Y-43904524D01*
X126351428Y-44085952D01*
X126206286Y-44206905D01*
X126061143Y-44267381D01*
X141868000Y-45114048D02*
X142085714Y-45174524D01*
X142448571Y-45174524D01*
X142593714Y-45114048D01*
X142666285Y-45053571D01*
X142738857Y-44932619D01*
X142738857Y-44811667D01*
X142666285Y-44690714D01*
X142593714Y-44630238D01*
X142448571Y-44569762D01*
X142158285Y-44509286D01*
X142013143Y-44448810D01*
X141940571Y-44388333D01*
X141868000Y-44267381D01*
X141868000Y-44146429D01*
X141940571Y-44025476D01*
X142013143Y-43965000D01*
X142158285Y-43904524D01*
X142521143Y-43904524D01*
X142738857Y-43965000D01*
X143246857Y-43904524D02*
X143609714Y-45174524D01*
X143900000Y-44267381D01*
X144190286Y-45174524D01*
X144553143Y-43904524D01*
X145786857Y-44327857D02*
X145786857Y-45174524D01*
X145424000Y-43844048D02*
X145061143Y-44751190D01*
X146004571Y-44751190D01*
X160868000Y-45114048D02*
X161085714Y-45174524D01*
X161448571Y-45174524D01*
X161593714Y-45114048D01*
X161666285Y-45053571D01*
X161738857Y-44932619D01*
X161738857Y-44811667D01*
X161666285Y-44690714D01*
X161593714Y-44630238D01*
X161448571Y-44569762D01*
X161158285Y-44509286D01*
X161013143Y-44448810D01*
X160940571Y-44388333D01*
X160868000Y-44267381D01*
X160868000Y-44146429D01*
X160940571Y-44025476D01*
X161013143Y-43965000D01*
X161158285Y-43904524D01*
X161521143Y-43904524D01*
X161738857Y-43965000D01*
X162246857Y-43904524D02*
X162609714Y-45174524D01*
X162900000Y-44267381D01*
X163190286Y-45174524D01*
X163553143Y-43904524D01*
X164351428Y-44448810D02*
X164206286Y-44388333D01*
X164133714Y-44327857D01*
X164061143Y-44206905D01*
X164061143Y-44146429D01*
X164133714Y-44025476D01*
X164206286Y-43965000D01*
X164351428Y-43904524D01*
X164641714Y-43904524D01*
X164786857Y-43965000D01*
X164859428Y-44025476D01*
X164932000Y-44146429D01*
X164932000Y-44206905D01*
X164859428Y-44327857D01*
X164786857Y-44388333D01*
X164641714Y-44448810D01*
X164351428Y-44448810D01*
X164206286Y-44509286D01*
X164133714Y-44569762D01*
X164061143Y-44690714D01*
X164061143Y-44932619D01*
X164133714Y-45053571D01*
X164206286Y-45114048D01*
X164351428Y-45174524D01*
X164641714Y-45174524D01*
X164786857Y-45114048D01*
X164859428Y-45053571D01*
X164932000Y-44932619D01*
X164932000Y-44690714D01*
X164859428Y-44569762D01*
X164786857Y-44509286D01*
X164641714Y-44448810D01*
X160142286Y-83114048D02*
X160360000Y-83174524D01*
X160722857Y-83174524D01*
X160868000Y-83114048D01*
X160940571Y-83053571D01*
X161013143Y-82932619D01*
X161013143Y-82811667D01*
X160940571Y-82690714D01*
X160868000Y-82630238D01*
X160722857Y-82569762D01*
X160432571Y-82509286D01*
X160287429Y-82448810D01*
X160214857Y-82388333D01*
X160142286Y-82267381D01*
X160142286Y-82146429D01*
X160214857Y-82025476D01*
X160287429Y-81965000D01*
X160432571Y-81904524D01*
X160795429Y-81904524D01*
X161013143Y-81965000D01*
X161521143Y-81904524D02*
X161884000Y-83174524D01*
X162174286Y-82267381D01*
X162464572Y-83174524D01*
X162827429Y-81904524D01*
X164206286Y-83174524D02*
X163335429Y-83174524D01*
X163770857Y-83174524D02*
X163770857Y-81904524D01*
X163625714Y-82085952D01*
X163480572Y-82206905D01*
X163335429Y-82267381D01*
X165149715Y-81904524D02*
X165294858Y-81904524D01*
X165440001Y-81965000D01*
X165512572Y-82025476D01*
X165585143Y-82146429D01*
X165657715Y-82388333D01*
X165657715Y-82690714D01*
X165585143Y-82932619D01*
X165512572Y-83053571D01*
X165440001Y-83114048D01*
X165294858Y-83174524D01*
X165149715Y-83174524D01*
X165004572Y-83114048D01*
X164932001Y-83053571D01*
X164859429Y-82932619D01*
X164786858Y-82690714D01*
X164786858Y-82388333D01*
X164859429Y-82146429D01*
X164932001Y-82025476D01*
X165004572Y-81965000D01*
X165149715Y-81904524D01*
X141868000Y-83114048D02*
X142085714Y-83174524D01*
X142448571Y-83174524D01*
X142593714Y-83114048D01*
X142666285Y-83053571D01*
X142738857Y-82932619D01*
X142738857Y-82811667D01*
X142666285Y-82690714D01*
X142593714Y-82630238D01*
X142448571Y-82569762D01*
X142158285Y-82509286D01*
X142013143Y-82448810D01*
X141940571Y-82388333D01*
X141868000Y-82267381D01*
X141868000Y-82146429D01*
X141940571Y-82025476D01*
X142013143Y-81965000D01*
X142158285Y-81904524D01*
X142521143Y-81904524D01*
X142738857Y-81965000D01*
X143246857Y-81904524D02*
X143609714Y-83174524D01*
X143900000Y-82267381D01*
X144190286Y-83174524D01*
X144553143Y-81904524D01*
X145786857Y-81904524D02*
X145496571Y-81904524D01*
X145351428Y-81965000D01*
X145278857Y-82025476D01*
X145133714Y-82206905D01*
X145061143Y-82448810D01*
X145061143Y-82932619D01*
X145133714Y-83053571D01*
X145206286Y-83114048D01*
X145351428Y-83174524D01*
X145641714Y-83174524D01*
X145786857Y-83114048D01*
X145859428Y-83053571D01*
X145932000Y-82932619D01*
X145932000Y-82630238D01*
X145859428Y-82509286D01*
X145786857Y-82448810D01*
X145641714Y-82388333D01*
X145351428Y-82388333D01*
X145206286Y-82448810D01*
X145133714Y-82509286D01*
X145061143Y-82630238D01*
X122868000Y-83114048D02*
X123085714Y-83174524D01*
X123448571Y-83174524D01*
X123593714Y-83114048D01*
X123666285Y-83053571D01*
X123738857Y-82932619D01*
X123738857Y-82811667D01*
X123666285Y-82690714D01*
X123593714Y-82630238D01*
X123448571Y-82569762D01*
X123158285Y-82509286D01*
X123013143Y-82448810D01*
X122940571Y-82388333D01*
X122868000Y-82267381D01*
X122868000Y-82146429D01*
X122940571Y-82025476D01*
X123013143Y-81965000D01*
X123158285Y-81904524D01*
X123521143Y-81904524D01*
X123738857Y-81965000D01*
X124246857Y-81904524D02*
X124609714Y-83174524D01*
X124900000Y-82267381D01*
X125190286Y-83174524D01*
X125553143Y-81904524D01*
X125988571Y-81904524D02*
X126932000Y-81904524D01*
X126424000Y-82388333D01*
X126641714Y-82388333D01*
X126786857Y-82448810D01*
X126859428Y-82509286D01*
X126932000Y-82630238D01*
X126932000Y-82932619D01*
X126859428Y-83053571D01*
X126786857Y-83114048D01*
X126641714Y-83174524D01*
X126206286Y-83174524D01*
X126061143Y-83114048D01*
X125988571Y-83053571D01*
X141868000Y-102114048D02*
X142085714Y-102174524D01*
X142448571Y-102174524D01*
X142593714Y-102114048D01*
X142666285Y-102053571D01*
X142738857Y-101932619D01*
X142738857Y-101811667D01*
X142666285Y-101690714D01*
X142593714Y-101630238D01*
X142448571Y-101569762D01*
X142158285Y-101509286D01*
X142013143Y-101448810D01*
X141940571Y-101388333D01*
X141868000Y-101267381D01*
X141868000Y-101146429D01*
X141940571Y-101025476D01*
X142013143Y-100965000D01*
X142158285Y-100904524D01*
X142521143Y-100904524D01*
X142738857Y-100965000D01*
X143246857Y-100904524D02*
X143609714Y-102174524D01*
X143900000Y-101267381D01*
X144190286Y-102174524D01*
X144553143Y-100904524D01*
X144988571Y-100904524D02*
X146004571Y-100904524D01*
X145351428Y-102174524D01*
M02*
