G04 #@! TF.FileFunction,Profile,NP*
%FSLAX46Y46*%
G04 Gerber Fmt 4.6, Leading zero omitted, Abs format (unit mm)*
G04 Created by KiCad (PCBNEW 4.0.5-e0-6337~49~ubuntu16.04.1) date Tue Jan  3 12:00:36 2017*
%MOMM*%
%LPD*%
G01*
G04 APERTURE LIST*
%ADD10C,0.100000*%
%ADD11C,0.150000*%
G04 APERTURE END LIST*
D10*
D11*
X110700000Y-123800000D02*
X110700000Y-33800000D01*
X184700000Y-123800000D02*
X110700000Y-123800000D01*
X184700000Y-33800000D02*
X184700000Y-123800000D01*
X110700000Y-33800000D02*
X184700000Y-33800000D01*
X162100000Y-71200000D02*
X167400000Y-71200000D01*
X167400000Y-76300000D02*
X162100000Y-76300000D01*
X162100000Y-71200000D02*
X162100000Y-76300000D01*
X167400000Y-71200000D02*
X167400000Y-76300000D01*
X143100000Y-71200000D02*
X148400000Y-71200000D01*
X148400000Y-76300000D02*
X143100000Y-76300000D01*
X143100000Y-71200000D02*
X143100000Y-76300000D01*
X148400000Y-71200000D02*
X148400000Y-76300000D01*
X124100000Y-71200000D02*
X129400000Y-71200000D01*
X129400000Y-76300000D02*
X124100000Y-76300000D01*
X124100000Y-71200000D02*
X124100000Y-76300000D01*
X129400000Y-71200000D02*
X129400000Y-76300000D01*
X124100000Y-52200000D02*
X129400000Y-52200000D01*
X129400000Y-57300000D02*
X124100000Y-57300000D01*
X124100000Y-52200000D02*
X124100000Y-57300000D01*
X129400000Y-52200000D02*
X129400000Y-57300000D01*
X143100000Y-52200000D02*
X148400000Y-52200000D01*
X148400000Y-57300000D02*
X143100000Y-57300000D01*
X143100000Y-52200000D02*
X143100000Y-57300000D01*
X148400000Y-52200000D02*
X148400000Y-57300000D01*
X162100000Y-52200000D02*
X167400000Y-52200000D01*
X167400000Y-57300000D02*
X162100000Y-57300000D01*
X162100000Y-52200000D02*
X162100000Y-57300000D01*
X167400000Y-52200000D02*
X167400000Y-57300000D01*
X162100000Y-90200000D02*
X167400000Y-90200000D01*
X167400000Y-95300000D02*
X162100000Y-95300000D01*
X162100000Y-90200000D02*
X162100000Y-95300000D01*
X167400000Y-90200000D02*
X167400000Y-95300000D01*
X143100000Y-90200000D02*
X148400000Y-90200000D01*
X148400000Y-95300000D02*
X143100000Y-95300000D01*
X143100000Y-90200000D02*
X143100000Y-95300000D01*
X148400000Y-90200000D02*
X148400000Y-95300000D01*
X124100000Y-90200000D02*
X129400000Y-90200000D01*
X129400000Y-95300000D02*
X124100000Y-95300000D01*
X124100000Y-90200000D02*
X124100000Y-95300000D01*
X129400000Y-90200000D02*
X129400000Y-95300000D01*
X143100000Y-109200000D02*
X148400000Y-109200000D01*
X148400000Y-114300000D02*
X143100000Y-114300000D01*
X143100000Y-109200000D02*
X143100000Y-114300000D01*
X148400000Y-109200000D02*
X148400000Y-114300000D01*
M02*
