M48
;DRILL file {KiCad 4.0.5-e0-6337~49~ubuntu16.04.1} date Tue Jan  3 12:00:32 2017
;FORMAT={-:-/ absolute / metric / decimal}
FMAT,2
METRIC,TZ
T1C0.500
T2C0.900
T3C1.000
T4C1.499
T5C3.048
%
G90
G05
M71
T1
X120.7Y-98.1
X137.6Y-62.3
X137.6Y-68.
X137.6Y-81.7
X137.6Y-87.
X137.6Y-99.9
X137.6Y-105.9
X141.7Y-92.6
X141.7Y-96.
X141.9Y-54.6
X141.9Y-58.1
X141.9Y-73.7
X141.9Y-77.
X153.1Y-115.6
X156.6Y-62.3
X156.6Y-68.
X156.6Y-81.7
X156.6Y-87.
X158.95Y-107.05
X160.5Y-92.6
X160.5Y-96.4
X160.8Y-54.6
X160.8Y-58.1
X160.8Y-73.7
X160.8Y-77.2
X172.3Y-72.6
X172.55Y-53.15
X172.9Y-91.8
T2
X134.4Y-76.4
X134.4Y-81.62
X134.4Y-84.1
X134.5Y-57.8
X134.5Y-60.7
X134.5Y-65.4
X134.6Y-95.6
X135.8Y-100.5
X153.5Y-76.4
X153.5Y-81.6
X153.5Y-84.02
X153.5Y-95.6
X153.7Y-57.6
X153.7Y-60.7
X153.7Y-65.4
X154.Y-100.4
X159.Y-79.9
X165.5Y-118.
X172.6Y-57.7
X172.6Y-60.7
X172.6Y-66.2
X172.8Y-95.6
X173.Y-76.3
T3
X123.65Y-101.56
X123.65Y-104.1
X123.65Y-107.46
X123.65Y-110.
X157.7Y-110.31
X157.7Y-112.85
X160.24Y-110.31
X160.24Y-112.85
X162.78Y-110.31
X162.78Y-112.85
X165.32Y-110.31
X165.32Y-112.85
X167.86Y-110.31
X167.86Y-112.85
X170.4Y-110.31
X170.4Y-112.85
X172.94Y-110.31
X172.94Y-112.85
X175.48Y-110.31
X175.48Y-112.85
T4
X122.99Y-47.36
X122.99Y-66.36
X122.99Y-85.36
X129.34Y-44.82
X129.34Y-63.82
X129.34Y-82.82
X141.99Y-47.36
X141.99Y-66.36
X141.99Y-85.36
X141.99Y-104.36
X148.34Y-44.82
X148.34Y-63.82
X148.34Y-82.82
X148.34Y-101.82
X160.99Y-47.36
X160.99Y-66.36
X160.99Y-85.36
X167.34Y-44.82
X167.34Y-63.82
X167.34Y-82.82
T5
X114.2Y-37.3
X114.2Y-119.8
X181.7Y-37.3
X181.7Y-119.8
T0
M30
