G04 #@! TF.FileFunction,Other,Fab,Bot*
%FSLAX46Y46*%
G04 Gerber Fmt 4.6, Leading zero omitted, Abs format (unit mm)*
G04 Created by KiCad (PCBNEW 4.0.5-e0-6337~49~ubuntu16.04.1) date Tue Jan  3 12:00:36 2017*
%MOMM*%
%LPD*%
G01*
G04 APERTURE LIST*
%ADD10C,0.100000*%
%ADD11C,0.150000*%
G04 APERTURE END LIST*
D10*
D11*
X118200000Y-54650000D02*
X119000000Y-54650000D01*
X118200000Y-53050000D02*
X118200000Y-54650000D01*
X119000000Y-53050000D02*
X118200000Y-53050000D01*
X119000000Y-54650000D02*
X119000000Y-53050000D01*
X118200000Y-73650000D02*
X119000000Y-73650000D01*
X118200000Y-72050000D02*
X118200000Y-73650000D01*
X119000000Y-72050000D02*
X118200000Y-72050000D01*
X119000000Y-73650000D02*
X119000000Y-72050000D01*
X118200000Y-92650000D02*
X119000000Y-92650000D01*
X118200000Y-91050000D02*
X118200000Y-92650000D01*
X119000000Y-91050000D02*
X118200000Y-91050000D01*
X119000000Y-92650000D02*
X119000000Y-91050000D01*
X137200000Y-54650000D02*
X138000000Y-54650000D01*
X137200000Y-53050000D02*
X137200000Y-54650000D01*
X138000000Y-53050000D02*
X137200000Y-53050000D01*
X138000000Y-54650000D02*
X138000000Y-53050000D01*
X137200000Y-73600000D02*
X138000000Y-73600000D01*
X137200000Y-72000000D02*
X137200000Y-73600000D01*
X138000000Y-72000000D02*
X137200000Y-72000000D01*
X138000000Y-73600000D02*
X138000000Y-72000000D01*
X137200000Y-92650000D02*
X138000000Y-92650000D01*
X137200000Y-91050000D02*
X137200000Y-92650000D01*
X138000000Y-91050000D02*
X137200000Y-91050000D01*
X138000000Y-92650000D02*
X138000000Y-91050000D01*
X137200000Y-111650000D02*
X138000000Y-111650000D01*
X137200000Y-110050000D02*
X137200000Y-111650000D01*
X138000000Y-110050000D02*
X137200000Y-110050000D01*
X138000000Y-111650000D02*
X138000000Y-110050000D01*
X156200000Y-54650000D02*
X157000000Y-54650000D01*
X156200000Y-53050000D02*
X156200000Y-54650000D01*
X157000000Y-53050000D02*
X156200000Y-53050000D01*
X157000000Y-54650000D02*
X157000000Y-53050000D01*
X156150000Y-73550000D02*
X156950000Y-73550000D01*
X156150000Y-71950000D02*
X156150000Y-73550000D01*
X156950000Y-71950000D02*
X156150000Y-71950000D01*
X156950000Y-73550000D02*
X156950000Y-71950000D01*
X156200000Y-92650000D02*
X157000000Y-92650000D01*
X156200000Y-91050000D02*
X156200000Y-92650000D01*
X157000000Y-91050000D02*
X156200000Y-91050000D01*
X157000000Y-92650000D02*
X157000000Y-91050000D01*
M02*
