G04 #@! TF.FileFunction,Soldermask,Top*
%FSLAX46Y46*%
G04 Gerber Fmt 4.6, Leading zero omitted, Abs format (unit mm)*
G04 Created by KiCad (PCBNEW 4.0.5-e0-6337~49~ubuntu16.04.1) date Tue Jan  3 12:00:36 2017*
%MOMM*%
%LPD*%
G01*
G04 APERTURE LIST*
%ADD10C,0.100000*%
%ADD11R,1.300000X0.900000*%
%ADD12R,1.150000X1.200000*%
%ADD13R,1.620000X1.310000*%
%ADD14R,1.200000X1.200000*%
%ADD15R,2.400000X4.200000*%
%ADD16R,2.400000X1.900000*%
%ADD17R,0.900000X1.300000*%
%ADD18C,1.900000*%
%ADD19R,2.100000X2.100000*%
%ADD20O,2.100000X2.100000*%
%ADD21C,4.464000*%
%ADD22C,2.686000*%
G04 APERTURE END LIST*
D10*
D11*
X164200000Y-105550000D03*
X164200000Y-104050000D03*
D12*
X121100000Y-107550000D03*
X121100000Y-106050000D03*
X121100000Y-102350000D03*
X121100000Y-103850000D03*
D13*
X118600000Y-50635000D03*
X118600000Y-47365000D03*
X118600000Y-69635000D03*
X118600000Y-66365000D03*
X118600000Y-88635000D03*
X118600000Y-85365000D03*
X137600000Y-50635000D03*
X137600000Y-47365000D03*
X137600000Y-69635000D03*
X137600000Y-66365000D03*
X137600000Y-88635000D03*
X137600000Y-85365000D03*
X137600000Y-107635000D03*
X137600000Y-104365000D03*
X156600000Y-50635000D03*
X156600000Y-47365000D03*
X156600000Y-69635000D03*
X156600000Y-66365000D03*
X156600000Y-88635000D03*
X156600000Y-85365000D03*
D14*
X164200000Y-102700000D03*
X164200000Y-101100000D03*
X167300000Y-102600000D03*
X167300000Y-101000000D03*
X170400000Y-102600000D03*
X170400000Y-101000000D03*
D15*
X133350000Y-105100000D03*
D16*
X127050000Y-105100000D03*
X127050000Y-107400000D03*
X127050000Y-102800000D03*
D11*
X167300000Y-105550000D03*
X167300000Y-104050000D03*
X170400000Y-105550000D03*
X170400000Y-104050000D03*
D17*
X130450000Y-100500000D03*
X128950000Y-100500000D03*
X127600000Y-100500000D03*
X126100000Y-100500000D03*
D18*
X175500000Y-47250000D03*
X175500000Y-64650000D03*
X175500000Y-82800000D03*
X156700000Y-101800000D03*
X118600000Y-98800000D03*
X137600000Y-117600000D03*
X156500000Y-115400000D03*
X175500000Y-55700000D03*
X175500000Y-73850000D03*
X175500000Y-94300000D03*
X149700000Y-117600000D03*
X161400000Y-98800000D03*
X168900000Y-98800000D03*
X172800000Y-104800000D03*
X167900000Y-115800000D03*
X174900000Y-115750000D03*
X127100000Y-110300000D03*
X129400000Y-113100000D03*
D19*
X157700000Y-112850000D03*
D20*
X157700000Y-110310000D03*
X160240000Y-112850000D03*
X160240000Y-110310000D03*
X162780000Y-112850000D03*
X162780000Y-110310000D03*
X165320000Y-112850000D03*
X165320000Y-110310000D03*
X167860000Y-112850000D03*
X167860000Y-110310000D03*
X170400000Y-112850000D03*
X170400000Y-110310000D03*
X172940000Y-112850000D03*
X172940000Y-110310000D03*
X175480000Y-112850000D03*
X175480000Y-110310000D03*
D19*
X123650000Y-107460000D03*
D20*
X123650000Y-110000000D03*
D19*
X123650000Y-101560000D03*
D20*
X123650000Y-104100000D03*
D21*
X114200000Y-37300000D03*
X114200000Y-119800000D03*
X181700000Y-119800000D03*
X181700000Y-37300000D03*
D22*
X167340000Y-63820000D03*
X160990000Y-66360000D03*
X148340000Y-63820000D03*
X141990000Y-66360000D03*
X129340000Y-63820000D03*
X122990000Y-66360000D03*
X129340000Y-44820000D03*
X122990000Y-47360000D03*
X148340000Y-44820000D03*
X141990000Y-47360000D03*
X167340000Y-44820000D03*
X160990000Y-47360000D03*
X167340000Y-82820000D03*
X160990000Y-85360000D03*
X148340000Y-82820000D03*
X141990000Y-85360000D03*
X129340000Y-82820000D03*
X122990000Y-85360000D03*
X148340000Y-101820000D03*
X141990000Y-104360000D03*
M02*
